<svg width="404" height="543" viewBox="0 0 404 543" fill="none" xmlns="http://www.w3.org/2000/svg">
<path d="M138.065 529.512L136.82 533.429H135.573L134.949 533.147L134.637 532.866L132.144 531.749L129.651 531.467H129.028L127.782 532.309L127.47 532.866L127.158 533.707V533.986L126.846 534.546L126.535 534.827L125.911 535.385L125.288 534.827H124.977L123.729 535.663L121.236 536.504L120.612 536.225H120.302L119.678 533.429L119.99 532.866L120.612 532.587H122.171L128.716 529.512L129.651 528.671L130.586 528.114L132.768 526.715L134.637 525.595L136.196 525.316L136.508 526.152V526.993L137.132 527.272L138.065 527.835V529.512Z" fill="#D83449"/>
<path d="M187.311 502.656L185.753 504.055H184.195L182.636 505.172L182.012 505.732L181.7 506.292L181.388 505.732L179.519 503.495L179.207 503.213L177.649 502.935L177.026 503.213L172.975 505.172H166.117L164.247 504.055L163.936 503.213V502.656L164.871 500.976L166.117 500.139L170.17 498.179L174.221 497.62L174.845 497.901L176.091 498.179L177.338 499.579L180.142 500.417L185.753 500.698L186.688 500.976L187.311 501.815V502.656Z" fill="#D83449"/>
<path d="M151.157 492.03H149.911L147.416 491.473L150.533 487.277L151.157 486.715L152.715 486.436V486.996L151.78 491.749L151.157 492.03Z" fill="#D83449"/>
<path d="M220.972 476.062L221.283 478.578L219.725 481.655L218.167 483.612L214.426 485.01L213.492 485.288H212.868L210.998 485.57L210.063 485.288L209.439 485.01L207.881 483.89L207.57 483.612L202.583 478.578V477.46L202.895 476.337L203.83 475.78L204.454 475.499H205.076L205.388 475.78L205.7 476.062L206.323 476.337L208.505 475.78L210.063 474.663L210.686 473.82L211.31 473.265L212.245 472.702H214.426L215.672 474.101L217.231 475.217L219.413 475.78L220.972 476.062Z" fill="#D83449"/>
<path d="M370.255 463.212L369.011 464.895L368.697 464.61L364.956 458.178L364.645 457.337L365.893 453.704H366.825L369.321 455.106L369.941 455.66L370.255 456.22V463.212Z" fill="#D83449"/>
<path d="M246.832 451.721L245.901 452.84L245.274 452.562L244.964 452.283L244.029 450.603V450.044L244.343 448.646L244.652 448.088L244.964 447.525L245.901 446.968H248.704L249.949 447.247L250.263 447.525L251.821 449.487L248.704 451.442L246.832 451.721Z" fill="#D83449"/>
<path d="M326.309 384.325L325.998 384.604L323.193 383.486L322.26 382.927L321.323 382.37L321.013 382.089L320.702 381.529L320.389 380.972L320.075 379.572L320.389 379.291L320.702 378.453L321.634 377.893L323.506 377.612L324.44 378.175L325.998 379.572L326.622 380.13L327.246 381.807L327.557 382.927V383.206L326.309 384.325Z" fill="#D83449"/>
<path d="M374.618 365.312H374.307L373.686 364.755L372.439 363.357L372.749 359.718V358.042L373.998 357.763L374.618 358.601L375.866 360.838L376.176 361.398V361.958L375.555 364.476L375.245 365.034L374.618 365.312Z" fill="#D83449"/>
<path d="M377.733 375.936L378.981 377.334L381.477 376.496L382.098 376.214L384.593 376.777L384.28 378.175L383.966 382.09L384.593 382.927L386.772 384.604L387.083 384.886L386.462 385.167V385.725L387.083 386.006H388.02L389.268 386.566L389.579 387.124L389.889 387.405L390.827 388.521L391.136 391.6L390.827 392.16L389.889 393.559L389.579 394.115L385.524 397.194L383.656 398.033L381.787 398.874L381.477 399.709L380.85 400.55L382.721 402.788L383.035 403.069L383.656 403.348L385.837 403.626H386.772L387.083 403.348L386.462 403.069L387.083 402.509L392.695 402.788L393.943 403.907L394.254 405.584L393.316 408.103L392.695 409.22L392.071 409.501L391.447 413.978L394.254 415.376L395.188 414.535L396.432 413.696L397.059 413.978L397.37 414.257L396.432 418.173L396.122 418.73V419.012L393.316 426.564V427.121L393.943 428.519L394.254 429.083L395.188 429.36H395.812L397.059 429.918L400.177 432.715L401.422 434.119L403.293 440.548V443.067L402.666 443.346L401.735 445.022V448.661L402.045 448.939L402.979 449.218L402.045 452.577L397.68 458.171L393.316 460.127H392.695L392.071 460.693L390.513 463.205L391.136 464.044L391.447 464.322L392.071 464.603L392.695 465.163L393.316 465.442L393.63 467.685H392.071L391.447 467.401L391.136 467.122L390.827 466.287L390.513 464.603L390.199 463.765L389.889 462.924L387.71 462.367H387.083L386.772 462.924L385.837 464.603L386.151 465.442L386.772 466.562L387.71 467.122L388.02 467.401L388.641 467.96L389.268 468.799L389.889 469.637L389.268 471.317L388.955 471.88L388.641 472.434L388.331 473.833V481.669L388.02 485.583L387.396 487.262V485.583L387.083 485.023L386.772 484.742L385.213 483.068L383.345 479.707L383.035 478.31L382.721 478.028L381.787 473.833L382.098 472.997L382.721 471.599L383.035 470.197L382.098 466.287L381.477 465.721L380.85 465.442H379.918L378.981 464.888L378.36 464.044L378.046 463.489L377.733 462.367V461.807L378.046 460.968L378.36 460.408L378.046 459.848L377.112 458.171L376.488 457.895L375.243 457.33L374.616 457.051L373.996 456.213L371.813 451.457V450.619L372.126 448.939L372.437 448.382V447.82L372.126 447.541L371.5 447.262H370.568L368.073 448.661L367.138 449.502L365.579 450.619L364.021 452.299V453.134L364.335 453.976L364.645 455.099L364.335 456.213V457.051L363.708 457.611L362.15 459.294L360.905 459.57L359.66 459.294L359.033 459.848L357.474 461.807V463.205L357.788 463.765L356.854 464.888L355.296 466.841L353.737 468.52V468.799L352.799 471.599L353.426 475.512L353.737 476.075L355.917 476.63L356.23 476.351L357.788 477.193L362.15 480.546L366.204 488.662L367.451 491.734V494.255L367.138 497.052L366.514 499.007L366.204 499.568L365.579 501.247L364.021 502.924L363.088 503.484L360.28 506.281L359.346 507.68L359.033 508.24L358.412 509.638L357.165 511.315L355.606 513.552L354.985 514.393V514.672H354.358L353.737 514.95L351.242 514.672L349.997 514.112V512.995L350.621 512.435V511.875L349.683 510.198L349.373 509.638L349.062 509.357L347.194 508.24L345.635 507.12L345.008 504.604L346.566 503.203L348.438 501.526L349.683 499.289V498.45L349.062 496.21L348.752 495.372L348.438 495.094L345.008 494.531L344.077 494.813V495.372L341.271 503.484L340.96 503.763L340.333 504.044L339.402 504.323H335.972L331.297 503.203H330.673L325.687 501.526L317.586 498.45L311.973 495.929L311.352 495.372L311.039 494.813L309.166 495.094L306.677 493.695L303.246 491.458L298.259 485.583L297.014 483.625L296.699 481.106V479.707L297.637 479.426L297.327 476.075L296.699 472.156L294.831 470.757L294.21 471.036H293.897L293.583 470.481L292.962 469.083L293.897 465.163L294.21 463.489L294.831 461.525L295.142 460.968L296.699 458.45L297.327 457.611L297.947 457.051H298.259L299.196 456.773H299.817L301.375 455.931L301.689 455.653L306.05 448.661V448.382L305.429 446.983L304.805 446.705L303.56 446.983L302.002 447.262L301.689 446.983L300.754 446.142L300.444 445.307L300.13 444.187L299.506 442.789L295.769 438.872L295.142 438.315L291.404 436.915L289.846 436.632H285.171L283.613 435.518V434.119L282.675 433.278L281.744 432.715L281.117 432.437L278.314 431.879L278 431.598L276.442 431.038H275.198L272.08 432.715L271.767 434.676L272.704 435.518L273.015 435.793V437.473L272.704 438.59L272.394 438.872L272.08 439.428L271.767 439.713L270.835 439.991L269.898 440.27H269.278L267.092 441.668L266.781 442.226L267.092 442.509L270.208 445.307L271.146 446.142L271.767 446.421L272.08 448.939L270.208 449.502H269.898L268.964 448.939L266.781 447.541L264.912 445.864V445.307L265.223 444.744L265.847 443.624L265.533 443.346L262.417 443.067L262.107 443.346L260.859 444.187L260.548 444.465L261.172 445.022L260.237 445.585L258.056 444.187L257.432 443.624L257.121 442.509L258.369 441.668L259.927 441.389L260.548 441.668L261.172 441.111L260.859 440.27L258.369 436.632L257.742 435.793L255.563 437.752L254.626 438.872L254.315 439.991V441.389L254.004 442.509L253.066 445.307L252.757 446.142L250.888 445.307L247.77 445.864L246.523 446.983H245.275L243.717 445.585V437.752L244.031 437.192L244.344 436.632H245.275V435.793L244.965 435.518L244.031 434.676L241.227 434.119H238.421L237.173 434.394L234.057 436.074L232.498 437.752L232.188 438.03L229.693 441.111L229.071 441.668L226.269 445.864L225.645 446.421V448.382L226.269 448.661L227.513 448.939L226.269 450.9L225.021 452.017L224.398 450.9H223.774L223.462 451.457L223.151 452.017L222.527 454.814L221.903 457.611L221.593 459.57L219.099 465.442L217.541 467.122L216.606 467.685H215.67L213.178 466.841L209.437 465.442L209.127 465.163L208.815 464.888L207.879 463.765L206.944 460.693V458.171L207.879 457.051L208.191 456.497L208.503 455.931L212.554 451.457L212.243 450.337L213.49 447.262L214.424 444.744L215.36 443.346L216.294 442.509L216.606 439.713L216.294 438.59V438.03L215.67 436.632L215.36 436.353L215.67 434.676L217.229 432.158L220.346 427.684L221.903 426.286L223.462 425.723L224.71 425.165L225.645 424.605L229.382 423.767L230.32 423.489H230.941L231.25 423.767H231.878L243.406 421.809H244.031L245.275 421.527L248.706 420.689L249.33 420.41L252.136 418.452L252.446 417.613L251.822 413.415V410.34L253.694 407.543L255.252 406.423L259.927 405.866H260.548L261.486 406.144L263.355 406.704H263.975L264.603 406.423L265.223 406.144L265.847 405.306L267.719 401.67L268.34 399.43V398.592L268.964 398.311L270.522 398.874L274.574 401.949L275.198 402.509L278.314 400.829L281.43 401.949L282.988 403.069L284.86 405.024L286.729 407.543L287.35 409.22L288.908 416.775V419.29L288.288 420.129L284.86 422.926L284.547 423.207L283.302 423.489H282.054L281.43 423.767L280.806 424.324L279.873 424.886L280.186 425.165L279.873 426.564L280.497 427.121L281.117 426.843L281.43 426.564L284.233 425.165L285.171 424.324L285.481 423.489L287.977 421.249L292.962 418.73L294.831 418.173L295.455 417.892H297.637L298.572 418.173H301.689L303.87 417.053L305.119 414.814V414.257L304.492 412.858L304.805 412.298L306.05 410.34V407.821L307.922 404.467L312.284 401.949L314.155 402.227L314.469 403.069L316.959 404.746L318.207 405.306L322.57 406.704L323.506 406.986H323.819L324.13 406.704L324.439 406.423L325.377 405.584L326.308 402.509L325.998 400.829L325.377 400.55L325.063 399.99L324.75 399.43V398.592L325.998 395.235L326.622 391.04L325.998 389.081V388.243L326.622 387.683L327.245 387.124L327.866 386.845L330.673 386.566L334.413 388.803L336.596 390.483L336.906 391.319L338.775 393.28L339.402 393.559L340.333 393.28L341.58 392.718L342.205 392.439L347.194 387.124L353.426 387.405H354.047L354.672 387.124L355.296 386.845L356.854 386.285L357.165 386.006L357.788 384.604V383.207L357.474 379.292L356.544 376.214L356.23 375.097L354.047 369.223L352.179 364.469L351.242 362.509L351.555 359.993V358.876L351.869 358.035L353.113 356.357H354.047L355.606 356.915L358.102 358.035L359.033 359.433L360.28 362.79L361.529 363.629L361.84 363.907L366.204 365.305H366.824L367.451 365.587L369.941 365.868L373.371 367.823L374.306 369.503L372.747 370.342V370.902L377.733 375.936Z" fill="#D83449"/>
<path d="M381.163 358.046L377.733 358.325L373.996 354.97L374.93 353.013L377.733 347.697L378.36 346.859L378.671 346.58H379.291L379.918 348.536L381.163 352.174L381.477 353.291L382.408 354.41L383.656 355.809L383.346 356.647L383.035 356.927L381.163 358.046Z" fill="#D83449"/>
<path d="M362.464 355.508L361.84 355.789H359.033L359.66 354.39L360.592 352.993L360.281 351.034L355.607 346.839L354.672 345.44L354.359 344.598V344.321L355.917 337.328L360.281 332.013L360.592 331.734H361.218L362.464 333.411L362.778 334.532L361.84 339.565V342.922L362.151 344.598L362.464 345.161L363.708 346.279L364.335 352.993V354.11L363.398 354.669L363.088 355.229L362.464 355.508Z" fill="#D83449"/>
<path d="M280.186 379.853L281.744 382.65V382.928L281.43 383.488L280.497 384.048L277.69 384.886H275.821L275.511 384.605L272.08 382.372L271.456 381.53L271.146 381.252L271.456 380.41L272.08 380.132L273.015 380.41L274.883 379.853L275.511 379.574L276.442 379.012L276.755 378.454V377.895L277.069 377.056H278.314L279.248 377.895L280.186 379.853Z" fill="#D83449"/>
<path d="M346.88 352.717L346.567 352.998L345.322 352.438L340.334 347.401L339.713 346.565V344.326L340.023 343.768L343.764 344.885L346.567 349.641L347.194 351.878V352.438L346.88 352.717Z" fill="#D83449"/>
<path d="M312.596 347.978L313.53 348.257H315.088L316.025 348.814L316.646 349.376L316.958 350.493L317.271 353.291V354.41L316.336 354.97L315.398 355.808L316.646 356.647L317.895 357.207L318.205 358.887L317.585 360.004L315.398 360.285L314.154 359.445L310.413 363.083L308.235 364.48L306.676 365.038L305.739 365.316L304.804 365.598L297.636 366.157H296.078L291.713 365.598L287.663 364.48L284.859 360.842L284.546 359.445V356.647L288.597 353.851L291.713 352.452L292.338 352.173L295.141 350.774L298.884 346.298V345.738L299.505 344.899L302.001 344.618H306.363L308.855 344.899L310.724 346.858L312.596 347.978Z" fill="#D83449"/>
<path d="M367.45 323.083L365.892 323.364L365.265 323.083L361.838 321.405L361.528 320.845V319.725L362.149 318.605L362.776 318.327L363.706 318.605L367.761 321.684L368.072 321.965L367.761 323.083H367.45Z" fill="#D83449"/>
<path d="M316.338 301.255L318.831 301.811L321.634 301.255L322.882 300.412L323.82 300.134L325.688 298.458L327.557 296.777H331.611L332.542 297.892L332.856 298.735V302.93L335.038 305.167L335.659 311.88V314.396L335.348 315.237L334.414 317.194V319.433L334.727 321.951L336.596 323.069L337.531 323.35L340.334 326.704L341.892 329.223L341.271 329.782L342.206 333.139L344.388 334.816L345.009 335.376L345.636 337.056V338.454L345.322 339.571L339.713 342.928L338.155 341.53L337.531 340.41L336.286 337.894L335.972 337.056L335.348 335.936L334.727 335.657H333.479L334.1 340.691L335.038 343.769L335.972 346.566V347.965L335.348 348.522L333.79 348.243L328.181 344.886L324.75 342.65L325.688 338.733V337.613L324.75 336.774L323.82 335.936L323.193 334.816V332.579L324.13 330.899L324.75 330.064V328.384L326.309 325.305L325.998 322.79L325.378 321.67L325.064 320.553L324.13 319.433L321.323 315.237L320.702 314.677L318.517 312.999L317.273 312.442L316.338 312.163L315.4 313.278V314.118L315.714 315.517L315.09 316.357L314.779 317.194L314.155 317.756L312.911 318.036L310.104 316.076L309.167 313.841V304.052L307.608 302.088L306.988 301.255L304.806 295.378L304.181 293.141L305.43 291.743L314.47 297.892L315.09 300.134L316.338 301.255Z" fill="#D83449"/>
<path d="M316.338 295.081L312.598 295.646L311.04 295.081L310.726 294.803L309.167 292.566L306.051 287.811L309.48 286.413H311.353L311.974 286.69L314.156 287.532L317.273 292.284L317.586 292.849L317.897 293.126L317.586 293.682V294.247L317.273 294.525L316.338 295.081Z" fill="#D83449"/>
<path d="M326.622 292.873H325.998L325.378 292.59L324.13 291.472L321.947 286.436V285.595L326.936 290.353V292.307L326.622 292.873Z" fill="#D83449"/>
<path d="M340.022 253.979L341.891 255.097L345.008 257.614L345.945 259.293L345.321 259.851L344.697 261.81L345.008 263.768L346.565 264.606L347.813 264.046L348.751 263.768L351.555 264.886L353.736 266.843L354.047 268.241L352.799 268.522L351.241 270.202L351.555 270.76L354.358 272.437L353.426 273.557L352.488 274.115L351.868 274.955L350.931 276.356V278.31L351.555 281.107L352.179 287.544L351.868 288.943V289.781L355.295 295.092L357.164 296.773L358.102 297.056L359.97 298.732V299.569L359.032 300.686L357.474 301.251L356.23 302.367L355.916 303.486L356.23 304.883L358.722 304.603L358.411 303.486L361.217 304.325L362.15 305.446L364.645 309.079L365.266 310.76L364.955 311.318L364.334 311.041L363.397 310.477L362.463 309.362L361.839 308.521L362.15 307.681L361.217 306.563L357.474 306.283L355.295 306.845L353.112 308.244L345.008 307.401L341.891 305.446L340.646 302.65L340.022 302.084L339.088 301.807H336.906L333.789 299.288L333.168 296.773L332.541 295.657L329.424 295.092H327.245L326.621 293.976L326.935 293.138L329.114 291.179H330.672L331.61 290.897L333.168 289.498L335.037 285.026L334.726 284.184L333.478 283.349L327.556 282.229L323.819 279.154L320.388 274.955L319.144 274.115L318.516 273.835L316.337 273.28L312.283 272.159L311.352 271.601L311.038 270.76L310.103 269.92L307.922 268.522L305.739 264.886L303.246 258.453L302.002 255.097L303.246 254.257L306.05 255.656L310.725 255.936L318.516 256.496L321.633 256.216L322.57 255.936L327.245 255.097L328.18 254.537L334.413 255.097L335.971 254.537L336.595 253.419H338.775L340.022 253.979Z" fill="#D83449"/>
<path d="M266.783 372.854L265.849 373.132L264.914 372.854L264.291 370.335L264.914 367.538L266.473 359.427L267.408 355.79H268.342L268.653 353.833L267.721 353.273L267.408 351.315L268.966 349.078L269.59 348.517L270.837 347.398L272.706 345.72L274.576 342.366L276.757 337.608L277.691 337.051L279.25 335.371L280.808 332.014V330.895L281.119 329.777L282.99 326.699L284.235 325.022L285.794 322.785L287.042 320.267L287.666 319.428L288.6 316.353L291.096 309.917L290.782 308.798L290.469 307.68V306.561L292.964 303.204L294.523 302.926L295.457 304.047L294.523 305.445L293.275 308.798L293.899 311.317L294.523 312.994L295.144 317.752L294.212 320.827V327.54L293.899 333.692L293.275 335.371L293.899 336.21L293.275 337.33L291.716 338.45L284.862 342.085L283.614 342.366L281.432 344.6L278.315 348.239L277.691 349.915V351.874L278.002 352.994L277.071 355.509L275.823 356.629L274.265 358.307L273.328 361.384V363.065L271.769 366.978L270.21 368.937L267.408 372.294L266.783 372.854Z" fill="#D83449"/>
<path d="M236.554 334.812L235.617 335.372H234.682L233.747 335.653L232.81 336.492H231.879L230.007 333.692V333.414L231.565 329.778L231.879 329.497L232.499 328.38L235.617 325.023L237.174 323.625H237.798L239.67 324.745L239.981 325.583L240.291 327.541V328.38L238.422 332.575L237.798 333.692L236.554 334.812Z" fill="#FFD045"/>
<path d="M260.55 351.886L259.615 353.006L258.371 354.403V354.963L257.744 357.482L258.057 358.039L258.371 360.279L258.682 361.956V362.513L258.371 363.912L258.057 364.193H256.813L256.499 365.031L258.371 368.107L259.929 370.625L262.109 372.583L264.604 375.383L265.224 375.94V377.339L264.604 379.857L264.291 380.136L263.667 381.256L262.419 382.932L260.239 384.89L258.991 386.011L257.744 386.85L252.758 387.409L251.824 386.85L249.642 385.73L248.394 383.492L247.772 381.534L247.149 379.857L246.836 379.016V377.06L246.525 376.5L244.032 375.383H243.408L240.916 374.82H239.357L238.733 374.542L237.175 373.984L235.617 373.143L235.306 372.583L234.369 372.305L233.124 370.906L230.632 368.107L227.515 364.474L226.894 361.677L227.204 359.159L229.073 352.446L231.252 352.167H232.5L234.058 352.446H235.617L235.928 352.724L237.799 352.446L238.733 352.167L243.408 350.205L244.032 349.369H244.346L245.904 347.972V345.732L245.591 339.577L244.656 335.383V331.187L245.277 330.906H245.904L246.525 330.071L248.083 328.672L249.642 325.593L249.952 323.914V321.398L249.642 320.838L249.331 320.278V318.042L251.511 316.922L258.991 313.848H260.55L272.395 316.083L274.575 319.44L274.885 319.999V321.398L270.837 331.747L270.21 332.304L268.966 333.146L268.342 333.424L268.032 333.703L267.094 334.266L266.472 334.823V335.101L266.162 335.664V336.502L265.535 340.698L265.224 342.096L263.667 346.292L262.733 347.972L261.798 350.205L261.174 351.047L260.55 351.886Z" fill="#FFD045"/>
<path d="M219.101 284.467L226.58 288.383L231.252 292.295L234.058 294.815L238.733 292.861L240.602 291.74L244.032 291.46L246.525 293.977L246.835 295.935L245.59 297.056L246.213 297.889H247.149L251.2 295.658L254.005 294.259L255.564 293.417L256.499 292.295L257.123 291.46L258.057 292.861L257.433 299.01L257.123 300.13L255.254 305.164L256.185 306.283L256.499 307.681L249.021 312.439L246.213 312.996L242.474 314.674L240.291 316.073L242.16 317.472V319.152L241.229 320.828L240.291 321.667L235.928 321.388L234.368 324.464L230.321 326.143L226.27 326.701L220.971 327.263L218.789 328.099L214.426 330.339L213.803 331.177L213.179 332.295L212.555 333.415L211.309 334.813L210.686 335.373L209.128 336.493L207.88 336.211L206.946 335.933L206.322 335.092L206.946 333.136L207.88 332.295L208.504 331.177L208.816 328.941L209.128 327.542V326.422L208.192 324.464L207.258 322.506L208.192 319.99L209.439 317.191L210.062 316.354L211.309 314.674L212.245 313.275L211.933 311.318L211.621 309.919L211.309 307.961L211.933 305.724L211.621 302.367L211.933 299.57L212.555 296.774L213.803 292.018L214.114 290.341L213.803 288.1L212.867 287.264L209.128 286.424L207.57 286.146H206.011L204.764 286.424L203.517 286.146L205.076 280.83L207.88 279.709L208.504 279.992L209.75 280.552L210.997 281.67L212.245 282.787L214.114 283.349L215.671 283.628L218.166 284.185L219.101 284.467Z" fill="#FFD045"/>
<path d="M237.483 265.185L235.926 266.862L232.187 263.507L231.563 263.227L230.006 262.666L229.071 262.388H228.45L228.136 262.108L227.826 261.828L227.202 261.548L226.892 260.71L227.202 259.87L228.45 258.751L229.382 258.472L231.25 258.193H234.68L236.239 258.472L236.863 258.751L238.11 260.71L238.421 261.268L238.731 261.828L238.421 263.227L238.11 264.345V264.905L237.483 265.185Z" fill="#FFD045"/>
<path d="M211.62 270.49L210.372 273.567L208.191 271.612L207.879 270.77L206.321 266.296V265.455L206.945 263.499L208.815 262.1L209.127 261.82L209.749 260.422V258.743L209.437 255.946L209.127 255.666L209.437 254.548L210.996 253.429L214.424 251.751L215.36 253.429L215.048 255.666L214.112 261.54L211.62 270.49Z" fill="#FFD045"/>
<path d="M2.80403 433.004H2.49281L1.87037 432.723L0.933653 430.488L0.311218 429.09L0 427.97V424.053L0.311218 423.775L4.67494 422.934L5.29666 423.775L5.92072 429.368L4.98706 430.766L4.67494 431.606L4.363 431.887L2.80403 433.004Z" fill="#FFD045"/>
<path d="M14.6463 419.273H14.0238L13.4 418.436L13.088 417.876V415.079L13.4 414.519L13.7119 413.962L15.2703 413.68L16.5167 414.798L16.8286 415.36L16.5167 418.436L15.8942 418.714L14.6463 419.273Z" fill="#FFD045"/>
<path d="M120.303 335.667H119.679L118.433 335.386L116.875 332.87V332.308L117.186 331.751L117.497 331.472L120.614 329.511H123.108L127.159 330.074L127.783 331.472L127.159 332.589L124.354 334.548L122.484 335.105L120.303 335.667Z" fill="#FFD045"/>
<path d="M107.211 302.359L107.835 302.919L108.458 302.359L109.394 302.919V305.156L108.769 306.555L106.587 315.226L106.277 316.065L105.965 319.422L107.211 321.099L108.146 321.659L109.394 320.82L110.64 321.38L110.952 325.016L111.886 326.974L114.691 332.008L115.627 333.128L114.069 333.966L110.016 337.045L106.277 338.162H104.718L102.224 339.282L99.4194 340.68L98.4857 341.797L96.6148 343.758L96.3027 344.316L95.369 346.274L95.6795 347.391L94.7444 349.352L94.1204 350.188L92.2523 351.029L84.4607 352.988H82.2784L80.7199 352.707L75.733 354.946L72.9283 360.818V362.777L73.8626 363.894L75.4211 365.013H74.7987L70.4355 370.05L63.2662 377.881L58.5911 382.076L57.9687 382.636L51.736 383.474L50.177 383.756L47.9947 387.392L45.8131 391.027L43.9443 393.546L42.6964 393.824L40.2037 394.943L39.2692 395.501L35.8405 398.02L34.9047 399.417L33.6582 400.537L28.6713 401.657L24.6203 404.733L20.8795 407.251L17.7628 407.808L15.5821 409.207L12.4654 412.004L10.595 413.683L9.66064 413.402L11.5294 406.691L12.1535 405.011H12.4654L13.0878 403.335L16.5165 398.861L17.7628 398.298L20.8795 396.063L22.1274 394.102L23.9962 391.868L29.9191 385.993L35.2167 382.358L40.2037 379.279L42.0739 378.998L43.3204 379.279H45.1906L49.2419 375.923L57.9687 367.532L58.2792 366.133L62.0197 362.777L62.9543 362.216L64.2021 361.938L65.7605 360.539L69.4996 356.623L71.0579 354.664L71.6819 352.988L71.9939 351.868L75.733 347.391L76.045 349.352H75.1106L76.045 351.308L76.6688 351.587V351.308L77.6034 350.75L78.5378 348.233L77.9153 347.954L77.6034 345.714V344.875L80.096 344.316L80.7199 344.594L82.9022 344.316L85.7063 340.399L86.0189 338.443L84.7712 339.282L84.1487 338.443L86.3294 335.646L89.7581 336.485L91.3158 337.883L92.8748 336.763L98.7955 330.331L99.4194 329.49L100.043 325.294L98.7955 323.339H97.5492L95.369 319.7L95.0564 316.346L96.9268 316.625L103.16 323.896L103.783 324.738V325.294L104.718 325.016L104.095 321.38L103.16 319.7H101.912L100.978 319.422L100.043 318.863L98.7955 316.904L98.4857 315.784V314.666L99.7315 311.033L100.666 311.869L101.29 313.267L102.536 313.83L103.471 313.55L103.783 309.635V306.275L103.471 304.876V303.478L103.783 302.077L105.653 299.002L106.899 299.28V300.961L107.211 302.359Z" fill="#FFD045"/>
<path d="M120.612 300.684H119.678L117.807 299.85L116.873 299.285L116.249 298.729L115.627 297.331L119.678 295.372L121.236 295.655L122.17 295.932V297.886L121.86 298.452L121.548 299.567L120.612 300.684Z" fill="#FFD045"/>
<path d="M125.913 290.333H125.289L124.979 289.491L124.667 286.417L122.173 281.38L121.862 279.984L122.173 278.866L122.484 278.303H123.42L127.783 279.984L128.406 280.544L130.276 282.499L129.341 283.061L129.03 283.621V284.46L129.653 285.018L130.276 285.296L129.653 287.257L129.03 287.815L127.471 289.491L127.159 290.054L125.913 290.333Z" fill="#FFD045"/>
<path d="M134.329 272.992L135.262 273.272L136.509 272.429L137.445 270.752L141.184 274.39L141.496 275.226V277.748L139.938 278.023H136.509L135.574 277.468L134.329 276.348L132.77 276.624L133.081 277.187L132.146 278.303L131.523 278.866L130.9 278.303V277.748L130.588 277.187H129.964L129.341 277.468L129.03 277.748L128.095 278.023L126.225 276.624L124.979 274.947L121.55 268.514L122.172 265.717L122.796 265.158H123.42L124.043 265.436H124.667L131.212 269.912L132.458 271.593L134.329 272.992Z" fill="#FFD045"/>
<path d="M156.767 222.381L157.703 222.661L164.87 220.983L167.053 220.425L167.987 220.703V222.661L169.545 224.34L170.48 224.62L171.104 224.898L174.532 224.62L175.778 224.34L177.337 224.898L180.766 227.137L188.869 234.409L189.18 238.047L188.557 238.607L188.245 239.446V248.955L188.557 249.515L189.491 250.353L190.427 250.913L191.049 252.592L191.361 254.829L189.491 256.507L188.557 257.346L187.621 257.906L186.687 258.464L185.44 260.982V262.659L186.375 264.058H184.194L182.635 265.456L177.649 268.815L173.596 268.253L172.662 266.854L172.974 265.736L173.285 265.177L172.038 264.617L171.728 264.897L167.675 261.541L165.805 258.744L165.182 257.626L165.805 256.507L165.494 254.829L164.558 253.15L162.377 250.633L161.442 250.353H160.195L159.571 248.396V243.358L158.325 239.446L158.013 238.607L157.391 238.047L155.52 234.967L153.962 233.01L151.469 231.891L150.533 231.612H149.599L143.053 226.297L141.807 226.019L141.183 225.458L140.249 224.34L139.625 223.5L140.561 222.381L141.183 221.823L142.43 220.983L143.677 220.703L144.612 220.425L154.586 221.823L156.144 222.101L156.767 222.381Z" fill="#FFD045"/>
<path d="M286.728 267.977L288.287 268.818L293.896 276.646L295.141 281.402L295.454 286.16L294.83 286.438L292.338 283.642L291.093 282.521L288.908 281.122L286.418 280.006L285.48 279.446L283.922 279.168L276.13 272.732L275.51 271.896L274.882 270.774L272.703 268.536H270.207L268.963 268.818L265.222 273.014L261.171 277.49L260.547 278.325L258.055 280.006H257.431L256.81 278.888L259.299 274.129L260.858 271.333L263.043 267.417L261.795 263.782L260.236 254.551L260.547 253.713L263.974 254.831L269.587 257.068L273.014 259.307L277.999 263.222L283.922 267.137L286.728 267.977Z" fill="#0A63AC"/>
<path d="M283.302 263.207H282.989L280.807 261.249L280.497 260.97L278.938 259.292L276.442 255.655L274.264 252.858V252.019L274.574 251.739L276.442 250.901L279.248 252.858L280.186 253.418L280.497 253.698V254.256L281.744 257.053L283.302 262.368V263.207Z" fill="#0A63AC"/>
<path d="M266.161 250.354L265.534 250.634L263.355 248.676L259.3 245.32L251.509 239.446L249.64 239.164L248.082 238.048L247.461 235.251L249.951 233.57L250.264 233.853L252.136 234.132L252.757 234.968L256.184 239.726L259.614 242.523L261.797 245.04L265.847 249.516L266.161 250.354Z" fill="#0A63AC"/>
<path d="M214.114 224.628L214.426 225.187H215.05L215.362 225.747L211.621 230.781L210.374 232.179H209.128L208.505 231.899L203.83 229.102L202.583 227.425L201.959 225.747L201.647 223.509V222.95L203.83 219.593L209.439 219.313L210.686 219.873L213.492 221.831L214.426 222.67V223.23L214.114 223.788V224.628Z" fill="#0A63AC"/>
<path d="M139.002 212.031V214.548L138.69 215.106L137.754 213.987L135.261 212.589H134.637L132.768 211.751L131.832 210.911L131.521 210.632L131.211 210.352L130.587 208.394L131.211 207.835H131.832L133.391 208.394L136.508 209.513L137.132 210.073L138.066 210.632L139.002 212.031Z" fill="#0A63AC"/>
<path d="M219.099 175.113L218.787 175.393L216.918 173.994L215.67 173.434L213.49 172.596L213.178 172.316L212.554 170.917H217.229L219.099 172.876V175.113Z" fill="#0A63AC"/>
<path d="M210.685 165.045L210.996 166.443L210.685 166.723L210.372 165.885L209.749 165.325L209.127 165.605L208.191 166.723L207.257 168.682V169.8L207.569 170.359L208.191 171.199L209.437 172.037L210.061 175.674L209.437 176.793L208.815 177.351L207.879 178.191L206.633 178.75L206.321 179.03L206.01 178.75H205.386L205.074 178.191V177.631L204.762 176.793L205.074 175.394L205.386 175.953H206.01V175.114L205.698 174.276L205.074 172.877L203.204 169.52L201.646 167.842H200.711V167.003L201.023 165.605L201.335 165.325L201.958 163.926L202.27 163.646L206.01 162.808L207.257 163.088L208.191 163.366L209.127 163.646L210.372 164.765L210.685 165.045Z" fill="#0A63AC"/>
<path d="M177.337 31.6284L182.323 34.4275L190.427 38.3441L192.608 39.1827L199.153 41.4197L201.023 41.9796L202.893 42.2595L204.452 42.5396H205.698L207.569 41.9796L208.191 41.4197L211.932 38.3441L212.244 36.3857L212.554 35.8258L213.178 33.5888L213.802 33.0289H215.982L216.606 33.3062L220.035 38.3441L220.346 38.9027L220.658 40.8612V42.2595L220.035 43.0982L218.787 44.4966L217.541 45.8944L217.229 46.1745L216.294 46.735L215.982 47.0136L214.736 48.1335L214.112 49.8106L214.424 51.2083L215.048 51.4883V52.3289L214.736 55.1258L214.112 56.8022L213.49 58.7606L213.178 59.8791V60.7197L214.112 67.1542L214.424 67.7115L215.982 72.4654L217.229 75.2624L217.853 76.3836L219.411 77.2234L220.346 77.5035L221.281 77.2234L224.71 79.7404L224.398 83.9359L225.021 84.7744L225.957 85.3343H227.513L227.826 85.0544L228.45 84.7744L229.071 86.1728L228.45 88.1312L226.578 94.2844L225.021 97.9206L220.346 106.313L219.723 107.149L219.099 107.712L218.165 108.269L216.294 111.345V111.625L216.606 112.187L216.918 112.468H217.229V114.144L216.606 117.501L216.294 118.62L215.982 118.9L214.112 120.858L213.802 121.137L213.178 121.697L212.244 122.257L211.62 122.815L211.932 123.375L210.061 125.054L209.749 125.612L208.191 126.452V125.332L208.815 124.214L209.127 123.934L209.437 123.655L210.685 122.257L211.308 121.697L211.932 121.137L212.554 119.738L213.802 118.061L211.932 117.781L210.996 118.62V119.738L208.815 121.137L207.257 121.977L206.321 122.535L199.465 125.332L198.53 124.774L197.594 125.054L194.79 127.291L191.049 130.647L190.427 131.206L190.115 131.766V132.884L189.803 133.723L190.115 134.563L190.427 135.961L190.737 136.52L191.049 136.8L191.673 137.079L192.296 136.8L193.543 137.079L193.854 137.64V138.478L191.985 141.278L187.932 145.75L184.194 151.067H183.882L183.57 152.182L183.258 152.746V153.864L184.194 155.543L184.816 156.661L185.44 157.5L186.375 157.78L187.62 158.619L190.115 164.213L191.361 168.128L191.673 169.527L191.985 170.087L192.608 171.764L193.543 172.884L193.854 173.442L196.348 176.519L192.919 177.638L192.608 177.918L192.919 179.316V179.876L194.166 184.35L195.724 188.266L197.283 189.665L197.594 190.223L199.153 193.583V193.86L198.842 194.981L198.53 195.261L197.907 195.817L198.219 196.1L199.153 197.498L199.465 197.778L205.386 201.974L206.945 202.809L207.257 203.092L209.437 203.931L210.372 204.211L213.178 205.329L214.736 205.609L215.36 205.329L216.606 205.609L218.477 206.169L219.099 205.051L221.281 203.652L221.593 202.254V201.694L219.723 200.575L218.165 199.457L217.229 199.177L216.294 198.058L215.67 197.216V196.66L219.411 193.303L220.035 193.02V194.419L219.723 194.701V197.498L221.281 198.337H222.215L223.151 197.778L223.463 197.216L222.839 196.38L222.527 196.1V194.701L223.775 193.02L224.398 192.462L227.202 190.223L228.137 189.385H229.693L230.941 189.665L233.436 190.506L236.553 189.385H237.797L240.29 189.943L243.407 191.622L244.031 191.904L246.834 194.419L251.199 199.177L253.694 203.092V205.889L253.38 206.449L252.757 207.008L252.446 207.568L252.136 208.686L251.822 209.525V210.085L252.136 210.364L253.694 211.482L254.626 211.763L254.939 212.601V213.161L254.004 214.279L255.253 212.881L260.859 211.482L262.731 209.525L263.044 208.686V207.847L261.797 204.49L260.859 203.931L259.614 203.092L259.3 202.809L258.989 201.694L261.173 200.012L263.665 198.337L264.289 198.614L265.847 200.575L266.781 202.254L268.34 203.092L273.326 204.771L277.69 205.889L287.664 209.246L289.536 210.364V210.923L289.846 211.763L289.536 212.043L282.989 212.881H281.43L279.248 212.321L275.198 211.763H274.263L273.639 212.043L273.015 212.601L272.394 213.719L271.767 215.678V217.637L272.08 217.915L275.821 220.712L277.379 220.992H277.69L278.938 222.39L280.186 224.907L280.806 226.585L282.365 227.425L283.302 227.704L283.613 228.267V229.102L284.234 229.666V229.102L284.861 228.824L285.792 229.942L285.171 230.222H283.923L283.302 229.942H282.675L282.365 230.222L282.054 230.501L281.43 231.621L281.117 232.179V232.742L281.43 235.539V236.375L282.054 236.658L282.675 236.937H283.302L284.547 235.539L285.481 234.141L285.792 233.578L286.106 233.298H287.04L290.156 234.696L291.094 234.976L291.714 235.816L292.025 236.375L292.652 236.937L294.521 238.056H295.142L295.455 237.217V236.658L295.769 236.095L296.39 235.816H298.572L298.886 236.095L299.196 236.375V237.773L297.637 239.734L296.39 241.969L297.637 243.93L297.948 245.608L297.327 249.524L297.014 250.922L295.455 255.118L295.142 255.676L293.273 255.956H292.025L291.404 255.676L290.467 255.118L286.42 251.761L285.792 250.082L285.171 248.964L284.861 245.048L285.792 243.65L286.729 243.93L287.35 244.21L288.598 244.488L292.025 243.367L292.339 243.09L292.652 242.811L293.273 241.413V241.133L292.963 240.57L292.339 240.014L287.04 239.734L286.729 240.014L286.42 240.853L285.481 242.531L284.234 243.367L283.302 243.93L280.186 244.21L276.442 243.09L274.574 242.251L271.146 240.014L270.522 239.734L268.964 238.056L267.406 237.493H267.093L265.533 238.056L264.912 238.336L264.289 238.616H263.665L263.044 237.773L262.417 237.217L262.107 234.696L262.417 233.578L263.044 232.462L260.237 228.267L258.68 224.907V224.068L258.369 223.509L257.742 222.67L256.811 222.39L255.563 221.552L252.757 220.712L252.136 220.434L250.578 219.873H249.33L245.589 217.915L243.407 215.958L243.096 215.398V215.118L244.344 213.719L244.031 212.881L243.407 212.043L240.601 210.085L234.057 206.169L231.878 204.49L230.32 205.051L229.382 208.126L228.761 213.161V213.719L229.693 215.398L232.809 219.593L234.057 220.712L234.994 221.552L235.616 222.67L236.24 223.509L236.553 224.349L236.864 225.467L237.797 229.942L238.111 230.781V231.063L234.681 233.019L234.057 233.298H233.122L232.188 232.462L230.63 230.781V227.425L230.32 226.585L229.382 224.349L225.645 220.154L222.527 217.915L221.903 217.357L220.035 217.076L219.099 217.357L217.541 217.076L216.294 214.56L213.49 211.203L211.62 210.644L205.386 207.847L201.958 206.169L201.646 205.889L201.335 205.609L201.646 204.771L198.842 203.931L197.594 203.652L196.66 203.931L187.62 208.686L187.31 209.246L186.375 210.364L186.063 210.923V211.763L184.194 215.118L182.946 215.398L182.011 216.238L179.518 217.915L177.649 216.516L175.778 215.958H174.844L173.596 216.238L170.479 215.398L170.791 213.441L170.169 211.763L169.857 211.482L168.921 211.203L167.987 210.923L167.052 211.203H165.182L164.87 208.126L164.558 207.288L163.936 206.728L163.624 206.449H163.312L158.637 205.329H157.39L156.454 205.609L156.144 205.889L154.274 207.847V209.246L154.585 209.804L154.896 210.644V210.923L154.274 211.482L153.027 209.804L152.715 207.288L152.403 204.771L152.715 203.931L152.091 198.337L150.845 197.498L151.469 194.701V194.139L153.027 192.74L153.338 192.462L153.962 192.184H154.896L156.144 191.904L158.013 190.786L158.637 190.506L161.441 187.986L163.936 185.748L167.052 184.91L167.363 184.35L167.675 183.512V182.113L166.428 179.316L166.116 178.756L165.804 178.198L165.182 177.638L164.87 177.079L164.246 176.519L163.312 175.959L161.441 174.282H159.571L158.637 174.561H158.013L154.896 174.002L152.403 172.604L150.221 171.764L149.598 172.044V176.239L149.911 176.799L150.845 178.198L152.091 183.231L152.403 184.071L152.091 184.63L151.779 185.469L151.157 186.308L150.221 186.868H149.286L147.416 186.588L145.858 186.308L143.365 185.748L143.053 185.19L142.741 183.791V182.951L140.248 179.316L139.625 179.036L137.754 177.079L137.444 176.519L137.754 175.401V174.002L138.69 173.722L139.313 172.604L137.444 171.205L136.197 171.764L135.885 172.324L135.573 174.002L135.261 174.561L134.637 174.841L133.704 175.121L132.769 174.561H132.457L130.899 173.442L129.652 169.527V167.29L129.963 165.891V163.653L129.652 161.696L129.029 159.178L127.782 155.543L127.47 154.979L125.912 152.466L124.978 151.067L123.73 150.229L123.419 149.386L123.107 149.106L123.419 147.428V146.872L125.6 145.75L123.73 142.113L124.042 139.038L123.107 135.401L123.73 134.003V133.444L121.549 129.249L119.991 129.808L119.679 130.647L118.12 130.926L117.496 129.527V121.417L118.744 116.103L119.055 115.543L119.367 114.984L120.303 114.422L122.795 113.023L124.354 113.586L124.666 114.422V115.543L124.042 117.221L124.666 118.9L127.782 121.137L131.211 123.655V124.214L131.522 125.332L132.457 125.892L133.704 126.731H136.82L137.754 126.452L138.69 126.172L140.871 125.054L142.119 124.494L143.677 123.095L144.299 121.977L144.612 121.697L144.299 120.298L143.677 118.9L143.053 118.061L142.119 117.221L141.183 111.907L140.248 106.313V104.352L142.119 95.9622L143.053 95.6835L143.365 95.1237L145.546 91.766V88.4112L144.612 83.9359V83.3759L145.546 76.9435L145.858 75.825V74.9852L144.299 71.3496L143.053 70.2311L142.43 70.511H142.119L141.183 69.6685L140.871 69.1126L141.807 66.5916L142.119 64.9146L143.053 64.6345L144.299 64.0746L144.923 62.9587L145.546 59.5991L145.235 55.6838L146.482 50.0905L148.04 45.8944L148.352 45.3366L148.663 45.0565L149.598 43.6581L151.157 41.1411V40.5812L151.469 39.1827V38.3441L151.157 37.2244L150.533 36.1058L150.221 35.5472L149.911 34.9873L150.221 34.4275L150.533 33.8689L152.403 32.4703L153.962 32.7503L154.274 33.0289L155.208 33.3062H156.766L157.39 33.0289L158.013 32.7503L158.637 32.1904L162.065 30.23L163.312 31.3519L163.936 31.9077H165.494L166.116 31.3519L166.428 30.7926H166.74L168.299 30.23L171.415 29.6734L172.038 29.3934H173.285L174.22 29.6734L175.154 30.5099L176.402 31.0726L177.337 31.6284Z" fill="#0A63AC"/>
<path d="M202.27 21.5544L201.023 22.1144L200.711 21.8343L200.087 20.156V19.6002L201.646 15.9605L202.27 15.6819L203.204 14.842H204.14L204.763 15.122L206.633 16.5205L206.321 17.3591L202.27 21.5544Z" fill="#0A63AC"/>
<path d="M188.245 5.32208L187.311 5.88196L183.571 4.76204L182.636 3.64358L181.7 2.24502V1.68725L182.636 0.846619H187.933L188.245 1.96508L188.557 4.48421V5.04198L188.245 5.32208Z" fill="#0A63AC"/>
<path d="M216.294 202.249H215.67L214.113 201.406L208.815 198.332L208.191 198.054L205.387 195.533L206.633 194.134L214.113 199.172L215.67 200.291L215.982 200.851L216.606 201.689V201.969L216.294 202.249Z" fill="#0A63AC"/>
<path d="M302.314 202.801L303.248 203.644L304.807 203.364L306.679 204.762L307.3 205.321L307.61 206.161V208.678L304.494 217.907L303.872 217.628L303.562 216.23H300.756L299.508 217.348L299.198 218.187L299.508 219.027H299.198L298.26 218.467L292.964 215.67L292.027 214.271V213.711L293.275 212.873L293.899 212.593L294.523 212.313L295.771 210.076L296.081 208.958L296.701 203.922L296.391 203.644L296.081 203.084L295.771 201.685V198.888L298.887 197.208L300.756 199.169L302.004 201.125L302.314 202.801Z" fill="#0A63AC"/>
<rect x="139" y="365" width="83" height="25" rx="5" fill="#FFD045"/>
<rect x="211" y="518" width="117" height="25" rx="5" fill="#D83449"/>
<rect x="233" y="89" width="83" height="25" rx="5" fill="#165C94"/>
<path d="M242.89 94.4H244.69V105.434H251.512V107H242.89V94.4ZM258.587 107.144C256.907 107.144 255.599 106.664 254.663 105.704C253.727 104.744 253.259 103.364 253.259 101.564V94.4H255.059V101.492C255.059 104.192 256.241 105.542 258.605 105.542C259.757 105.542 260.639 105.212 261.251 104.552C261.863 103.88 262.169 102.86 262.169 101.492V94.4H263.915V101.564C263.915 103.376 263.447 104.762 262.511 105.722C261.575 106.67 260.267 107.144 258.587 107.144ZM277.019 105.434V107H266.489V105.776L274.409 95.966H266.615V94.4H276.785V95.624L268.901 105.434H277.019ZM284.982 107.144C283.71 107.144 282.564 106.868 281.544 106.316C280.524 105.752 279.72 104.978 279.132 103.994C278.556 103.01 278.268 101.912 278.268 100.7C278.268 99.488 278.556 98.39 279.132 97.406C279.72 96.422 280.524 95.654 281.544 95.102C282.564 94.538 283.71 94.256 284.982 94.256C286.242 94.256 287.382 94.538 288.402 95.102C289.422 95.654 290.22 96.422 290.796 97.406C291.372 98.378 291.66 99.476 291.66 100.7C291.66 101.924 291.372 103.028 290.796 104.012C290.22 104.984 289.422 105.752 288.402 106.316C287.382 106.868 286.242 107.144 284.982 107.144ZM284.982 105.542C285.906 105.542 286.734 105.332 287.466 104.912C288.21 104.492 288.792 103.916 289.212 103.184C289.644 102.44 289.86 101.612 289.86 100.7C289.86 99.788 289.644 98.966 289.212 98.234C288.792 97.49 288.21 96.908 287.466 96.488C286.734 96.068 285.906 95.858 284.982 95.858C284.058 95.858 283.218 96.068 282.462 96.488C281.718 96.908 281.13 97.49 280.698 98.234C280.278 98.966 280.068 99.788 280.068 100.7C280.068 101.612 280.278 102.44 280.698 103.184C281.13 103.916 281.718 104.492 282.462 104.912C283.218 105.332 284.058 105.542 284.982 105.542ZM305.247 94.4V107H303.771L296.211 97.604V107H294.411V94.4H295.887L303.447 103.796V94.4H305.247Z" fill="white"/>
<path d="M154.834 371.4L149.308 384H147.526L141.982 371.4H143.926L148.462 381.75L153.034 371.4H154.834ZM156.441 371.4H158.241V384H156.441V371.4ZM165.685 384.144C164.737 384.144 163.819 384 162.931 383.712C162.055 383.412 161.365 383.028 160.861 382.56L161.527 381.156C162.007 381.588 162.619 381.942 163.363 382.218C164.119 382.482 164.893 382.614 165.685 382.614C166.729 382.614 167.509 382.44 168.025 382.092C168.541 381.732 168.799 381.258 168.799 380.67C168.799 380.238 168.655 379.89 168.367 379.626C168.091 379.35 167.743 379.14 167.323 378.996C166.915 378.852 166.333 378.69 165.577 378.51C164.629 378.282 163.861 378.054 163.273 377.826C162.697 377.598 162.199 377.25 161.779 376.782C161.371 376.302 161.167 375.66 161.167 374.856C161.167 374.184 161.341 373.578 161.689 373.038C162.049 372.498 162.589 372.066 163.309 371.742C164.029 371.418 164.923 371.256 165.991 371.256C166.735 371.256 167.467 371.352 168.187 371.544C168.907 371.736 169.525 372.012 170.041 372.372L169.447 373.812C168.919 373.476 168.355 373.224 167.755 373.056C167.155 372.876 166.567 372.786 165.991 372.786C164.971 372.786 164.203 372.972 163.687 373.344C163.183 373.716 162.931 374.196 162.931 374.784C162.931 375.216 163.075 375.57 163.363 375.846C163.651 376.11 164.005 376.32 164.425 376.476C164.857 376.62 165.439 376.776 166.171 376.944C167.119 377.172 167.881 377.4 168.457 377.628C169.033 377.856 169.525 378.204 169.933 378.672C170.353 379.14 170.563 379.77 170.563 380.562C170.563 381.222 170.383 381.828 170.023 382.38C169.663 382.92 169.117 383.352 168.385 383.676C167.653 383.988 166.753 384.144 165.685 384.144ZM181.221 380.85H174.525L173.139 384H171.285L176.991 371.4H178.773L184.497 384H182.607L181.221 380.85ZM180.591 379.41L177.873 373.236L175.155 379.41H180.591ZM190.444 379.644V384H188.662V379.608L183.658 371.4H185.584L189.616 378.042L193.666 371.4H195.448L190.444 379.644ZM204.547 380.85H197.851L196.465 384H194.611L200.317 371.4H202.099L207.823 384H205.933L204.547 380.85ZM203.917 379.41L201.199 373.236L198.481 379.41H203.917ZM213.375 384.144C212.427 384.144 211.509 384 210.621 383.712C209.745 383.412 209.055 383.028 208.551 382.56L209.217 381.156C209.697 381.588 210.309 381.942 211.053 382.218C211.809 382.482 212.583 382.614 213.375 382.614C214.419 382.614 215.199 382.44 215.715 382.092C216.231 381.732 216.489 381.258 216.489 380.67C216.489 380.238 216.345 379.89 216.057 379.626C215.781 379.35 215.433 379.14 215.013 378.996C214.605 378.852 214.023 378.69 213.267 378.51C212.319 378.282 211.551 378.054 210.963 377.826C210.387 377.598 209.889 377.25 209.469 376.782C209.061 376.302 208.857 375.66 208.857 374.856C208.857 374.184 209.031 373.578 209.379 373.038C209.739 372.498 210.279 372.066 210.999 371.742C211.719 371.418 212.613 371.256 213.681 371.256C214.425 371.256 215.157 371.352 215.877 371.544C216.597 371.736 217.215 372.012 217.73 372.372L217.137 373.812C216.609 373.476 216.045 373.224 215.445 373.056C214.845 372.876 214.257 372.786 213.681 372.786C212.661 372.786 211.893 372.972 211.377 373.344C210.873 373.716 210.621 374.196 210.621 374.784C210.621 375.216 210.765 375.57 211.053 375.846C211.341 376.11 211.695 376.32 212.115 376.476C212.547 376.62 213.129 376.776 213.861 376.944C214.809 377.172 215.571 377.4 216.147 377.628C216.723 377.856 217.215 378.204 217.623 378.672C218.043 379.14 218.253 379.77 218.253 380.562C218.253 381.222 218.073 381.828 217.713 382.38C217.353 382.92 216.807 383.352 216.075 383.676C215.343 383.988 214.443 384.144 213.375 384.144Z" fill="white"/>
<path d="M228.572 537L228.554 527.82L224 535.47H223.172L218.618 527.874V537H216.89V524.4H218.366L223.622 533.256L228.806 524.4H230.282L230.3 537H228.572ZM234.081 524.4H235.881V537H234.081V524.4ZM250.49 524.4V537H249.014L241.454 527.604V537H239.654V524.4H241.13L248.69 533.796V524.4H250.49ZM254.261 524.4H259.571C260.903 524.4 262.085 524.664 263.117 525.192C264.149 525.72 264.947 526.464 265.511 527.424C266.087 528.372 266.375 529.464 266.375 530.7C266.375 531.936 266.087 533.034 265.511 533.994C264.947 534.942 264.149 535.68 263.117 536.208C262.085 536.736 260.903 537 259.571 537H254.261V524.4ZM259.463 535.434C260.483 535.434 261.377 535.236 262.145 534.84C262.925 534.444 263.525 533.892 263.945 533.184C264.365 532.464 264.575 531.636 264.575 530.7C264.575 529.764 264.365 528.942 263.945 528.234C263.525 527.514 262.925 526.956 262.145 526.56C261.377 526.164 260.483 525.966 259.463 525.966H256.061V535.434H259.463ZM276.984 533.85H270.288L268.902 537H267.048L272.754 524.4H274.536L280.26 537H278.37L276.984 533.85ZM276.354 532.41L273.636 526.236L270.918 532.41H276.354ZM292.976 524.4V537H291.5L283.94 527.604V537H282.14V524.4H283.616L291.176 533.796V524.4H292.976ZM304.775 533.85H298.079L296.693 537H294.839L300.545 524.4H302.327L308.051 537H306.161L304.775 533.85ZM304.145 532.41L301.427 526.236L298.709 532.41H304.145ZM315.443 537.144C314.171 537.144 313.025 536.868 312.005 536.316C310.985 535.752 310.181 534.978 309.593 533.994C309.017 533.01 308.729 531.912 308.729 530.7C308.729 529.488 309.017 528.39 309.593 527.406C310.181 526.422 310.985 525.654 312.005 525.102C313.025 524.538 314.171 524.256 315.443 524.256C316.703 524.256 317.843 524.538 318.863 525.102C319.883 525.654 320.681 526.422 321.257 527.406C321.833 528.378 322.121 529.476 322.121 530.7C322.121 531.924 321.833 533.028 321.257 534.012C320.681 534.984 319.883 535.752 318.863 536.316C317.843 536.868 316.703 537.144 315.443 537.144ZM315.443 535.542C316.367 535.542 317.195 535.332 317.927 534.912C318.671 534.492 319.253 533.916 319.673 533.184C320.105 532.44 320.321 531.612 320.321 530.7C320.321 529.788 320.105 528.966 319.673 528.234C319.253 527.49 318.671 526.908 317.927 526.488C317.195 526.068 316.367 525.858 315.443 525.858C314.519 525.858 313.679 526.068 312.923 526.488C312.179 526.908 311.591 527.49 311.159 528.234C310.739 528.966 310.529 529.788 310.529 530.7C310.529 531.612 310.739 532.44 311.159 533.184C311.591 533.916 312.179 534.492 312.923 534.912C313.679 535.332 314.519 535.542 315.443 535.542Z" fill="white"/>
</svg>
