<svg width="80" height="103" viewBox="0 0 80 103" fill="none" xmlns="http://www.w3.org/2000/svg">
<circle cx="40" cy="40.3802" r="40" fill="#1B9EB2"/>
<path d="M17.1489 97.4552H13.0569L12.2099 99.3802H11.0769L14.5639 91.6802H15.6529L19.1509 99.3802H17.9959L17.1489 97.4552ZM16.7639 96.5752L15.1029 92.8022L13.4419 96.5752H16.7639ZM25.5918 91.2182V99.3802H24.5798V98.4562C24.3452 98.7789 24.0482 99.0246 23.6888 99.1932C23.3295 99.3619 22.9335 99.4462 22.5008 99.4462C21.9362 99.4462 21.4302 99.3216 20.9828 99.0722C20.5355 98.8229 20.1835 98.4746 19.9268 98.0272C19.6775 97.5726 19.5528 97.0519 19.5528 96.4652C19.5528 95.8786 19.6775 95.3616 19.9268 94.9142C20.1835 94.4669 20.5355 94.1186 20.9828 93.8692C21.4302 93.6199 21.9362 93.4952 22.5008 93.4952C22.9188 93.4952 23.3038 93.5759 23.6558 93.7372C24.0078 93.8912 24.3012 94.1222 24.5358 94.4302V91.2182H25.5918ZM22.5888 98.5222C22.9555 98.5222 23.2892 98.4379 23.5898 98.2692C23.8905 98.0932 24.1252 97.8512 24.2938 97.5432C24.4625 97.2279 24.5468 96.8686 24.5468 96.4652C24.5468 96.0619 24.4625 95.7062 24.2938 95.3982C24.1252 95.0829 23.8905 94.8409 23.5898 94.6722C23.2892 94.5036 22.9555 94.4192 22.5888 94.4192C22.2148 94.4192 21.8775 94.5036 21.5768 94.6722C21.2835 94.8409 21.0488 95.0829 20.8728 95.3982C20.7042 95.7062 20.6198 96.0619 20.6198 96.4652C20.6198 96.8686 20.7042 97.2279 20.8728 97.5432C21.0488 97.8512 21.2835 98.0932 21.5768 98.2692C21.8775 98.4379 22.2148 98.5222 22.5888 98.5222ZM32.7489 93.5502L30.1969 99.3802H29.1189L26.5669 93.5502H27.6669L29.6689 98.2252L31.7149 93.5502H32.7489ZM38.8423 96.4982C38.8423 96.5789 38.8349 96.6852 38.8203 96.8172H34.0903C34.1563 97.3306 34.3799 97.7449 34.7613 98.0602C35.1499 98.3682 35.6303 98.5222 36.2023 98.5222C36.8989 98.5222 37.4599 98.2876 37.8853 97.8182L38.4683 98.5002C38.2043 98.8082 37.8743 99.0429 37.4783 99.2042C37.0896 99.3656 36.6533 99.4462 36.1693 99.4462C35.5533 99.4462 35.0069 99.3216 34.5303 99.0722C34.0536 98.8156 33.6833 98.4599 33.4193 98.0052C33.1626 97.5506 33.0343 97.0372 33.0343 96.4652C33.0343 95.9006 33.1589 95.3909 33.4083 94.9362C33.6649 94.4816 34.0133 94.1296 34.4533 93.8802C34.9006 93.6236 35.4029 93.4952 35.9603 93.4952C36.5176 93.4952 37.0126 93.6236 37.4453 93.8802C37.8853 94.1296 38.2263 94.4816 38.4683 94.9362C38.7176 95.3909 38.8423 95.9116 38.8423 96.4982ZM35.9603 94.3862C35.4543 94.3862 35.0289 94.5402 34.6843 94.8482C34.3469 95.1562 34.1489 95.5596 34.0903 96.0582H37.8303C37.7716 95.5669 37.5699 95.1672 37.2253 94.8592C36.8879 94.5439 36.4663 94.3862 35.9603 94.3862ZM43.4216 93.4952C44.1623 93.4952 44.749 93.7116 45.1816 94.1442C45.6216 94.5696 45.8416 95.1966 45.8416 96.0252V99.3802H44.7856V96.1462C44.7856 95.5816 44.65 95.1562 44.3786 94.8702C44.1073 94.5842 43.7186 94.4412 43.2126 94.4412C42.6406 94.4412 42.1896 94.6099 41.8596 94.9472C41.5296 95.2772 41.3646 95.7539 41.3646 96.3772V99.3802H40.3086V93.5502H41.3206V94.4302C41.5333 94.1296 41.8193 93.8986 42.1786 93.7372C42.5453 93.5759 42.9596 93.4952 43.4216 93.4952ZM51.0739 99.0392C50.9199 99.1712 50.7293 99.2739 50.5019 99.3472C50.2746 99.4132 50.0399 99.4462 49.7979 99.4462C49.2113 99.4462 48.7566 99.2886 48.4339 98.9732C48.1113 98.6579 47.9499 98.2069 47.9499 97.6202V94.4192H46.9599V93.5502H47.9499V92.2742H49.0059V93.5502H50.6779V94.4192H49.0059V97.5762C49.0059 97.8916 49.0829 98.1336 49.2369 98.3022C49.3983 98.4709 49.6256 98.5552 49.9189 98.5552C50.2416 98.5552 50.5166 98.4636 50.7439 98.2802L51.0739 99.0392ZM57.7846 93.5502V99.3802H56.7836V98.5002C56.5709 98.8009 56.2886 99.0356 55.9366 99.2042C55.5919 99.3656 55.2143 99.4462 54.8036 99.4462C54.0263 99.4462 53.4139 99.2336 52.9666 98.8082C52.5193 98.3756 52.2956 97.7412 52.2956 96.9052V93.5502H53.3516V96.7842C53.3516 97.3489 53.4873 97.7779 53.7586 98.0712C54.0299 98.3572 54.4186 98.5002 54.9246 98.5002C55.4819 98.5002 55.9219 98.3316 56.2446 97.9942C56.5673 97.6569 56.7286 97.1802 56.7286 96.5642V93.5502H57.7846ZM60.8069 94.5292C60.9903 94.1919 61.2616 93.9352 61.6209 93.7592C61.9803 93.5832 62.4166 93.4952 62.9299 93.4952V94.5182C62.8713 94.5109 62.7906 94.5072 62.6879 94.5072C62.1159 94.5072 61.6649 94.6796 61.3349 95.0242C61.0123 95.3616 60.8509 95.8456 60.8509 96.4762V99.3802H59.7949V93.5502H60.8069V94.5292ZM69.4468 96.4982C69.4468 96.5789 69.4394 96.6852 69.4248 96.8172H64.6948C64.7608 97.3306 64.9844 97.7449 65.3658 98.0602C65.7544 98.3682 66.2348 98.5222 66.8068 98.5222C67.5034 98.5222 68.0644 98.2876 68.4898 97.8182L69.0728 98.5002C68.8088 98.8082 68.4788 99.0429 68.0828 99.2042C67.6941 99.3656 67.2578 99.4462 66.7738 99.4462C66.1578 99.4462 65.6114 99.3216 65.1348 99.0722C64.6581 98.8156 64.2878 98.4599 64.0238 98.0052C63.7671 97.5506 63.6388 97.0372 63.6388 96.4652C63.6388 95.9006 63.7634 95.3909 64.0128 94.9362C64.2694 94.4816 64.6178 94.1296 65.0578 93.8802C65.5051 93.6236 66.0074 93.4952 66.5648 93.4952C67.1221 93.4952 67.6171 93.6236 68.0498 93.8802C68.4898 94.1296 68.8308 94.4816 69.0728 94.9362C69.3221 95.3909 69.4468 95.9116 69.4468 96.4982ZM66.5648 94.3862C66.0588 94.3862 65.6334 94.5402 65.2888 94.8482C64.9514 95.1562 64.7534 95.5596 64.6948 96.0582H68.4348C68.3761 95.5669 68.1744 95.1672 67.8298 94.8592C67.4924 94.5439 67.0708 94.3862 66.5648 94.3862Z" fill="#172D45"/>
<g clip-path="url(#clip1)">
<path d="M58.7364 28.0715V17C58.7364 16.4244 58.2706 15.9586 57.6951 15.9586H53.5297C52.9541 15.9586 52.4883 16.4244 52.4883 17V27.4958H24.3721C19.204 27.4958 15 31.6999 15 36.8679V40.3255C15 47.0322 20.4558 52.488 27.1625 52.488C30.8611 52.488 34.3808 50.9555 37.0777 48.1701C38.5462 46.6436 39.6261 46.2399 39.9922 46.2399C40.3583 46.2399 41.4383 46.6436 42.9088 48.1722C45.522 50.8712 48.9128 52.381 52.4883 52.4707V55.612C52.4883 57.3347 51.087 60 49.3643 60H44.1576C43.5831 60 43.1162 58.2693 43.1162 57.6947V57.7481C44.8389 57.7481 46.2402 56.3467 46.2402 54.624C46.2402 52.9013 44.8389 51.5 43.1162 51.5H36.8682C35.1455 51.5 33.7441 52.9013 33.7441 54.624C33.7441 56.3467 35.1455 57.7481 36.8682 57.7481V57.6947C36.8682 61.7136 40.1386 64.9841 44.1576 64.9841H49.3643C54.5324 64.9841 58.7363 60.78 58.7363 55.612V50.9438C62.4588 48.8618 64.9844 44.8854 64.9844 40.3254V36.8679C64.9844 32.8005 62.3649 29.3653 58.7364 28.0715ZM60.8191 40.3255C60.8191 44.735 57.2323 48.3227 52.8229 48.3237C50.2582 48.3237 47.8033 47.2436 45.9118 45.282C43.9186 43.2146 41.8156 42.0756 39.9923 42.0756C38.1699 42.0756 36.0679 43.2136 34.0737 45.281C32.1813 47.2427 29.7284 48.3237 27.1657 48.3237C22.7542 48.3227 19.1655 44.735 19.1655 40.3255V36.8679C19.1655 33.9971 21.5014 31.6612 24.3722 31.6612H55.6123C58.4831 31.6612 60.819 33.9971 60.819 36.8679L60.8191 40.3255Z" fill="currentColor"/>
</g>
<defs>
<clipPath id="clip1">
<rect width="50" height="50" fill="currentColor" transform="translate(15 15)"/>
</clipPath>
</defs>
</svg>
