<svg width="80" height="103" viewBox="0 0 80 103" fill="none" xmlns="http://www.w3.org/2000/svg">
<path d="M13.3225 91.6802H14.4225V99.3802H13.3225V91.6802ZM18.2458 99.4462C17.7691 99.4462 17.3108 99.3839 16.8708 99.2592C16.4308 99.1272 16.0861 98.9622 15.8368 98.7642L16.2768 97.9282C16.5334 98.1116 16.8451 98.2582 17.2118 98.3682C17.5784 98.4782 17.9488 98.5332 18.3228 98.5332C19.2468 98.5332 19.7088 98.2692 19.7088 97.7412C19.7088 97.5652 19.6464 97.4259 19.5218 97.3232C19.3971 97.2206 19.2394 97.1472 19.0488 97.1032C18.8654 97.0519 18.6014 96.9969 18.2568 96.9382C17.7874 96.8649 17.4024 96.7806 17.1018 96.6852C16.8084 96.5899 16.5554 96.4286 16.3428 96.2012C16.1301 95.9739 16.0238 95.6549 16.0238 95.2442C16.0238 94.7162 16.2438 94.2946 16.6838 93.9792C17.1238 93.6566 17.7141 93.4952 18.4548 93.4952C18.8434 93.4952 19.2321 93.5429 19.6208 93.6382C20.0094 93.7336 20.3284 93.8619 20.5778 94.0232L20.1268 94.8592C19.6501 94.5512 19.0891 94.3972 18.4438 94.3972C17.9964 94.3972 17.6554 94.4706 17.4208 94.6172C17.1861 94.7639 17.0688 94.9582 17.0688 95.2002C17.0688 95.3909 17.1348 95.5412 17.2668 95.6512C17.3988 95.7612 17.5601 95.8419 17.7508 95.8932C17.9488 95.9446 18.2238 96.0032 18.5758 96.0692C19.0451 96.1499 19.4228 96.2379 19.7088 96.3332C20.0021 96.4212 20.2514 96.5752 20.4568 96.7952C20.6621 97.0152 20.7648 97.3232 20.7648 97.7192C20.7648 98.2472 20.5374 98.6689 20.0828 98.9842C19.6354 99.2922 19.0231 99.4462 18.2458 99.4462ZM22.0845 91.2182H23.1405V99.3802H22.0845V91.2182ZM27.2798 93.4952C28.0864 93.4952 28.7024 93.6932 29.1278 94.0892C29.5604 94.4852 29.7768 95.0756 29.7768 95.8602V99.3802H28.7758V98.6102C28.5998 98.8816 28.3468 99.0906 28.0168 99.2372C27.6941 99.3766 27.3091 99.4462 26.8618 99.4462C26.2091 99.4462 25.6848 99.2886 25.2888 98.9732C24.9001 98.6579 24.7058 98.2436 24.7058 97.7302C24.7058 97.2169 24.8928 96.8062 25.2668 96.4982C25.6408 96.1829 26.2348 96.0252 27.0488 96.0252H28.7208V95.8162C28.7208 95.3616 28.5888 95.0132 28.3248 94.7712C28.0608 94.5292 27.6721 94.4082 27.1588 94.4082C26.8141 94.4082 26.4768 94.4669 26.1468 94.5842C25.8168 94.6942 25.5381 94.8446 25.3108 95.0352L24.8708 94.2432C25.1714 94.0012 25.5308 93.8179 25.9488 93.6932C26.3668 93.5612 26.8104 93.4952 27.2798 93.4952ZM27.0378 98.6322C27.4411 98.6322 27.7894 98.5442 28.0828 98.3682C28.3761 98.1849 28.5888 97.9282 28.7208 97.5982V96.7842H27.0928C26.1981 96.7842 25.7508 97.0849 25.7508 97.6862C25.7508 97.9796 25.8644 98.2106 26.0918 98.3792C26.3191 98.5479 26.6344 98.6322 27.0378 98.6322ZM34.844 93.4952C35.5846 93.4952 36.1713 93.7116 36.604 94.1442C37.044 94.5696 37.264 95.1966 37.264 96.0252V99.3802H36.208V96.1462C36.208 95.5816 36.0723 95.1562 35.801 94.8702C35.5296 94.5842 35.141 94.4412 34.635 94.4412C34.063 94.4412 33.612 94.6099 33.282 94.9472C32.952 95.2772 32.787 95.7539 32.787 96.3772V99.3802H31.731V93.5502H32.743V94.4302C32.9556 94.1296 33.2416 93.8986 33.601 93.7372C33.9676 93.5759 34.382 93.4952 34.844 93.4952ZM44.7505 91.2182V99.3802H43.7385V98.4562C43.5038 98.7789 43.2068 99.0246 42.8475 99.1932C42.4882 99.3619 42.0922 99.4462 41.6595 99.4462C41.0948 99.4462 40.5888 99.3216 40.1415 99.0722C39.6942 98.8229 39.3422 98.4746 39.0855 98.0272C38.8362 97.5726 38.7115 97.0519 38.7115 96.4652C38.7115 95.8786 38.8362 95.3616 39.0855 94.9142C39.3422 94.4669 39.6942 94.1186 40.1415 93.8692C40.5888 93.6199 41.0948 93.4952 41.6595 93.4952C42.0775 93.4952 42.4625 93.5759 42.8145 93.7372C43.1665 93.8912 43.4598 94.1222 43.6945 94.4302V91.2182H44.7505ZM41.7475 98.5222C42.1142 98.5222 42.4478 98.4379 42.7485 98.2692C43.0492 98.0932 43.2838 97.8512 43.4525 97.5432C43.6212 97.2279 43.7055 96.8686 43.7055 96.4652C43.7055 96.0619 43.6212 95.7062 43.4525 95.3982C43.2838 95.0829 43.0492 94.8409 42.7485 94.6722C42.4478 94.5036 42.1142 94.4192 41.7475 94.4192C41.3735 94.4192 41.0362 94.5036 40.7355 94.6722C40.4422 94.8409 40.2075 95.0829 40.0315 95.3982C39.8628 95.7062 39.7785 96.0619 39.7785 96.4652C39.7785 96.8686 39.8628 97.2279 40.0315 97.5432C40.2075 97.8512 40.4422 98.0932 40.7355 98.2692C41.0362 98.4379 41.3735 98.5222 41.7475 98.5222ZM49.8567 91.6802H50.9567V98.4232H55.1257V99.3802H49.8567V91.6802ZM56.2339 93.5502H57.2899V99.3802H56.2339V93.5502ZM56.7619 92.4282C56.5566 92.4282 56.3842 92.3622 56.2449 92.2302C56.1129 92.0982 56.0469 91.9369 56.0469 91.7462C56.0469 91.5556 56.1129 91.3942 56.2449 91.2622C56.3842 91.1229 56.5566 91.0532 56.7619 91.0532C56.9672 91.0532 57.1359 91.1192 57.2679 91.2512C57.4072 91.3759 57.4769 91.5336 57.4769 91.7242C57.4769 91.9222 57.4072 92.0909 57.2679 92.2302C57.1359 92.3622 56.9672 92.4282 56.7619 92.4282ZM61.4402 92.0212C60.8095 92.0212 60.4942 92.3622 60.4942 93.0442V93.5502H62.1882V94.4192H60.5162V99.3802H59.4602V94.4192H58.4702V93.5502H59.4602V93.0332C59.4602 92.4539 59.6288 91.9956 59.9662 91.6582C60.3035 91.3209 60.7765 91.1522 61.3852 91.1522C61.6198 91.1522 61.8398 91.1816 62.0452 91.2402C62.2505 91.2989 62.4265 91.3832 62.5732 91.4932L62.2542 92.2962C62.0122 92.1129 61.7408 92.0212 61.4402 92.0212ZM68.3672 96.4982C68.3672 96.5789 68.3598 96.6852 68.3452 96.8172H63.6152C63.6812 97.3306 63.9048 97.7449 64.2862 98.0602C64.6748 98.3682 65.1552 98.5222 65.7272 98.5222C66.4238 98.5222 66.9848 98.2876 67.4102 97.8182L67.9932 98.5002C67.7292 98.8082 67.3992 99.0429 67.0032 99.2042C66.6145 99.3656 66.1782 99.4462 65.6942 99.4462C65.0782 99.4462 64.5318 99.3216 64.0552 99.0722C63.5785 98.8156 63.2082 98.4599 62.9442 98.0052C62.6875 97.5506 62.5592 97.0372 62.5592 96.4652C62.5592 95.9006 62.6838 95.3909 62.9332 94.9362C63.1898 94.4816 63.5382 94.1296 63.9782 93.8802C64.4255 93.6236 64.9278 93.4952 65.4852 93.4952C66.0425 93.4952 66.5375 93.6236 66.9702 93.8802C67.4102 94.1296 67.7512 94.4816 67.9932 94.9362C68.2425 95.3909 68.3672 95.9116 68.3672 96.4982ZM65.4852 94.3862C64.9792 94.3862 64.5538 94.5402 64.2092 94.8482C63.8718 95.1562 63.6738 95.5596 63.6152 96.0582H67.3552C67.2965 95.5669 67.0948 95.1672 66.7502 94.8592C66.4128 94.5439 65.9912 94.3862 65.4852 94.3862Z" fill="#172D45"/>
<circle cx="40" cy="40.3802" r="40" fill="#1B9EB2"/>
<path d="M34.0375 24.9722C36.0515 21.4837 39.3688 18.9381 43.2597 17.8955C47.1505 16.8528 51.2962 17.3985 54.7847 19.4125C58.2733 21.4265 60.8189 24.7438 61.8615 28.6346C62.9042 32.5255 62.3585 36.6712 60.3445 40.1597L59.782 41.134C59.6713 41.3261 59.5238 41.4946 59.3479 41.6297C59.1721 41.7648 58.9713 41.8639 58.7571 41.9214C58.5429 41.9788 58.3195 41.9935 58.0997 41.9646C57.8798 41.9357 57.6678 41.8637 57.4757 41.7527L47.2202 35.8307L41.881 45.1727C46.1673 45.6812 49.9585 47.8952 52.7778 51.0565C51.6026 51.2478 50.5509 51.8966 49.8527 52.861C47.2315 50.143 43.7485 48.4375 40 48.4375C36.2515 48.4375 32.7685 50.143 30.145 52.861C29.4473 51.8971 28.3966 51.2483 27.2222 51.0565C30.0122 47.929 33.754 45.7285 37.984 45.1907L44.2975 34.1432L34.0938 28.2527C33.9016 28.142 33.7332 27.9945 33.598 27.8187C33.4629 27.6428 33.3638 27.442 33.3064 27.2279C33.2489 27.0137 33.2342 26.7903 33.2631 26.5704C33.2921 26.3505 33.3641 26.1385 33.475 25.9465L34.0375 24.9722ZM37.255 26.1805L41.6785 28.7342C42.88 26.8892 44.095 25.375 45.6003 24.0047C46.8653 22.8739 48.2419 21.8742 49.7088 21.0212C47.3545 20.5094 44.9001 20.7293 42.6742 21.6514C40.4484 22.5735 38.5576 24.1537 37.255 26.1805ZM50.3275 33.727C51.574 31.4837 52.1725 29.6995 52.3885 27.9782C52.5618 26.581 52.4942 25.1522 52.2445 23.4557C50.404 24.4907 49.027 25.4492 47.8705 26.5022C46.6712 27.5935 45.6632 28.822 44.6057 30.424L50.3275 33.727ZM53.2503 35.4145L57.6918 37.9795C58.8146 35.8005 59.2322 33.3264 58.8867 30.8996C58.5413 28.4728 57.4498 26.2135 55.7635 24.4345C55.9007 25.7522 55.8917 27.081 55.7365 28.3967C55.453 30.6692 54.6655 32.8787 53.2503 35.4167V35.4145ZM28.1065 54.985C27.994 54.6339 27.7695 54.3293 27.4675 54.1178C27.1655 53.9063 26.8026 53.7996 26.4341 53.8138C26.0657 53.8281 25.7121 53.9627 25.4274 54.1969C25.1427 54.4312 24.9425 54.7522 24.8575 55.111C24.385 57.1135 23.4918 58.18 22.5153 58.7875C21.4803 59.431 20.1528 59.6897 18.625 59.6897C18.1774 59.6897 17.7482 59.8675 17.4318 60.184C17.1153 60.5005 16.9375 60.9297 16.9375 61.3772C16.9375 61.8248 17.1153 62.254 17.4318 62.5705C17.7482 62.8869 18.1774 63.0647 18.625 63.0647C20.4745 63.0647 22.5175 62.761 24.2972 61.654C25.2494 61.061 26.064 60.2717 26.6868 59.3387C30.1788 63.5372 36.6092 63.5147 40 59.2735C43.4515 63.5912 50.0485 63.5372 53.4932 59.1137C55.4012 61.609 58.3758 63.0647 61.375 63.0647C61.8226 63.0647 62.2518 62.8869 62.5682 62.5705C62.8847 62.254 63.0625 61.8248 63.0625 61.3772C63.0625 60.9297 62.8847 60.5005 62.5682 60.184C62.2518 59.8675 61.8226 59.6897 61.375 59.6897C58.7132 59.6897 56.011 57.8965 55.111 55.0007C55.0047 54.6583 54.7921 54.3587 54.504 54.1453C54.2159 53.9318 53.8674 53.8157 53.5088 53.8137C53.1503 53.8117 52.8005 53.9239 52.51 54.1341C52.2196 54.3443 52.0036 54.6415 51.8935 54.9827C50.1295 60.4727 43.321 60.3827 41.5998 55.219C41.4872 54.8838 41.2723 54.5925 40.9852 54.386C40.6982 54.1796 40.3536 54.0686 40 54.0686C39.6464 54.0686 39.3018 54.1796 39.0148 54.386C38.7277 54.5925 38.5128 54.8838 38.4002 55.219C36.679 60.3805 29.8705 60.4727 28.1065 54.9827V54.985Z" fill="currentColor"/>
</svg>
