<svg width="54" height="54" viewBox="0 0 54 54" fill="none" xmlns="http://www.w3.org/2000/svg">
<path d="M21.0375 11.9722C23.0515 8.48371 26.3688 5.93812 30.2597 4.89547C34.1505 3.85281 38.2962 4.3985 41.7847 6.41249C45.2733 8.42647 47.8189 11.7438 48.8615 15.6346C49.9042 19.5255 49.3585 23.6712 47.3445 27.1597L46.782 28.134C46.6713 28.3261 46.5238 28.4946 46.3479 28.6297C46.1721 28.7648 45.9713 28.8639 45.7571 28.9214C45.5429 28.9788 45.3195 28.9935 45.0997 28.9646C44.8798 28.9357 44.6678 28.8637 44.4757 28.7527L34.2202 22.8307L28.881 32.1727C33.1673 32.6812 36.9585 34.8952 39.7778 38.0565C38.6026 38.2478 37.5509 38.8966 36.8527 39.861C34.2315 37.143 30.7485 35.4375 27 35.4375C23.2515 35.4375 19.7685 37.143 17.145 39.861C16.4473 38.8971 15.3966 38.2483 14.2222 38.0565C17.0122 34.929 20.754 32.7285 24.984 32.1907L31.2975 21.1432L21.0938 15.2527C20.9016 15.142 20.7332 14.9945 20.598 14.8187C20.4629 14.6428 20.3638 14.442 20.3064 14.2279C20.2489 14.0137 20.2342 13.7903 20.2631 13.5704C20.2921 13.3505 20.3641 13.1385 20.475 12.9465L21.0375 11.9722ZM24.255 13.1805L28.6785 15.7342C29.88 13.8892 31.095 12.375 32.6003 11.0047C33.8653 9.87385 35.2419 8.87423 36.7088 8.02124C34.3545 7.50941 31.9001 7.72927 29.6742 8.65136C27.4484 9.57345 25.5576 11.1537 24.255 13.1805ZM37.3275 20.727C38.574 18.4837 39.1725 16.6995 39.3885 14.9782C39.5618 13.581 39.4942 12.1522 39.2445 10.4557C37.404 11.4907 36.027 12.4492 34.8705 13.5022C33.6712 14.5935 32.6632 15.822 31.6057 17.424L37.3275 20.727ZM40.2503 22.4145L44.6918 24.9795C45.8146 22.8005 46.2322 20.3264 45.8867 17.8996C45.5413 15.4728 44.4498 13.2135 42.7635 11.4345C42.9007 12.7522 42.8917 14.081 42.7365 15.3967C42.453 17.6692 41.6655 19.8787 40.2503 22.4167V22.4145ZM15.1065 41.985C14.994 41.6339 14.7695 41.3293 14.4675 41.1178C14.1655 40.9063 13.8026 40.7996 13.4341 40.8138C13.0657 40.8281 12.7121 40.9627 12.4274 41.1969C12.1427 41.4312 11.9425 41.7522 11.8575 42.111C11.385 44.1135 10.4918 45.18 9.51525 45.7875C8.48025 46.431 7.15275 46.6897 5.625 46.6897C5.17745 46.6897 4.74822 46.8675 4.43176 47.184C4.11529 47.5005 3.9375 47.9297 3.9375 48.3772C3.9375 48.8248 4.11529 49.254 4.43176 49.5705C4.74822 49.8869 5.17745 50.0647 5.625 50.0647C7.4745 50.0647 9.5175 49.761 11.2972 48.654C12.2494 48.061 13.064 47.2717 13.6868 46.3387C17.1788 50.5372 23.6092 50.5147 27 46.2735C30.4515 50.5912 37.0485 50.5372 40.4932 46.1137C42.4012 48.609 45.3758 50.0647 48.375 50.0647C48.8226 50.0647 49.2518 49.8869 49.5682 49.5705C49.8847 49.254 50.0625 48.8248 50.0625 48.3772C50.0625 47.9297 49.8847 47.5005 49.5682 47.184C49.2518 46.8675 48.8226 46.6897 48.375 46.6897C45.7132 46.6897 43.011 44.8965 42.111 42.0007C42.0047 41.6583 41.7921 41.3587 41.504 41.1453C41.2159 40.9318 40.8674 40.8157 40.5088 40.8137C40.1503 40.8117 39.8005 40.9239 39.51 41.1341C39.2196 41.3443 39.0036 41.6415 38.8935 41.9827C37.1295 47.4727 30.321 47.3827 28.5998 42.219C28.4872 41.8838 28.2723 41.5925 27.9852 41.386C27.6982 41.1796 27.3536 41.0686 27 41.0686C26.6464 41.0686 26.3018 41.1796 26.0148 41.386C25.7277 41.5925 25.5128 41.8838 25.4002 42.219C23.679 47.3805 16.8705 47.4727 15.1065 41.9827V41.985Z" fill="#FFD045"/>
</svg>
