<svg width="56" height="56" viewBox="0 0 56 56" fill="none" xmlns="http://www.w3.org/2000/svg">
<path d="M36.1667 27.4167C36.1667 26.9525 35.9823 26.5074 35.6541 26.1792C35.3259 25.851 34.8808 25.6667 34.4167 25.6667C33.9526 25.6667 33.5074 25.851 33.1793 26.1792C32.8511 26.5074 32.6667 26.9525 32.6667 27.4167V32.0833C32.6667 32.5475 32.8511 32.9926 33.1793 33.3208C33.5074 33.649 33.9526 33.8333 34.4167 33.8333C34.8808 33.8333 35.3259 33.649 35.6541 33.3208C35.9823 32.9926 36.1667 32.5475 36.1667 32.0833V27.4167Z" fill="#ffffff"/>
<path d="M27.4167 25.6667C27.8808 25.6667 28.3259 25.851 28.6541 26.1792C28.9823 26.5074 29.1667 26.9525 29.1667 27.4167V32.0833C29.1667 32.5475 28.9823 32.9926 28.6541 33.3208C28.3259 33.649 27.8808 33.8333 27.4167 33.8333C26.9526 33.8333 26.5074 33.649 26.1793 33.3208C25.8511 32.9926 25.6667 32.5475 25.6667 32.0833V27.4167C25.6667 26.9525 25.8511 26.5074 26.1793 26.1792C26.5074 25.851 26.9526 25.6667 27.4167 25.6667Z" fill="#ffffff"/>
<path d="M22.1667 27.4167C22.1667 26.9525 21.9823 26.5074 21.6541 26.1792C21.3259 25.851 20.8808 25.6667 20.4167 25.6667C19.9526 25.6667 19.5074 25.851 19.1793 26.1792C18.8511 26.5074 18.6667 26.9525 18.6667 27.4167V32.0833C18.6667 32.5475 18.8511 32.9926 19.1793 33.3208C19.5074 33.649 19.9526 33.8333 20.4167 33.8333C20.8808 33.8333 21.3259 33.649 21.6541 33.3208C21.9823 32.9926 22.1667 32.5475 22.1667 32.0833V27.4167Z" fill="#ffffff"/>
<path d="M13.4167 36.1667C13.8808 36.1667 14.3259 36.351 14.6541 36.6792C14.9823 37.0074 15.1667 37.4525 15.1667 37.9167V43.75C15.1667 44.2141 14.9823 44.6593 14.6541 44.9874C14.3259 45.3156 13.8808 45.5 13.4167 45.5C12.9526 45.5 12.5074 45.3156 12.1793 44.9874C11.8511 44.6593 11.6667 44.2141 11.6667 43.75V37.9167C11.6667 37.4525 11.8511 37.0074 12.1793 36.6792C12.5074 36.351 12.9526 36.1667 13.4167 36.1667Z" fill="#ffffff"/>
<path d="M44.3334 37.9167C44.3334 37.4525 44.149 37.0074 43.8208 36.6792C43.4926 36.351 43.0475 36.1667 42.5834 36.1667C42.1192 36.1667 41.6741 36.351 41.3459 36.6792C41.0177 37.0074 40.8334 37.4525 40.8334 37.9167V43.75C40.8334 44.2141 41.0177 44.6593 41.3459 44.9874C41.6741 45.3156 42.1192 45.5 42.5834 45.5C43.0475 45.5 43.4926 45.3156 43.8208 44.9874C44.149 44.6593 44.3334 44.2141 44.3334 43.75V37.9167Z" fill="#ffffff"/>
<path d="M27.4167 4.66667H36.1667C36.4761 4.66667 36.7729 4.78959 36.9916 5.00838C37.2104 5.22717 37.3334 5.52392 37.3334 5.83334V10.5C37.3334 10.8094 37.2104 11.1062 36.9916 11.325C36.7729 11.5438 36.4761 11.6667 36.1667 11.6667H29.1667V14.042C33.286 14.337 37.1406 16.1815 39.9547 19.2042C42.7688 22.227 44.3333 26.2035 44.3334 30.3333H46.0834C47.4757 30.3333 48.8111 30.8865 49.7957 31.871C50.7802 32.8556 51.3334 34.191 51.3334 35.5833V49.5833C51.3334 50.0475 51.149 50.4926 50.8208 50.8208C50.4926 51.149 50.0475 51.3333 49.5834 51.3333H6.41669C5.95256 51.3333 5.50744 51.149 5.17925 50.8208C4.85106 50.4926 4.66669 50.0475 4.66669 49.5833V35.5833C4.66669 34.191 5.21981 32.8556 6.20438 31.871C7.18894 30.8865 8.5243 30.3333 9.91669 30.3333H11.6667C11.6667 26.4053 13.0818 22.6087 15.6529 19.639C18.2241 16.6694 21.7791 14.7255 25.6667 14.1633V6.41667C25.6667 5.95254 25.8511 5.50742 26.1793 5.17923C26.5074 4.85105 26.9526 4.66667 27.4167 4.66667ZM28 17.5C24.5964 17.5 21.3322 18.8521 18.9255 21.2588C16.5188 23.6655 15.1667 26.9297 15.1667 30.3333V32.0833C15.1667 32.5475 14.9823 32.9926 14.6541 33.3208C14.3259 33.649 13.8808 33.8333 13.4167 33.8333H9.91669C9.45256 33.8333 9.00744 34.0177 8.67925 34.3459C8.35106 34.6741 8.16669 35.1192 8.16669 35.5833V47.8333H22.1667V41.4167C22.1667 40.9525 22.3511 40.5074 22.6793 40.1792C23.0074 39.851 23.4526 39.6667 23.9167 39.6667H32.0834C32.5475 39.6667 32.9926 39.851 33.3208 40.1792C33.649 40.5074 33.8334 40.9525 33.8334 41.4167V47.8333H47.8334V35.5833C47.8334 35.1192 47.649 34.6741 47.3208 34.3459C46.9926 34.0177 46.5475 33.8333 46.0834 33.8333H42.5834C42.1192 33.8333 41.6741 33.649 41.3459 33.3208C41.0177 32.9926 40.8334 32.5475 40.8334 32.0833V30.3333C40.8334 26.9297 39.4813 23.6655 37.0746 21.2588C34.6678 18.8521 31.4036 17.5 28 17.5ZM30.3334 43.1667H25.6667V47.8333H30.3334V43.1667Z" fill="#ffffff"/>
</svg>
