<svg width="53" height="53" viewBox="0 0 53 53" fill="none" xmlns="http://www.w3.org/2000/svg">
<path d="M48.0312 43.0625H4.96875C4.52949 43.0625 4.10821 42.888 3.7976 42.5774C3.487 42.2668 3.3125 41.8455 3.3125 41.4062V13.25C3.3125 12.8107 3.487 12.3895 3.7976 12.0789C4.10821 11.7682 4.52949 11.5938 4.96875 11.5938H15.6681L18.5003 7.37031C18.6503 7.14248 18.8543 6.95523 19.0942 6.82521C19.334 6.69518 19.6022 6.62641 19.875 6.625H33.125C33.3978 6.62641 33.666 6.69518 33.9058 6.82521C34.1457 6.95523 34.3497 7.14248 34.4997 7.37031L37.3319 11.5938H48.0312C48.4705 11.5938 48.8918 11.7682 49.2024 12.0789C49.513 12.3895 49.6875 12.8107 49.6875 13.25V41.4062C49.6875 41.8455 49.513 42.2668 49.2024 42.5774C48.8918 42.888 48.4705 43.0625 48.0312 43.0625ZM6.625 39.75H46.375V14.9062H36.4375C36.1647 14.9048 35.8965 14.8361 35.6567 14.706C35.4168 14.576 35.2128 14.3888 35.0628 14.1609L32.2306 9.9375H20.7694L17.9372 14.1609C17.7872 14.3888 17.5832 14.576 17.3433 14.706C17.1035 14.8361 16.8353 14.9048 16.5625 14.9062H6.625V39.75Z" fill="#ffffff"/>
<path d="M26.5 36.4375C24.5346 36.4375 22.6132 35.8547 20.979 34.7627C19.3448 33.6708 18.0711 32.1188 17.319 30.3029C16.5668 28.4871 16.37 26.489 16.7535 24.5613C17.1369 22.6336 18.0833 20.8629 19.4731 19.4731C20.8629 18.0833 22.6336 17.1369 24.5613 16.7535C26.489 16.37 28.4871 16.5668 30.3029 17.319C32.1188 18.0711 33.6708 19.3448 34.7627 20.979C35.8547 22.6132 36.4375 24.5346 36.4375 26.5C36.4375 29.1356 35.3905 31.6632 33.5269 33.5269C31.6632 35.3905 29.1356 36.4375 26.5 36.4375ZM26.5 19.875C25.1897 19.875 23.9088 20.2636 22.8194 20.9915C21.7299 21.7195 20.8807 22.7542 20.3793 23.9647C19.8779 25.1753 19.7467 26.5074 20.0023 27.7925C20.2579 29.0776 20.8889 30.2581 21.8154 31.1846C22.7419 32.1111 23.9224 32.7421 25.2075 32.9977C26.4927 33.2533 27.8247 33.1221 29.0353 32.6207C30.2458 32.1193 31.2805 31.2701 32.0085 30.1807C32.7365 29.0912 33.125 27.8103 33.125 26.5C33.125 24.7429 32.427 23.0578 31.1846 21.8154C29.9422 20.573 28.2571 19.875 26.5 19.875Z" fill="#ffffff"/>
</svg>
