<svg width="80" height="123" viewBox="0 0 80 123" fill="none" xmlns="http://www.w3.org/2000/svg">
<path d="M18.859 100.686V103.37H22.72V104.316H18.859V107.429H17.759V99.7293H23.193V100.686H18.859ZM29.6738 104.547C29.6738 104.628 29.6665 104.734 29.6518 104.866H24.9218C24.9878 105.38 25.2115 105.794 25.5928 106.109C25.9815 106.417 26.4618 106.571 27.0338 106.571C27.7305 106.571 28.2915 106.337 28.7168 105.867L29.2998 106.549C29.0358 106.857 28.7058 107.092 28.3098 107.253C27.9211 107.415 27.4848 107.495 27.0008 107.495C26.3848 107.495 25.8385 107.371 25.3618 107.121C24.8851 106.865 24.5148 106.509 24.2508 106.054C23.9941 105.6 23.8658 105.086 23.8658 104.514C23.8658 103.95 23.9905 103.44 24.2398 102.985C24.4965 102.531 24.8448 102.179 25.2848 101.929C25.7321 101.673 26.2345 101.544 26.7918 101.544C27.3491 101.544 27.8441 101.673 28.2768 101.929C28.7168 102.179 29.0578 102.531 29.2998 102.985C29.5491 103.44 29.6738 103.961 29.6738 104.547ZM26.7918 102.435C26.2858 102.435 25.8605 102.589 25.5158 102.897C25.1785 103.205 24.9805 103.609 24.9218 104.107H28.6618C28.6031 103.616 28.4015 103.216 28.0568 102.908C27.7195 102.593 27.2978 102.435 26.7918 102.435ZM32.8122 107.495C32.3355 107.495 31.8772 107.433 31.4372 107.308C30.9972 107.176 30.6525 107.011 30.4032 106.813L30.8432 105.977C31.0998 106.161 31.4115 106.307 31.7782 106.417C32.1448 106.527 32.5152 106.582 32.8892 106.582C33.8132 106.582 34.2752 106.318 34.2752 105.79C34.2752 105.614 34.2128 105.475 34.0882 105.372C33.9635 105.27 33.8058 105.196 33.6152 105.152C33.4318 105.101 33.1678 105.046 32.8232 104.987C32.3538 104.914 31.9688 104.83 31.6682 104.734C31.3748 104.639 31.1218 104.478 30.9092 104.25C30.6965 104.023 30.5902 103.704 30.5902 103.293C30.5902 102.765 30.8102 102.344 31.2502 102.028C31.6902 101.706 32.2805 101.544 33.0212 101.544C33.4098 101.544 33.7985 101.592 34.1872 101.687C34.5758 101.783 34.8948 101.911 35.1442 102.072L34.6932 102.908C34.2165 102.6 33.6555 102.446 33.0102 102.446C32.5628 102.446 32.2218 102.52 31.9872 102.666C31.7525 102.813 31.6352 103.007 31.6352 103.249C31.6352 103.44 31.7012 103.59 31.8332 103.7C31.9652 103.81 32.1265 103.891 32.3172 103.942C32.5152 103.994 32.7902 104.052 33.1422 104.118C33.6115 104.199 33.9892 104.287 34.2752 104.382C34.5685 104.47 34.8178 104.624 35.0232 104.844C35.2285 105.064 35.3312 105.372 35.3312 105.768C35.3312 106.296 35.1038 106.718 34.6492 107.033C34.2018 107.341 33.5895 107.495 32.8122 107.495ZM39.9289 107.088C39.7749 107.22 39.5842 107.323 39.3569 107.396C39.1296 107.462 38.8949 107.495 38.6529 107.495C38.0662 107.495 37.6116 107.338 37.2889 107.022C36.9662 106.707 36.8049 106.256 36.8049 105.669V102.468H35.8149V101.599H36.8049V100.323H37.8609V101.599H39.5329V102.468H37.8609V105.625C37.8609 105.941 37.9379 106.183 38.0919 106.351C38.2532 106.52 38.4806 106.604 38.7739 106.604C39.0966 106.604 39.3716 106.513 39.5989 106.329L39.9289 107.088ZM41.2056 101.599H42.2616V107.429H41.2056V101.599ZM41.7336 100.477C41.5283 100.477 41.3559 100.411 41.2166 100.279C41.0846 100.147 41.0186 99.986 41.0186 99.7953C41.0186 99.6047 41.0846 99.4433 41.2166 99.3113C41.3559 99.172 41.5283 99.1023 41.7336 99.1023C41.9389 99.1023 42.1076 99.1683 42.2396 99.3003C42.3789 99.425 42.4486 99.5827 42.4486 99.7733C42.4486 99.9713 42.3789 100.14 42.2396 100.279C42.1076 100.411 41.9389 100.477 41.7336 100.477ZM49.4369 101.599L46.8849 107.429H45.8069L43.2549 101.599H44.3549L46.3569 106.274L48.4029 101.599H49.4369ZM52.3628 101.544C53.1694 101.544 53.7854 101.742 54.2108 102.138C54.6434 102.534 54.8598 103.125 54.8598 103.909V107.429H53.8588V106.659C53.6828 106.931 53.4298 107.14 53.0998 107.286C52.7771 107.426 52.3921 107.495 51.9448 107.495C51.2921 107.495 50.7678 107.338 50.3718 107.022C49.9831 106.707 49.7888 106.293 49.7888 105.779C49.7888 105.266 49.9758 104.855 50.3498 104.547C50.7238 104.232 51.3178 104.074 52.1318 104.074H53.8038V103.865C53.8038 103.411 53.6718 103.062 53.4078 102.82C53.1438 102.578 52.7551 102.457 52.2418 102.457C51.8971 102.457 51.5598 102.516 51.2298 102.633C50.8998 102.743 50.6211 102.894 50.3938 103.084L49.9538 102.292C50.2544 102.05 50.6138 101.867 51.0318 101.742C51.4498 101.61 51.8934 101.544 52.3628 101.544ZM52.1208 106.681C52.5241 106.681 52.8724 106.593 53.1658 106.417C53.4591 106.234 53.6718 105.977 53.8038 105.647V104.833H52.1758C51.2811 104.833 50.8338 105.134 50.8338 105.735C50.8338 106.029 50.9474 106.26 51.1748 106.428C51.4021 106.597 51.7174 106.681 52.1208 106.681ZM56.814 99.2673H57.87V107.429H56.814V99.2673ZM61.5583 107.495C61.0816 107.495 60.6233 107.433 60.1833 107.308C59.7433 107.176 59.3986 107.011 59.1493 106.813L59.5893 105.977C59.8459 106.161 60.1576 106.307 60.5243 106.417C60.8909 106.527 61.2613 106.582 61.6353 106.582C62.5593 106.582 63.0213 106.318 63.0213 105.79C63.0213 105.614 62.9589 105.475 62.8343 105.372C62.7096 105.27 62.5519 105.196 62.3613 105.152C62.1779 105.101 61.9139 105.046 61.5693 104.987C61.0999 104.914 60.7149 104.83 60.4143 104.734C60.1209 104.639 59.8679 104.478 59.6553 104.25C59.4426 104.023 59.3363 103.704 59.3363 103.293C59.3363 102.765 59.5563 102.344 59.9963 102.028C60.4363 101.706 61.0266 101.544 61.7673 101.544C62.1559 101.544 62.5446 101.592 62.9333 101.687C63.3219 101.783 63.6409 101.911 63.8903 102.072L63.4393 102.908C62.9626 102.6 62.4016 102.446 61.7563 102.446C61.3089 102.446 60.9679 102.52 60.7333 102.666C60.4986 102.813 60.3813 103.007 60.3813 103.249C60.3813 103.44 60.4473 103.59 60.5793 103.7C60.7113 103.81 60.8726 103.891 61.0633 103.942C61.2613 103.994 61.5363 104.052 61.8883 104.118C62.3576 104.199 62.7353 104.287 63.0213 104.382C63.3146 104.47 63.5639 104.624 63.7693 104.844C63.9746 105.064 64.0773 105.372 64.0773 105.768C64.0773 106.296 63.8499 106.718 63.3953 107.033C62.9479 107.341 62.3356 107.495 61.5583 107.495Z" fill="#172D45"/>
<circle cx="40" cy="40" r="40" fill="#1B9EB2"/>
<g clip-path="url(#clip2)">
<path d="M30.1322 33.4782H21.988C21.4092 33.4782 20.8654 33.7547 20.5244 34.2225C20.1833 34.6901 20.0864 35.2924 20.2633 35.8435C20.3905 36.24 23.4585 45.5539 30.1322 45.5539C35.5729 45.5539 38.3094 45.3355 38.4234 45.326C38.9768 45.2808 39.479 44.9843 39.7856 44.5216C40.0924 44.0585 40.17 43.4806 39.996 42.9533C39.8686 42.5666 36.7951 33.4782 30.1322 33.4782ZM29.7687 42.6582C27.3979 42.6582 24.9479 38.4215 23.8066 36.1922L30.8592 36.374C33.2548 36.374 35.3532 40.394 36.49 42.5706C35.1758 42.6169 32.0843 42.6582 29.7687 42.6582Z" fill="currentColor"/>
<path d="M66.8932 25.5993C66.3121 25.345 65.6746 25.4591 65.1352 25.7697C64.8507 25.9335 62.3519 26.904 52.0603 26.904C48.1807 26.904 44.4988 27.9936 41.0974 30.1458C37.695 27.9938 34.0126 26.904 30.134 26.904C19.6099 26.904 17.0615 25.8855 16.7976 25.739C16.2515 25.4355 15.6052 25.3505 15.0328 25.6229C14.4019 25.9235 14 26.56 14 27.2584C14 27.5283 14.0213 33.9461 15.8582 40.4742C19.1249 52.0829 25.4245 54.5196 30.134 54.5196C34.4161 54.5196 38.0972 53.6085 41.0974 51.8096C44.0968 53.6089 47.7776 54.5196 52.0603 54.5196C56.7109 54.5196 62.9304 52.0816 66.1491 40.4672C67.9575 33.9424 67.9782 27.5283 67.9782 27.2584C67.9782 26.5389 67.5523 25.8877 66.8932 25.5993ZM52.0603 50.897C48.0308 50.897 44.6953 49.9798 42.1457 48.1707C41.8317 47.9479 41.4647 47.8365 41.0974 47.8365C40.7303 47.8365 40.3633 47.9477 40.0495 48.1705C37.4987 49.9798 34.1626 50.897 30.1337 50.897C20.2127 50.897 18.1574 35.7844 17.7327 29.7256C20.469 30.2441 24.7322 30.5268 30.1337 30.5268C33.6481 30.5268 36.984 31.6292 40.0493 33.8036C40.6776 34.249 41.5183 34.2487 42.1455 33.8034C45.2092 31.629 48.545 30.5268 52.0601 30.5268C57.4263 30.5268 61.5712 30.2548 64.2459 29.7427C63.8263 35.8126 61.8016 50.897 52.0603 50.897Z" fill="currentColor"/>
<path d="M41.9876 42.9531C41.8137 43.4804 41.8913 44.0585 42.1981 44.5214C42.5048 44.9843 43.007 45.2808 43.5602 45.326C43.6742 45.3355 46.4115 45.5539 51.852 45.5539C58.5246 45.5539 61.5928 36.24 61.7198 35.8435C61.897 35.2924 61.8 34.6901 61.459 34.2225C61.1182 33.7549 60.5743 33.4782 59.9954 33.4782H51.852C45.1896 33.4782 42.1154 42.5664 41.9876 42.9531ZM52.0339 42.8399C49.7259 42.8399 47.1839 42.4354 45.8704 42.3892C46.9296 40.3457 49.894 36.1921 52.3974 36.1921L58.7141 36.3738C57.5729 38.5835 54.3853 42.8399 52.0339 42.8399Z" fill="currentColor"/>
</g>
<defs>
<clipPath id="clip2">
<rect width="54" height="54" fill="currentColor" transform="translate(14 13)"/>
</clipPath>
</defs>
</svg>
