<svg width="50" height="50" viewBox="0 0 50 50" fill="none" xmlns="http://www.w3.org/2000/svg">
<g clip-path="url(#clip0)">
<path d="M43.7364 13.0715V2C43.7364 1.42439 43.2706 0.958623 42.6951 0.958623H38.5297C37.9541 0.958623 37.4883 1.42439 37.4883 2V12.4958H9.37207C4.20396 12.4958 0 16.6999 0 21.8679V25.3255C0 32.0322 5.45581 37.488 12.1625 37.488C15.8611 37.488 19.3808 35.9555 22.0777 33.1701C23.5462 31.6436 24.6261 31.2399 24.9922 31.2399C25.3583 31.2399 26.4383 31.6436 27.9088 33.1722C30.522 35.8712 33.9128 37.381 37.4883 37.4707V40.612C37.4883 42.3347 36.087 45 34.3643 45H29.1576C28.5831 45 28.1162 43.2693 28.1162 42.6947V42.7481C29.8389 42.7481 31.2402 41.3467 31.2402 39.624C31.2402 37.9013 29.8389 36.5 28.1162 36.5H21.8682C20.1455 36.5 18.7441 37.9013 18.7441 39.624C18.7441 41.3467 20.1455 42.7481 21.8682 42.7481V42.6947C21.8682 46.7136 25.1386 49.9841 29.1576 49.9841H34.3643C39.5324 49.9841 43.7363 45.78 43.7363 40.612V35.9438C47.4588 33.8618 49.9844 29.8854 49.9844 25.3254V21.8679C49.9844 17.8005 47.3649 14.3653 43.7364 13.0715ZM45.8191 25.3255C45.8191 29.735 42.2323 33.3227 37.8229 33.3237C35.2582 33.3237 32.8033 32.2436 30.9118 30.282C28.9186 28.2146 26.8156 27.0756 24.9923 27.0756C23.1699 27.0756 21.0679 28.2136 19.0737 30.281C17.1813 32.2427 14.7284 33.3237 12.1657 33.3237C7.75422 33.3227 4.16549 29.735 4.16549 25.3255V21.8679C4.16549 18.9971 6.50138 16.6612 9.37216 16.6612H40.6123C43.4831 16.6612 45.819 18.9971 45.819 21.8679L45.8191 25.3255Z" fill="white"/>
</g>
<defs>
<clipPath id="clip2">
<rect width="50" height="50" fill="white"/>
</clipPath>
</defs>
</svg>
