<svg width="83" height="103" viewBox="0 0 83 103" fill="none" xmlns="http://www.w3.org/2000/svg">
<path d="M6.86947 98.4232V99.3802H1.28146V91.6802H6.71547V92.6372H2.38146V95.0022H6.24247V95.9372H2.38146V98.4232H6.86947ZM11.6096 93.4952C12.3503 93.4952 12.9369 93.7116 13.3696 94.1442C13.8096 94.5696 14.0296 95.1966 14.0296 96.0252V99.3802H12.9736V96.1462C12.9736 95.5816 12.8379 95.1562 12.5666 94.8702C12.2953 94.5842 11.9066 94.4412 11.4006 94.4412C10.8286 94.4412 10.3776 94.6099 10.0476 94.9472C9.71761 95.2772 9.55261 95.7539 9.55261 96.3772V99.3802H8.49661V93.5502H9.50861V94.4302C9.72127 94.1296 10.0073 93.8986 10.3666 93.7372C10.7333 93.5759 11.1476 93.4952 11.6096 93.4952ZM19.2619 99.0392C19.1079 99.1712 18.9172 99.2739 18.6899 99.3472C18.4626 99.4132 18.2279 99.4462 17.9859 99.4462C17.3992 99.4462 16.9446 99.2886 16.6219 98.9732C16.2992 98.6579 16.1379 98.2069 16.1379 97.6202V94.4192H15.1479V93.5502H16.1379V92.2742H17.1939V93.5502H18.8659V94.4192H17.1939V97.5762C17.1939 97.8916 17.2709 98.1336 17.4249 98.3022C17.5862 98.4709 17.8136 98.5552 18.1069 98.5552C18.4296 98.5552 18.7046 98.4636 18.9319 98.2802L19.2619 99.0392ZM25.6142 96.4982C25.6142 96.5789 25.6069 96.6852 25.5922 96.8172H20.8622C20.9282 97.3306 21.1519 97.7449 21.5332 98.0602C21.9219 98.3682 22.4022 98.5222 22.9742 98.5222C23.6709 98.5222 24.2319 98.2876 24.6572 97.8182L25.2402 98.5002C24.9762 98.8082 24.6462 99.0429 24.2502 99.2042C23.8616 99.3656 23.4252 99.4462 22.9412 99.4462C22.3252 99.4462 21.7789 99.3216 21.3022 99.0722C20.8256 98.8156 20.4552 98.4599 20.1912 98.0052C19.9346 97.5506 19.8062 97.0372 19.8062 96.4652C19.8062 95.9006 19.9309 95.3909 20.1802 94.9362C20.4369 94.4816 20.7852 94.1296 21.2252 93.8802C21.6726 93.6236 22.1749 93.4952 22.7322 93.4952C23.2896 93.4952 23.7846 93.6236 24.2172 93.8802C24.6572 94.1296 24.9982 94.4816 25.2402 94.9362C25.4896 95.3909 25.6142 95.9116 25.6142 96.4982ZM22.7322 94.3862C22.2262 94.3862 21.8009 94.5402 21.4562 94.8482C21.1189 95.1562 20.9209 95.5596 20.8622 96.0582H24.6022C24.5436 95.5669 24.3419 95.1672 23.9972 94.8592C23.6599 94.5439 23.2382 94.3862 22.7322 94.3862ZM28.0926 94.5292C28.2759 94.1919 28.5473 93.9352 28.9066 93.7592C29.2659 93.5832 29.7023 93.4952 30.2156 93.4952V94.5182C30.1569 94.5109 30.0763 94.5072 29.9736 94.5072C29.4016 94.5072 28.9506 94.6796 28.6206 95.0242C28.2979 95.3616 28.1366 95.8456 28.1366 96.4762V99.3802H27.0806V93.5502H28.0926V94.5292ZM35.0314 99.0392C34.8774 99.1712 34.6868 99.2739 34.4594 99.3472C34.2321 99.4132 33.9974 99.4462 33.7554 99.4462C33.1688 99.4462 32.7141 99.2886 32.3914 98.9732C32.0688 98.6579 31.9074 98.2069 31.9074 97.6202V94.4192H30.9174V93.5502H31.9074V92.2742H32.9634V93.5502H34.6354V94.4192H32.9634V97.5762C32.9634 97.8916 33.0404 98.1336 33.1944 98.3022C33.3558 98.4709 33.5831 98.5552 33.8764 98.5552C34.1991 98.5552 34.4741 98.4636 34.7014 98.2802L35.0314 99.0392ZM38.4311 93.4952C39.2378 93.4952 39.8538 93.6932 40.2791 94.0892C40.7118 94.4852 40.9281 95.0756 40.9281 95.8602V99.3802H39.9271V98.6102C39.7511 98.8816 39.4981 99.0906 39.1681 99.2372C38.8455 99.3766 38.4605 99.4462 38.0131 99.4462C37.3605 99.4462 36.8361 99.2886 36.4401 98.9732C36.0515 98.6579 35.8571 98.2436 35.8571 97.7302C35.8571 97.2169 36.0441 96.8062 36.4181 96.4982C36.7921 96.1829 37.3861 96.0252 38.2001 96.0252H39.8721V95.8162C39.8721 95.3616 39.7401 95.0132 39.4761 94.7712C39.2121 94.5292 38.8235 94.4082 38.3101 94.4082C37.9655 94.4082 37.6281 94.4669 37.2981 94.5842C36.9681 94.6942 36.6895 94.8446 36.4621 95.0352L36.0221 94.2432C36.3228 94.0012 36.6821 93.8179 37.1001 93.6932C37.5181 93.5612 37.9618 93.4952 38.4311 93.4952ZM38.1891 98.6322C38.5925 98.6322 38.9408 98.5442 39.2341 98.3682C39.5275 98.1849 39.7401 97.9282 39.8721 97.5982V96.7842H38.2441C37.3495 96.7842 36.9021 97.0849 36.9021 97.6862C36.9021 97.9796 37.0158 98.2106 37.2431 98.3792C37.4705 98.5479 37.7858 98.6322 38.1891 98.6322ZM42.8823 93.5502H43.9383V99.3802H42.8823V93.5502ZM43.4103 92.4282C43.205 92.4282 43.0327 92.3622 42.8933 92.2302C42.7613 92.0982 42.6953 91.9369 42.6953 91.7462C42.6953 91.5556 42.7613 91.3942 42.8933 91.2622C43.0327 91.1229 43.205 91.0532 43.4103 91.0532C43.6157 91.0532 43.7843 91.1192 43.9163 91.2512C44.0557 91.3759 44.1253 91.5336 44.1253 91.7242C44.1253 91.9222 44.0557 92.0909 43.9163 92.2302C43.7843 92.3622 43.6157 92.4282 43.4103 92.4282ZM49.0676 93.4952C49.8083 93.4952 50.3949 93.7116 50.8276 94.1442C51.2676 94.5696 51.4876 95.1966 51.4876 96.0252V99.3802H50.4316V96.1462C50.4316 95.5816 50.2959 95.1562 50.0246 94.8702C49.7533 94.5842 49.3646 94.4412 48.8586 94.4412C48.2866 94.4412 47.8356 94.6099 47.5056 94.9472C47.1756 95.2772 47.0106 95.7539 47.0106 96.3772V99.3802H45.9546V93.5502H46.9666V94.4302C47.1793 94.1296 47.4653 93.8986 47.8246 93.7372C48.1913 93.5759 48.6056 93.4952 49.0676 93.4952ZM60.7349 93.4952C61.4683 93.4952 62.0476 93.7079 62.4729 94.1332C62.9056 94.5586 63.1219 95.1892 63.1219 96.0252V99.3802H62.0659V96.1462C62.0659 95.5816 61.9339 95.1562 61.6699 94.8702C61.4133 94.5842 61.0429 94.4412 60.5589 94.4412C60.0236 94.4412 59.5983 94.6099 59.2829 94.9472C58.9676 95.2772 58.8099 95.7539 58.8099 96.3772V99.3802H57.7539V96.1462C57.7539 95.5816 57.6219 95.1562 57.3579 94.8702C57.1013 94.5842 56.7309 94.4412 56.2469 94.4412C55.7116 94.4412 55.2863 94.6099 54.9709 94.9472C54.6556 95.2772 54.4979 95.7539 54.4979 96.3772V99.3802H53.4419V93.5502H54.4539V94.4192C54.6666 94.1186 54.9453 93.8912 55.2899 93.7372C55.6346 93.5759 56.0269 93.4952 56.4669 93.4952C56.9216 93.4952 57.3249 93.5869 57.6769 93.7702C58.0289 93.9536 58.3003 94.2212 58.4909 94.5732C58.7109 94.2359 59.0153 93.9719 59.4039 93.7812C59.7999 93.5906 60.2436 93.4952 60.7349 93.4952ZM70.3662 96.4982C70.3662 96.5789 70.3589 96.6852 70.3442 96.8172H65.6142C65.6802 97.3306 65.9039 97.7449 66.2852 98.0602C66.6739 98.3682 67.1542 98.5222 67.7262 98.5222C68.4229 98.5222 68.9839 98.2876 69.4092 97.8182L69.9922 98.5002C69.7282 98.8082 69.3982 99.0429 69.0022 99.2042C68.6135 99.3656 68.1772 99.4462 67.6932 99.4462C67.0772 99.4462 66.5309 99.3216 66.0542 99.0722C65.5775 98.8156 65.2072 98.4599 64.9432 98.0052C64.6865 97.5506 64.5582 97.0372 64.5582 96.4652C64.5582 95.9006 64.6829 95.3909 64.9322 94.9362C65.1889 94.4816 65.5372 94.1296 65.9772 93.8802C66.4245 93.6236 66.9269 93.4952 67.4842 93.4952C68.0415 93.4952 68.5365 93.6236 68.9692 93.8802C69.4092 94.1296 69.7502 94.4816 69.9922 94.9362C70.2415 95.3909 70.3662 95.9116 70.3662 96.4982ZM67.4842 94.3862C66.9782 94.3862 66.5529 94.5402 66.2082 94.8482C65.8709 95.1562 65.6729 95.5596 65.6142 96.0582H69.3542C69.2955 95.5669 69.0939 95.1672 68.7492 94.8592C68.4119 94.5439 67.9902 94.3862 67.4842 94.3862ZM74.9455 93.4952C75.6862 93.4952 76.2729 93.7116 76.7055 94.1442C77.1455 94.5696 77.3655 95.1966 77.3655 96.0252V99.3802H76.3095V96.1462C76.3095 95.5816 76.1739 95.1562 75.9025 94.8702C75.6312 94.5842 75.2425 94.4412 74.7365 94.4412C74.1645 94.4412 73.7135 94.6099 73.3835 94.9472C73.0535 95.2772 72.8885 95.7539 72.8885 96.3772V99.3802H71.8325V93.5502H72.8445V94.4302C73.0572 94.1296 73.3432 93.8986 73.7025 93.7372C74.0692 93.5759 74.4835 93.4952 74.9455 93.4952ZM82.5978 99.0392C82.4438 99.1712 82.2532 99.2739 82.0258 99.3472C81.7985 99.4132 81.5638 99.4462 81.3218 99.4462C80.7352 99.4462 80.2805 99.2886 79.9578 98.9732C79.6352 98.6579 79.4738 98.2069 79.4738 97.6202V94.4192H78.4838V93.5502H79.4738V92.2742H80.5298V93.5502H82.2018V94.4192H80.5298V97.5762C80.5298 97.8916 80.6068 98.1336 80.7608 98.3022C80.9222 98.4709 81.1495 98.5552 81.4428 98.5552C81.7655 98.5552 82.0405 98.4636 82.2678 98.2802L82.5978 99.0392Z" fill="#172D45"/>
<circle cx="41" cy="40.3802" r="40" fill="#1B9EB2"/>
<path d="M26.5625 19.375L26 20.5C24.875 22.9375 24.125 26.3125 24.125 30.625C24.125 39.25 30.6875 46.375 39.125 47.3125V58.75H29.75V62.5H52.25V58.75H42.875V47.3125C51.3125 46.375 57.875 39.25 57.875 30.625C57.875 26.3125 57.125 22.9375 56 20.5L55.625 19.375H26.5625ZM29 23.125H53C53.75 25.375 54.125 28 54.125 30.625C54.125 34.5625 52.4375 37.9375 49.8125 40.375L49.625 40.5625C49.4375 40.75 49.25 40.9375 49.0625 40.9375C48.875 41.125 48.6875 41.125 48.6875 41.3125C48.5 41.5 48.3125 41.5 48.125 41.6875C47.9375 41.875 47.75 41.875 47.5625 42.0625C47.375 42.0625 47.1875 42.25 47.1875 42.25C47 42.4375 46.8125 42.4375 46.4375 42.625C46.25 42.625 46.0625 42.8125 46.0625 42.8125C45.875 43 45.5 43 45.3125 43C45.125 43 45.125 43.1875 44.9375 43.1875C44.75 43.1875 44.375 43.375 44.1875 43.375C44 43.375 44 43.375 43.8125 43.5625H41C33.6875 43.5625 27.875 37.75 27.875 30.4375V27.625L29 23.125Z" fill="currentColor"/>
</svg>
