<svg width="88" height="88" viewBox="0 0 88 88" fill="none" xmlns="http://www.w3.org/2000/svg">
<g clip-path="url(#clip0)">
<path d="M62.9487 56.9338C63.509 56.3798 63.826 55.6248 63.8292 54.8369V54.8358L63.8292 52.9605L69.9168 52.9605H69.9169C74.5209 52.9577 78.3068 49.1718 78.3096 44.5678L78.3096 44.5677L78.3096 42.7496L78.3096 42.7495C78.3068 38.1455 74.5209 34.3596 69.917 34.3568L69.9168 34.3568L63.8292 34.3568L63.8292 32.4814L63.8292 32.4798C63.8198 31.0645 62.8076 29.841 61.4191 29.5667L61.4174 29.5664L52.34 27.838C52.34 27.838 52.34 27.838 52.3399 27.838C46.6034 26.7438 40.7114 26.7438 34.9748 27.838L25.8974 29.5664L25.8957 29.5667C24.5072 29.841 23.495 31.0645 23.4856 32.4798L23.4856 32.4814L23.4856 34.3568L17.398 34.3568L17.3979 34.3568C12.7939 34.3596 9.00805 38.1455 9.00518 42.7495L9.00518 42.7496L9.0052 44.5677L9.0052 44.568C9.0106 49.1709 12.7949 52.9551 17.3977 52.9605L17.398 52.9605H23.4856V54.8358L23.4856 54.8369C23.4888 55.6248 23.8058 56.3798 24.3661 56.9337M62.9487 56.9338C62.5306 57.3505 61.9985 57.6347 61.4197 57.7505L61.4174 57.7509L52.34 59.4793C46.6034 60.5735 40.7114 60.5735 34.9748 59.4793L25.8974 57.7509L25.8951 57.7505C25.3163 57.6347 24.7842 57.3505 24.3661 56.9337M62.9487 56.9338C62.9486 56.9339 62.9485 56.934 62.9483 56.9341L62.7726 56.7563L62.9491 56.9334C62.949 56.9335 62.9488 56.9336 62.9487 56.9338ZM24.3661 56.9337C24.366 56.9336 24.3658 56.9335 24.3657 56.9334L24.5422 56.7563L24.3665 56.9341C24.3663 56.934 24.3662 56.9339 24.3661 56.9337ZM23.4903 36.6685L23.4857 37.3193L23.4857 37.3211L23.4857 49.9963L23.4857 49.9981L23.4903 50.6489L17.4047 50.6489L23.4903 36.6685ZM23.4903 36.6685L17.4047 36.6685L23.4903 36.6685ZM63.8247 50.649L69.9103 50.649L63.8247 50.649ZM63.8247 50.649L63.8293 49.9981L63.8293 49.9963L63.8293 37.3212L63.8293 37.3194L63.8247 36.6686L69.9103 36.6686L63.8247 50.649ZM75.9981 44.5612L75.9981 42.7564C75.9981 42.7563 75.9981 42.7563 75.9981 42.7562C75.9948 39.4188 73.2479 36.6719 69.9105 36.6686L75.9981 44.5612ZM75.9981 44.5612C75.9949 47.8986 73.248 50.6457 69.9105 50.649L75.9981 44.5612ZM11.3169 44.5611C11.3201 47.8986 14.067 50.6456 17.4045 50.6489L11.3169 44.5611ZM11.3169 44.5611L11.3169 42.7563C11.3201 39.4188 14.067 36.6718 17.4045 36.6685L11.3169 44.5611ZM61.5113 54.836L61.5113 54.8361C61.5114 55.1492 61.286 55.4217 60.9783 55.4802L60.9782 55.4802L51.9137 57.2086C51.9136 57.2086 51.9136 57.2086 51.9136 57.2087C46.4585 58.2462 40.8565 58.2462 35.4015 57.2087C35.4014 57.2086 35.4014 57.2086 35.4014 57.2086L26.3368 55.4802L26.3367 55.4802C26.0291 55.4217 25.8036 55.1492 25.8038 54.8361V54.8357L25.7975 49.1972L25.8038 49.1909V49.0873L25.8038 32.4816L25.8038 32.4815C25.8036 32.1683 26.0291 31.8959 26.3367 31.8373L26.3368 31.8373L35.4013 30.1089C35.4014 30.1089 35.4014 30.1089 35.4015 30.1089C40.8565 29.0714 46.4586 29.0714 51.9136 30.1089C51.9136 30.1089 51.9137 30.1089 51.9137 30.1089L60.9783 31.8373L60.9787 31.8374C61.1083 31.8619 61.2272 31.9261 61.3186 32.0212L61.3213 32.0239C61.4422 32.1458 61.5105 32.3106 61.5113 32.4823C61.5113 32.4824 61.5113 32.4825 61.5113 32.4826L61.5175 38.1204L61.5113 38.1267V38.2302L61.5113 54.836Z" fill="white" stroke="white" stroke-width="0.5"/>
<path d="M58.3921 50.2006L58.3921 50.2006C58.392 49.566 57.8715 49.0455 57.2369 49.0454L57.2369 49.0454L30.0795 49.0454C29.7671 49.0406 29.4657 49.1627 29.2448 49.3836C28.7959 49.8325 28.796 50.5687 29.2448 51.0175C29.4657 51.2385 29.767 51.3606 30.0794 51.3558L57.2369 51.3558L57.2369 51.3558C57.8715 51.3557 58.392 50.8352 58.3921 50.2006Z" fill="white" stroke="white" stroke-width="0.5"/>
<path d="M58.3929 43.6487L58.3929 43.6486C58.3928 43.014 57.8723 42.4935 57.2377 42.4935L57.2377 42.4935L30.0803 42.4935C29.7679 42.4886 29.4665 42.6107 29.2455 42.8317C28.7967 43.2805 28.7968 44.0168 29.2456 44.4656C29.4665 44.6865 29.7678 44.8086 30.0802 44.8038L57.2377 44.8038L57.2377 44.8038C57.8723 44.8037 58.3928 44.2833 58.3929 43.6487Z" fill="white" stroke="white" stroke-width="0.5"/>
<path d="M58.3923 37.0955L58.3923 37.0954C58.3922 36.4608 57.8717 35.9404 57.2371 35.9403L57.2371 35.9403L30.0791 35.9409C29.7667 35.9361 29.4653 36.0582 29.2444 36.2791C28.7956 36.728 28.7956 37.4642 29.2444 37.913C29.4653 38.134 29.7667 38.2561 30.079 38.2513L57.2371 38.2506L57.2372 38.2506C57.8718 38.2505 58.3922 37.7301 58.3923 37.0955Z" fill="white" stroke="white" stroke-width="0.5"/>
</g>
<defs>
<clipPath id="clip0">
<rect width="62" height="62" fill="white" transform="translate(44 0.159424) rotate(45)"/>
</clipPath>
</defs>
</svg>
