<svg width="63" height="63" viewBox="0 0 63 63" fill="none" xmlns="http://www.w3.org/2000/svg">
<g clip-path="url(#clip4)">
<path d="M49.729 38.7976C48.493 36.2207 44.0712 32.6439 39.7991 29.1878C37.4163 27.2616 35.1648 25.4405 33.7294 24.0051C33.3699 23.6429 32.8319 23.5274 32.357 23.6981C31.4727 24.0183 30.9268 24.2649 30.4965 24.4564C29.8405 24.7503 29.6201 24.85 28.7356 24.9392C28.3446 24.9786 27.993 25.1886 27.7752 25.5139C25.9198 28.2876 23.999 28.0515 22.7157 27.6212C22.3063 27.4848 22.2329 27.3088 22.1936 27.1409C21.918 25.989 23.301 23.307 25.0932 21.5147C29.3576 17.2477 31.5566 16.1797 36.2014 18.2554C41.4707 20.6119 46.7506 22.4568 46.8031 22.4751C47.4933 22.7139 48.2359 22.3517 48.4747 21.6668C48.7108 20.9819 48.3513 20.234 47.6664 19.9953C47.6139 19.9769 42.439 18.1688 37.2746 15.8569C31.2574 13.167 27.9561 14.9384 23.2405 19.6567C21.4455 21.4517 19.0076 25.0835 19.6374 27.7471C19.9077 28.8808 20.7055 29.7205 21.8916 30.1115C24.8648 31.093 27.5781 30.1534 29.5988 27.4716C30.4333 27.3431 30.8873 27.1541 31.5695 26.8471C31.8161 26.7368 32.1048 26.6083 32.488 26.4534C33.9891 27.8626 36.0149 29.5027 38.1484 31.2268C42.0059 34.3469 46.3805 37.8844 47.3645 39.9312C47.85 40.9415 47.3277 41.6002 46.9735 41.902C46.4539 42.3481 45.7428 42.4898 45.357 42.2194C44.9319 41.9281 44.3782 41.9098 43.94 42.1722C43.4991 42.4346 43.2525 42.9306 43.3076 43.4397C43.3968 44.2742 42.6331 44.7518 42.3025 44.9171C41.4627 45.3422 40.5863 45.2688 40.2582 44.9644C39.8908 44.6233 39.3633 44.5235 38.8962 44.6967C38.4292 44.8725 38.1037 45.3029 38.0565 45.8014C37.9777 46.6621 37.3401 47.4888 36.5082 47.8115C36.1067 47.9637 35.5241 48.0556 35.0019 47.5779C34.6766 47.2841 34.2251 47.1711 33.8027 47.2735C33.375 47.3784 33.0312 47.6882 32.8816 48.1001C32.8318 48.2314 32.7189 48.5462 31.4908 48.5462C30.6169 48.5462 29.045 47.9558 28.2762 47.4467C27.3551 46.8405 21.5792 42.5316 16.5908 38.3539C15.8901 37.7635 14.6777 36.4986 13.6071 35.3807C12.6571 34.3887 11.7885 33.4887 11.3424 33.1108C10.7834 32.6384 9.9568 32.7093 9.4923 33.2656C9.02526 33.8193 9.0934 34.6486 9.64717 35.1157C10.054 35.4595 10.8412 36.2913 11.7098 37.1966C12.8802 38.4195 14.0899 39.6844 14.9035 40.3667C19.7897 44.4578 25.6626 48.8743 26.8329 49.6431C27.7987 50.2782 29.8796 51.1704 31.4909 51.1704C32.7846 51.1704 33.7792 50.8738 34.4693 50.2939C35.393 50.6535 36.4427 50.6561 37.453 50.2625C38.647 49.8006 39.6284 48.869 40.1848 47.7407C41.2186 47.9611 42.4022 47.8062 43.4781 47.2657C44.5304 46.7357 45.2913 45.9248 45.6692 44.9774C46.7137 45.0325 47.7895 44.6625 48.6791 43.8989C50.1856 42.6105 50.6001 40.6057 49.729 38.7976Z" fill="#FFD045"/>
<path d="M26.2408 17.0564H14.432C13.7077 17.0564 13.1199 17.6443 13.1199 18.3685C13.1199 19.0928 13.7077 19.6807 14.432 19.6807H26.2408C26.9651 19.6807 27.5529 19.0928 27.5529 18.3685C27.5529 17.6443 26.9651 17.0564 26.2408 17.0564H26.2408Z" fill="#FFD045"/>
<path d="M53.5723 36.0063C53.1655 35.4054 52.352 35.2401 51.7511 35.6495L47.9146 38.2264C47.3137 38.6304 47.1536 39.4466 47.5577 40.0475C47.8123 40.4228 48.2269 40.6275 48.6495 40.6275C48.8988 40.6275 49.1533 40.5566 49.379 40.4045L53.2155 37.8276C53.8163 37.4234 53.9763 36.6073 53.5723 36.0063Z" fill="#FFD045"/>
<path d="M45.4286 42.2677C44.4892 41.5277 40.2878 37.2267 37.6899 34.5186C37.1887 33.9937 36.3569 33.9754 35.8346 34.4792C35.3097 34.9805 35.2939 35.8122 35.7952 36.3345C36.4697 37.0378 42.4186 43.2388 43.8016 44.3304C44.0403 44.5194 44.329 44.6113 44.6124 44.6113C44.9982 44.6113 45.384 44.4381 45.6463 44.11C46.0952 43.5431 45.9981 42.7164 45.4286 42.2677Z" fill="#FFD045"/>
<path d="M40.1855 44.8995C38.6136 43.6425 34.6643 39.4464 33.772 38.4755C33.2786 37.9402 32.452 37.9087 31.9167 38.3968C31.3839 38.8875 31.3473 39.7194 31.838 40.2522C31.8852 40.302 36.5983 45.3903 38.5454 46.9491C38.7868 47.1406 39.0781 47.2351 39.3641 47.2351C39.7473 47.2351 40.1303 47.0645 40.3901 46.7444C40.8417 46.1775 40.7498 45.3508 40.1855 44.8995Z" fill="#FFD045"/>
<path d="M34.9626 47.5417C33.0914 45.9646 29.2628 41.8892 28.5149 41.0888C28.019 40.5588 27.187 40.5298 26.6596 41.0258C26.1296 41.5218 26.1032 42.351 26.5966 42.8812C27.6726 44.0331 31.3359 47.917 33.2699 49.5492C33.5166 49.7565 33.8157 49.8588 34.1149 49.8588C34.4875 49.8588 34.8602 49.6988 35.12 49.3918C35.5871 48.8354 35.5162 48.0088 34.9626 47.5417Z" fill="#FFD045"/>
<path d="M15.3357 14.7752C13.0868 12.6443 4.09373 11.9541 1.39087 11.7941C1.01827 11.7758 0.67446 11.899 0.412068 12.1483C0.149588 12.395 0 12.7414 0 13.1035V36.7212C0 37.4454 0.587872 38.0333 1.31214 38.0333H9.18469C9.75151 38.0333 10.2553 37.6685 10.4311 37.1279C10.6226 36.5401 15.1442 22.6635 15.7398 15.8406C15.774 15.4417 15.627 15.048 15.3357 14.7752ZM8.22681 35.4091H2.62412V14.5101C6.84123 14.8434 11.3916 15.5676 13.0448 16.3706C12.3494 22.1176 9.20299 32.3283 8.22681 35.4091Z" fill="#FFD045"/>
<path d="M61.6688 14.4321C51.3662 14.4321 45.6507 17.0694 45.412 17.1796C45.0709 17.3396 44.8162 17.6362 44.7113 17.9957C44.6064 18.3553 44.6588 18.7411 44.8556 19.0611C46.4773 21.6722 51.5551 36.1734 52.5313 39.7108C52.6888 40.2802 53.2058 40.6738 53.7962 40.6738H61.6687C62.393 40.6738 62.9809 40.086 62.9809 39.3617V15.7441C62.9809 15.0172 62.393 14.4321 61.6688 14.4321ZM60.3568 38.0497H54.7777C53.5338 33.9979 49.86 23.433 47.8105 19.0664C49.8127 18.3868 54.1138 17.2189 60.3568 17.0721V38.0497Z" fill="#FFD045"/>
</g>
<defs>
<clipPath id="clip4">
<rect width="63" height="63" fill="white"/>
</clipPath>
</defs>
</svg>
