<svg width="51" height="51" viewBox="0 0 51 51" fill="none" xmlns="http://www.w3.org/2000/svg">
<path d="M23 34.0868C23 33.5513 23.2634 33.0377 23.7322 32.659C24.2011 32.2804 24.837 32.0676 25.5 32.0676C26.163 32.0676 26.7989 32.2804 27.2678 32.659C27.7366 33.0377 28 33.5513 28 34.0868V46.2016C28 46.7371 27.7366 47.2507 27.2678 47.6293C26.7989 48.008 26.163 48.2207 25.5 48.2207C24.837 48.2207 24.2011 48.008 23.7322 47.6293C23.2634 47.2507 23 46.7371 23 46.2016V34.0868Z" fill="white"/>
<path d="M25.5 23.991C24.837 23.991 24.2011 24.2273 23.7322 24.6481C23.2634 25.0688 23 25.6394 23 26.2344C23 26.8294 23.2634 27.4001 23.7322 27.8208C24.2011 28.2415 24.837 28.4779 25.5 28.4779C26.163 28.4779 26.7989 28.2415 27.2678 27.8208C27.7366 27.4001 28 26.8294 28 26.2344C28 25.6394 27.7366 25.0688 27.2678 24.6481C26.7989 24.2273 26.163 23.991 25.5 23.991Z" fill="white"/>
<circle cx="25.5" cy="25.5" r="24" stroke="white" stroke-width="3"/>
</svg>
