<svg width="80" height="103" viewBox="0 0 80 103" fill="none" xmlns="http://www.w3.org/2000/svg">
<circle cx="40" cy="40.3802" r="40" fill="#1B9EB2"/>
<path d="M8.45627 91.6802H9.55627V99.3802H8.45627V91.6802ZM14.8205 93.4952C15.5612 93.4952 16.1479 93.7116 16.5805 94.1442C17.0205 94.5696 17.2405 95.1966 17.2405 96.0252V99.3802H16.1845V96.1462C16.1845 95.5816 16.0489 95.1562 15.7775 94.8702C15.5062 94.5842 15.1175 94.4412 14.6115 94.4412C14.0395 94.4412 13.5885 94.6099 13.2585 94.9472C12.9285 95.2772 12.7635 95.7539 12.7635 96.3772V99.3802H11.7075V93.5502H12.7195V94.4302C12.9322 94.1296 13.2182 93.8986 13.5775 93.7372C13.9442 93.5759 14.3585 93.4952 14.8205 93.4952ZM21.3288 92.0212C20.6982 92.0212 20.3828 92.3622 20.3828 93.0442V93.5502H22.0768V94.4192H20.4048V99.3802H19.3488V94.4192H18.3588V93.5502H19.3488V93.0332C19.3488 92.4539 19.5175 91.9956 19.8548 91.6582C20.1922 91.3209 20.6652 91.1522 21.2738 91.1522C21.5085 91.1522 21.7285 91.1816 21.9338 91.2402C22.1392 91.2989 22.3152 91.3832 22.4618 91.4932L22.1428 92.2962C21.9008 92.1129 21.6295 92.0212 21.3288 92.0212ZM25.4838 99.4462C24.9045 99.4462 24.3838 99.3179 23.9218 99.0612C23.4598 98.8046 23.0968 98.4526 22.8328 98.0052C22.5762 97.5506 22.4478 97.0372 22.4478 96.4652C22.4478 95.8932 22.5762 95.3836 22.8328 94.9362C23.0968 94.4816 23.4598 94.1296 23.9218 93.8802C24.3838 93.6236 24.9045 93.4952 25.4838 93.4952C26.0632 93.4952 26.5802 93.6236 27.0348 93.8802C27.4968 94.1296 27.8562 94.4816 28.1128 94.9362C28.3768 95.3836 28.5088 95.8932 28.5088 96.4652C28.5088 97.0372 28.3768 97.5506 28.1128 98.0052C27.8562 98.4526 27.4968 98.8046 27.0348 99.0612C26.5802 99.3179 26.0632 99.4462 25.4838 99.4462ZM25.4838 98.5222C25.8578 98.5222 26.1915 98.4379 26.4848 98.2692C26.7855 98.0932 27.0202 97.8512 27.1888 97.5432C27.3575 97.2279 27.4418 96.8686 27.4418 96.4652C27.4418 96.0619 27.3575 95.7062 27.1888 95.3982C27.0202 95.0829 26.7855 94.8409 26.4848 94.6722C26.1915 94.5036 25.8578 94.4192 25.4838 94.4192C25.1098 94.4192 24.7725 94.5036 24.4718 94.6722C24.1785 94.8409 23.9438 95.0829 23.7678 95.3982C23.5992 95.7062 23.5148 96.0619 23.5148 96.4652C23.5148 96.8686 23.5992 97.2279 23.7678 97.5432C23.9438 97.8512 24.1785 98.0932 24.4718 98.2692C24.7725 98.4379 25.1098 98.5222 25.4838 98.5222ZM30.9813 94.5292C31.1646 94.1919 31.4359 93.9352 31.7953 93.7592C32.1546 93.5832 32.5909 93.4952 33.1043 93.4952V94.5182C33.0456 94.5109 32.9649 94.5072 32.8623 94.5072C32.2903 94.5072 31.8393 94.6796 31.5093 95.0242C31.1866 95.3616 31.0253 95.8456 31.0253 96.4762V99.3802H29.9693V93.5502H30.9813V94.5292ZM41.6988 93.4952C42.4321 93.4952 43.0115 93.7079 43.4368 94.1332C43.8695 94.5586 44.0858 95.1892 44.0858 96.0252V99.3802H43.0298V96.1462C43.0298 95.5816 42.8978 95.1562 42.6338 94.8702C42.3771 94.5842 42.0068 94.4412 41.5228 94.4412C40.9875 94.4412 40.5621 94.6099 40.2468 94.9472C39.9315 95.2772 39.7738 95.7539 39.7738 96.3772V99.3802H38.7178V96.1462C38.7178 95.5816 38.5858 95.1562 38.3218 94.8702C38.0651 94.5842 37.6948 94.4412 37.2108 94.4412C36.6755 94.4412 36.2501 94.6099 35.9348 94.9472C35.6195 95.2772 35.4618 95.7539 35.4618 96.3772V99.3802H34.4058V93.5502H35.4178V94.4192C35.6305 94.1186 35.9091 93.8912 36.2538 93.7372C36.5985 93.5759 36.9908 93.4952 37.4308 93.4952C37.8855 93.4952 38.2888 93.5869 38.6408 93.7702C38.9928 93.9536 39.2641 94.2212 39.4548 94.5732C39.6748 94.2359 39.9791 93.9719 40.3678 93.7812C40.7638 93.5906 41.2075 93.4952 41.6988 93.4952ZM48.1518 93.4952C48.9585 93.4952 49.5745 93.6932 49.9998 94.0892C50.4325 94.4852 50.6488 95.0756 50.6488 95.8602V99.3802H49.6478V98.6102C49.4718 98.8816 49.2188 99.0906 48.8888 99.2372C48.5662 99.3766 48.1812 99.4462 47.7338 99.4462C47.0812 99.4462 46.5568 99.2886 46.1608 98.9732C45.7722 98.6579 45.5778 98.2436 45.5778 97.7302C45.5778 97.2169 45.7648 96.8062 46.1388 96.4982C46.5128 96.1829 47.1068 96.0252 47.9208 96.0252H49.5928V95.8162C49.5928 95.3616 49.4608 95.0132 49.1968 94.7712C48.9328 94.5292 48.5442 94.4082 48.0308 94.4082C47.6862 94.4082 47.3488 94.4669 47.0188 94.5842C46.6888 94.6942 46.4102 94.8446 46.1828 95.0352L45.7428 94.2432C46.0435 94.0012 46.4028 93.8179 46.8208 93.6932C47.2388 93.5612 47.6825 93.4952 48.1518 93.4952ZM47.9098 98.6322C48.3132 98.6322 48.6615 98.5442 48.9548 98.3682C49.2482 98.1849 49.4608 97.9282 49.5928 97.5982V96.7842H47.9648C47.0702 96.7842 46.6228 97.0849 46.6228 97.6862C46.6228 97.9796 46.7365 98.2106 46.9638 98.3792C47.1912 98.5479 47.5065 98.6322 47.9098 98.6322ZM55.8811 99.0392C55.7271 99.1712 55.5364 99.2739 55.3091 99.3472C55.0817 99.4132 54.8471 99.4462 54.6051 99.4462C54.0184 99.4462 53.5637 99.2886 53.2411 98.9732C52.9184 98.6579 52.7571 98.2069 52.7571 97.6202V94.4192H51.7671V93.5502H52.7571V92.2742H53.8131V93.5502H55.4851V94.4192H53.8131V97.5762C53.8131 97.8916 53.8901 98.1336 54.0441 98.3022C54.2054 98.4709 54.4327 98.5552 54.7261 98.5552C55.0487 98.5552 55.3237 98.4636 55.5511 98.2802L55.8811 99.0392ZM57.1577 93.5502H58.2137V99.3802H57.1577V93.5502ZM57.6857 92.4282C57.4804 92.4282 57.3081 92.3622 57.1687 92.2302C57.0367 92.0982 56.9707 91.9369 56.9707 91.7462C56.9707 91.5556 57.0367 91.3942 57.1687 91.2622C57.3081 91.1229 57.4804 91.0532 57.6857 91.0532C57.8911 91.0532 58.0597 91.1192 58.1917 91.2512C58.3311 91.3759 58.4007 91.5336 58.4007 91.7242C58.4007 91.9222 58.3311 92.0909 58.1917 92.2302C58.0597 92.3622 57.8911 92.4282 57.6857 92.4282ZM62.727 99.4462C62.1477 99.4462 61.627 99.3179 61.165 99.0612C60.703 98.8046 60.34 98.4526 60.076 98.0052C59.8193 97.5506 59.691 97.0372 59.691 96.4652C59.691 95.8932 59.8193 95.3836 60.076 94.9362C60.34 94.4816 60.703 94.1296 61.165 93.8802C61.627 93.6236 62.1477 93.4952 62.727 93.4952C63.3063 93.4952 63.8233 93.6236 64.278 93.8802C64.74 94.1296 65.0993 94.4816 65.356 94.9362C65.62 95.3836 65.752 95.8932 65.752 96.4652C65.752 97.0372 65.62 97.5506 65.356 98.0052C65.0993 98.4526 64.74 98.8046 64.278 99.0612C63.8233 99.3179 63.3063 99.4462 62.727 99.4462ZM62.727 98.5222C63.101 98.5222 63.4347 98.4379 63.728 98.2692C64.0287 98.0932 64.2633 97.8512 64.432 97.5432C64.6007 97.2279 64.685 96.8686 64.685 96.4652C64.685 96.0619 64.6007 95.7062 64.432 95.3982C64.2633 95.0829 64.0287 94.8409 63.728 94.6722C63.4347 94.5036 63.101 94.4192 62.727 94.4192C62.353 94.4192 62.0157 94.5036 61.715 94.6722C61.4217 94.8409 61.187 95.0829 61.011 95.3982C60.8423 95.7062 60.758 96.0619 60.758 96.4652C60.758 96.8686 60.8423 97.2279 61.011 97.5432C61.187 97.8512 61.4217 98.0932 61.715 98.2692C62.0157 98.4379 62.353 98.5222 62.727 98.5222ZM70.3254 93.4952C71.0661 93.4952 71.6528 93.7116 72.0854 94.1442C72.5254 94.5696 72.7454 95.1966 72.7454 96.0252V99.3802H71.6894V96.1462C71.6894 95.5816 71.5538 95.1562 71.2824 94.8702C71.0111 94.5842 70.6224 94.4412 70.1164 94.4412C69.5444 94.4412 69.0934 94.6099 68.7634 94.9472C68.4334 95.2772 68.2684 95.7539 68.2684 96.3772V99.3802H67.2124V93.5502H68.2244V94.4302C68.4371 94.1296 68.7231 93.8986 69.0824 93.7372C69.4491 93.5759 69.8634 93.4952 70.3254 93.4952Z" fill="#172D45"/>
<path d="M38 38.025C38 37.4933 38.2634 36.9833 38.7322 36.6073C39.2011 36.2313 39.837 36.02 40.5 36.02C41.163 36.02 41.7989 36.2313 42.2678 36.6073C42.7366 36.9833 43 37.4933 43 38.025V50.0549C43 50.5867 42.7366 51.0967 42.2678 51.4727C41.7989 51.8487 41.163 52.0599 40.5 52.0599C39.837 52.0599 39.2011 51.8487 38.7322 51.4727C38.2634 51.0967 38 50.5867 38 50.0549V38.025Z" fill="currentColor"/>
<path d="M40.5 28C39.837 28 39.2011 28.2347 38.7322 28.6525C38.2634 29.0703 38 29.6369 38 30.2278C38 30.8186 38.2634 31.3853 38.7322 31.8031C39.2011 32.2209 39.837 32.4556 40.5 32.4556C41.163 32.4556 41.7989 32.2209 42.2678 31.8031C42.7366 31.3853 43 30.8186 43 30.2278C43 29.6369 42.7366 29.0703 42.2678 28.6525C41.7989 28.2347 41.163 28 40.5 28Z" fill="currentColor"/>
<circle cx="40.5" cy="39.5" r="24" stroke="currentColor" stroke-width="3"/>
</svg>
