<svg width="60" height="60" viewBox="0 0 60 60" fill="none" xmlns="http://www.w3.org/2000/svg">
<path d="M15.5625 9.375L15 10.5C13.875 12.9375 13.125 16.3125 13.125 20.625C13.125 29.25 19.6875 36.375 28.125 37.3125V48.75H18.75V52.5H41.25V48.75H31.875V37.3125C40.3125 36.375 46.875 29.25 46.875 20.625C46.875 16.3125 46.125 12.9375 45 10.5L44.625 9.375H15.5625ZM18 13.125H42C42.75 15.375 43.125 18 43.125 20.625C43.125 24.5625 41.4375 27.9375 38.8125 30.375L38.625 30.5625C38.4375 30.75 38.25 30.9375 38.0625 30.9375C37.875 31.125 37.6875 31.125 37.6875 31.3125C37.5 31.5 37.3125 31.5 37.125 31.6875C36.9375 31.875 36.75 31.875 36.5625 32.0625C36.375 32.0625 36.1875 32.25 36.1875 32.25C36 32.4375 35.8125 32.4375 35.4375 32.625C35.25 32.625 35.0625 32.8125 35.0625 32.8125C34.875 33 34.5 33 34.3125 33C34.125 33 34.125 33.1875 33.9375 33.1875C33.75 33.1875 33.375 33.375 33.1875 33.375C33 33.375 33 33.375 32.8125 33.5625H30C22.6875 33.5625 16.875 27.75 16.875 20.4375V17.625L18 13.125Z" fill="#FFD045"/>
</svg>
