<svg width="88" height="88" viewBox="0 0 88 88" fill="none" xmlns="http://www.w3.org/2000/svg">
<circle cx="43.84" cy="43.84" r="43.84" fill="#1B9EB2"/>
<path fill-rule="evenodd" clip-rule="evenodd" d="M62.9487 56.9338C63.509 56.3798 63.826 55.6248 63.8292 54.8369V54.8358V52.9605H69.9168C74.5208 52.9577 78.3068 49.1718 78.3096 44.5678V42.7496C78.3068 38.1456 74.5209 34.3596 69.917 34.3568H63.8292V32.4814V32.4798C63.8198 31.0645 62.8076 29.841 61.4191 29.5667L61.4174 29.5664L52.34 27.838C46.6035 26.7438 40.7114 26.7438 34.9748 27.838L25.8974 29.5664L25.8957 29.5667C24.5072 29.841 23.495 31.0645 23.4856 32.4798V32.4814V34.3568H17.398C12.7941 34.3596 9.00805 38.1455 9.00518 42.7495L9.0052 44.5677C9.0106 49.1706 12.7949 52.9551 17.3977 52.9605H23.4856V54.8358V54.8369C23.4888 55.6248 23.8058 56.3798 24.3661 56.9337L33.9598 56.9337L26.3368 55.4802C26.0292 55.4217 25.8036 55.1492 25.8038 54.8361L25.7975 49.1972L25.8038 49.1909V49.0873V32.4816C25.8036 32.1684 26.0291 31.8959 26.3367 31.8373L35.4013 30.1089C40.8563 29.0714 46.4586 29.0714 51.9136 30.1089L60.9783 31.8373C61.1079 31.8618 61.2272 31.9261 61.3186 32.0212L61.3213 32.0239C61.4422 32.1458 61.5105 32.3106 61.5113 32.4823L61.5175 38.1204L61.5113 38.1267V38.2302V54.836C61.5114 55.1491 61.286 55.4217 60.9783 55.4802L53.355 56.9338L62.9487 56.9338ZM23.4903 36.6685L23.4857 37.3193V37.3211V49.9963V49.9981L23.4903 50.6489H17.4047C14.0672 50.6456 11.3201 47.8986 11.3169 44.5611V42.7563C11.3201 39.4188 14.0672 36.6718 17.4047 36.6685H23.4903ZM69.9103 50.649H63.8247L63.8293 49.9981V49.9963V37.3212V37.3194L63.8247 36.6686H69.9103C73.2477 36.6719 75.9948 39.419 75.9981 42.7564V44.5612C75.9949 47.8986 73.2478 50.6457 69.9103 50.649Z" fill="white"/>
<path fill-rule="evenodd" clip-rule="evenodd" d="M53.355 56.9338L62.9487 56.9338C62.5306 57.3505 61.9985 57.6347 61.4197 57.7505L61.4174 57.7509L52.34 59.4793C46.6034 60.5735 40.7114 60.5735 34.9748 59.4793L25.8974 57.7509L25.8951 57.7505C25.3163 57.6347 24.7842 57.3505 24.3661 56.9337L33.9598 56.9337L35.4015 57.2087C40.8565 58.2462 46.4586 58.2461 51.9137 57.2086L53.355 56.9338Z" fill="white"/>
<path d="M58.3921 50.2006C58.392 49.566 57.8715 49.0455 57.2369 49.0454H30.0795C29.7671 49.0406 29.4657 49.1627 29.2448 49.3836C28.7959 49.8325 28.796 50.5687 29.2448 51.0175C29.4657 51.2385 29.767 51.3606 30.0794 51.3558H57.2369C57.8715 51.3557 58.392 50.8352 58.3921 50.2006Z" fill="white" stroke="white" stroke-width="0.5"/>
<path d="M58.3929 43.6487V43.6486C58.3928 43.014 57.8723 42.4935 57.2377 42.4935H30.0803C29.7679 42.4886 29.4665 42.6107 29.2455 42.8317C28.7967 43.2805 28.7968 44.0168 29.2456 44.4656C29.4665 44.6865 29.7678 44.8086 30.0802 44.8038H57.2377C57.8723 44.8037 58.3928 44.2833 58.3929 43.6487Z" fill="white" stroke="white" stroke-width="0.5"/>
<path d="M58.3923 37.0955V37.0954C58.3922 36.4608 57.8717 35.9404 57.2371 35.9403L30.0791 35.9409C29.7667 35.9361 29.4653 36.0582 29.2444 36.2791C28.7956 36.728 28.7956 37.4642 29.2444 37.913C29.4653 38.134 29.7667 38.2561 30.079 38.2513L57.2371 38.2506H57.2372C57.8718 38.2505 58.3922 37.7301 58.3923 37.0955Z" fill="white" stroke="white" stroke-width="0.5"/>
</svg>
