<svg width="80" height="80" viewBox="0 0 80 80" fill="none" xmlns="http://www.w3.org/2000/svg">
<circle cx="40" cy="40" r="40" fill="#1B9EB2"/>
<circle cx="40.5" cy="39.1198" r="24" stroke="white" stroke-width="3"/>
<path d="M40.5 27.6198C39.837 27.6198 39.2011 27.8561 38.7322 28.2768C38.2634 28.6976 38 29.2682 38 29.8632C38 30.4582 38.2634 31.0289 38.7322 31.4496C39.2011 31.8703 39.837 32.1067 40.5 32.1067C41.163 32.1067 41.7989 31.8703 42.2678 31.4496C42.7366 31.0289 43 30.4582 43 29.8632C43 29.2682 42.7366 28.6976 42.2678 28.2768C41.7989 27.8561 41.163 27.6198 40.5 27.6198Z" fill="white"/>
<path d="M38 37.7155C38 37.18 38.2634 36.6665 38.7322 36.2878C39.2011 35.9091 39.837 35.6964 40.5 35.6964C41.163 35.6964 41.7989 35.9091 42.2678 36.2878C42.7366 36.6665 43 37.18 43 37.7155V49.8304C43 50.3659 42.7366 50.8794 42.2678 51.2581C41.7989 51.6368 41.163 51.8495 40.5 51.8495C39.837 51.8495 39.2011 51.6368 38.7322 51.2581C38.2634 50.8794 38 50.3659 38 49.8304V37.7155Z" fill="white"/>
</svg>
