<svg width="80" height="114" viewBox="0 0 80 114" fill="none" xmlns="http://www.w3.org/2000/svg">
<path d="M18.859 92.257V94.941H22.72V95.887H18.859V99H17.759V91.3H23.193V92.257H18.859ZM29.6738 96.118C29.6738 96.1987 29.6665 96.305 29.6518 96.437H24.9218C24.9878 96.9503 25.2115 97.3647 25.5928 97.68C25.9815 97.988 26.4618 98.142 27.0338 98.142C27.7305 98.142 28.2915 97.9073 28.7168 97.438L29.2998 98.12C29.0358 98.428 28.7058 98.6627 28.3098 98.824C27.9211 98.9853 27.4848 99.066 27.0008 99.066C26.3848 99.066 25.8385 98.9413 25.3618 98.692C24.8851 98.4353 24.5148 98.0797 24.2508 97.625C23.9941 97.1703 23.8658 96.657 23.8658 96.085C23.8658 95.5203 23.9905 95.0107 24.2398 94.556C24.4965 94.1013 24.8448 93.7493 25.2848 93.5C25.7321 93.2433 26.2345 93.115 26.7918 93.115C27.3491 93.115 27.8441 93.2433 28.2768 93.5C28.7168 93.7493 29.0578 94.1013 29.2998 94.556C29.5491 95.0107 29.6738 95.5313 29.6738 96.118ZM26.7918 94.006C26.2858 94.006 25.8605 94.16 25.5158 94.468C25.1785 94.776 24.9805 95.1793 24.9218 95.678H28.6618C28.6031 95.1867 28.4015 94.787 28.0568 94.479C27.7195 94.1637 27.2978 94.006 26.7918 94.006ZM32.8122 99.066C32.3355 99.066 31.8772 99.0037 31.4372 98.879C30.9972 98.747 30.6525 98.582 30.4032 98.384L30.8432 97.548C31.0998 97.7313 31.4115 97.878 31.7782 97.988C32.1448 98.098 32.5152 98.153 32.8892 98.153C33.8132 98.153 34.2752 97.889 34.2752 97.361C34.2752 97.185 34.2128 97.0457 34.0882 96.943C33.9635 96.8403 33.8058 96.767 33.6152 96.723C33.4318 96.6717 33.1678 96.6167 32.8232 96.558C32.3538 96.4847 31.9688 96.4003 31.6682 96.305C31.3748 96.2097 31.1218 96.0483 30.9092 95.821C30.6965 95.5937 30.5902 95.2747 30.5902 94.864C30.5902 94.336 30.8102 93.9143 31.2502 93.599C31.6902 93.2763 32.2805 93.115 33.0212 93.115C33.4098 93.115 33.7985 93.1627 34.1872 93.258C34.5758 93.3533 34.8948 93.4817 35.1442 93.643L34.6932 94.479C34.2165 94.171 33.6555 94.017 33.0102 94.017C32.5628 94.017 32.2218 94.0903 31.9872 94.237C31.7525 94.3837 31.6352 94.578 31.6352 94.82C31.6352 95.0107 31.7012 95.161 31.8332 95.271C31.9652 95.381 32.1265 95.4617 32.3172 95.513C32.5152 95.5643 32.7902 95.623 33.1422 95.689C33.6115 95.7697 33.9892 95.8577 34.2752 95.953C34.5685 96.041 34.8178 96.195 35.0232 96.415C35.2285 96.635 35.3312 96.943 35.3312 97.339C35.3312 97.867 35.1038 98.2887 34.6492 98.604C34.2018 98.912 33.5895 99.066 32.8122 99.066ZM39.9289 98.659C39.7749 98.791 39.5842 98.8937 39.3569 98.967C39.1296 99.033 38.8949 99.066 38.6529 99.066C38.0662 99.066 37.6116 98.9083 37.2889 98.593C36.9662 98.2777 36.8049 97.8267 36.8049 97.24V94.039H35.8149V93.17H36.8049V91.894H37.8609V93.17H39.5329V94.039H37.8609V97.196C37.8609 97.5113 37.9379 97.7533 38.0919 97.922C38.2532 98.0907 38.4806 98.175 38.7739 98.175C39.0966 98.175 39.3716 98.0833 39.5989 97.9L39.9289 98.659ZM41.2056 93.17H42.2616V99H41.2056V93.17ZM41.7336 92.048C41.5283 92.048 41.3559 91.982 41.2166 91.85C41.0846 91.718 41.0186 91.5567 41.0186 91.366C41.0186 91.1753 41.0846 91.014 41.2166 90.882C41.3559 90.7427 41.5283 90.673 41.7336 90.673C41.9389 90.673 42.1076 90.739 42.2396 90.871C42.3789 90.9957 42.4486 91.1533 42.4486 91.344C42.4486 91.542 42.3789 91.7107 42.2396 91.85C42.1076 91.982 41.9389 92.048 41.7336 92.048ZM49.4369 93.17L46.8849 99H45.8069L43.2549 93.17H44.3549L46.3569 97.845L48.4029 93.17H49.4369ZM52.3628 93.115C53.1694 93.115 53.7854 93.313 54.2108 93.709C54.6434 94.105 54.8598 94.6953 54.8598 95.48V99H53.8588V98.23C53.6828 98.5013 53.4298 98.7103 53.0998 98.857C52.7771 98.9963 52.3921 99.066 51.9448 99.066C51.2921 99.066 50.7678 98.9083 50.3718 98.593C49.9831 98.2777 49.7888 97.8633 49.7888 97.35C49.7888 96.8367 49.9758 96.426 50.3498 96.118C50.7238 95.8027 51.3178 95.645 52.1318 95.645H53.8038V95.436C53.8038 94.9813 53.6718 94.633 53.4078 94.391C53.1438 94.149 52.7551 94.028 52.2418 94.028C51.8971 94.028 51.5598 94.0867 51.2298 94.204C50.8998 94.314 50.6211 94.4643 50.3938 94.655L49.9538 93.863C50.2544 93.621 50.6138 93.4377 51.0318 93.313C51.4498 93.181 51.8934 93.115 52.3628 93.115ZM52.1208 98.252C52.5241 98.252 52.8724 98.164 53.1658 97.988C53.4591 97.8047 53.6718 97.548 53.8038 97.218V96.404H52.1758C51.2811 96.404 50.8338 96.7047 50.8338 97.306C50.8338 97.5993 50.9474 97.8303 51.1748 97.999C51.4021 98.1677 51.7174 98.252 52.1208 98.252ZM56.814 90.838H57.87V99H56.814V90.838ZM61.5583 99.066C61.0816 99.066 60.6233 99.0037 60.1833 98.879C59.7433 98.747 59.3986 98.582 59.1493 98.384L59.5893 97.548C59.8459 97.7313 60.1576 97.878 60.5243 97.988C60.8909 98.098 61.2613 98.153 61.6353 98.153C62.5593 98.153 63.0213 97.889 63.0213 97.361C63.0213 97.185 62.9589 97.0457 62.8343 96.943C62.7096 96.8403 62.5519 96.767 62.3613 96.723C62.1779 96.6717 61.9139 96.6167 61.5693 96.558C61.0999 96.4847 60.7149 96.4003 60.4143 96.305C60.1209 96.2097 59.8679 96.0483 59.6553 95.821C59.4426 95.5937 59.3363 95.2747 59.3363 94.864C59.3363 94.336 59.5563 93.9143 59.9963 93.599C60.4363 93.2763 61.0266 93.115 61.7673 93.115C62.1559 93.115 62.5446 93.1627 62.9333 93.258C63.3219 93.3533 63.6409 93.4817 63.8903 93.643L63.4393 94.479C62.9626 94.171 62.4016 94.017 61.7563 94.017C61.3089 94.017 60.9679 94.0903 60.7333 94.237C60.4986 94.3837 60.3813 94.578 60.3813 94.82C60.3813 95.0107 60.4473 95.161 60.5793 95.271C60.7113 95.381 60.8726 95.4617 61.0633 95.513C61.2613 95.5643 61.5363 95.623 61.8883 95.689C62.3576 95.7697 62.7353 95.8577 63.0213 95.953C63.3146 96.041 63.5639 96.195 63.7693 96.415C63.9746 96.635 64.0773 96.943 64.0773 97.339C64.0773 97.867 63.8499 98.2887 63.3953 98.604C62.9479 98.912 62.3356 99.066 61.5583 99.066Z" fill="#172D45"/>
<circle cx="40" cy="40" r="40" fill="#1B9EB2"/>
<g clip-path="url(#clip0)">
<path d="M30.1322 33.4782H21.988C21.4092 33.4782 20.8654 33.7547 20.5244 34.2225C20.1833 34.6901 20.0864 35.2924 20.2633 35.8435C20.3905 36.24 23.4585 45.5539 30.1322 45.5539C35.5729 45.5539 38.3094 45.3355 38.4234 45.326C38.9768 45.2808 39.479 44.9843 39.7856 44.5216C40.0924 44.0585 40.17 43.4806 39.996 42.9533C39.8686 42.5666 36.7951 33.4782 30.1322 33.4782ZM29.7687 42.6582C27.3979 42.6582 24.9479 38.4215 23.8066 36.1922L30.8592 36.374C33.2548 36.374 35.3532 40.394 36.49 42.5706C35.1758 42.6169 32.0843 42.6582 29.7687 42.6582Z" fill="white"/>
<path d="M66.8932 25.5993C66.3121 25.345 65.6746 25.4591 65.1352 25.7697C64.8507 25.9335 62.3519 26.904 52.0603 26.904C48.1807 26.904 44.4988 27.9936 41.0974 30.1458C37.695 27.9938 34.0126 26.904 30.134 26.904C19.6099 26.904 17.0615 25.8855 16.7976 25.739C16.2515 25.4355 15.6052 25.3505 15.0328 25.6229C14.4019 25.9235 14 26.56 14 27.2584C14 27.5283 14.0213 33.9461 15.8582 40.4742C19.1249 52.0829 25.4245 54.5196 30.134 54.5196C34.4161 54.5196 38.0972 53.6085 41.0974 51.8096C44.0968 53.6089 47.7776 54.5196 52.0603 54.5196C56.7109 54.5196 62.9304 52.0816 66.1491 40.4672C67.9575 33.9424 67.9782 27.5283 67.9782 27.2584C67.9782 26.5389 67.5523 25.8877 66.8932 25.5993ZM52.0603 50.897C48.0308 50.897 44.6953 49.9798 42.1457 48.1707C41.8317 47.9479 41.4647 47.8365 41.0974 47.8365C40.7303 47.8365 40.3633 47.9477 40.0495 48.1705C37.4987 49.9798 34.1626 50.897 30.1337 50.897C20.2127 50.897 18.1574 35.7844 17.7327 29.7256C20.469 30.2441 24.7322 30.5268 30.1337 30.5268C33.6481 30.5268 36.984 31.6292 40.0493 33.8036C40.6776 34.249 41.5183 34.2487 42.1455 33.8034C45.2092 31.629 48.545 30.5268 52.0601 30.5268C57.4263 30.5268 61.5712 30.2548 64.2459 29.7427C63.8263 35.8126 61.8016 50.897 52.0603 50.897Z" fill="white"/>
<path d="M41.9876 42.9531C41.8137 43.4804 41.8913 44.0585 42.1981 44.5214C42.5048 44.9843 43.007 45.2808 43.5602 45.326C43.6742 45.3355 46.4115 45.5539 51.852 45.5539C58.5246 45.5539 61.5928 36.24 61.7198 35.8435C61.897 35.2924 61.8 34.6901 61.459 34.2225C61.1182 33.7549 60.5743 33.4782 59.9954 33.4782H51.852C45.1896 33.4782 42.1154 42.5664 41.9876 42.9531ZM52.0339 42.8399C49.7259 42.8399 47.1839 42.4354 45.8704 42.3892C46.9296 40.3457 49.894 36.1921 52.3974 36.1921L58.7141 36.3738C57.5729 38.5835 54.3853 42.8399 52.0339 42.8399Z" fill="white"/>
</g>
<defs>
<clipPath id="clip0">
<rect width="54" height="54" fill="white" transform="translate(14 13)"/>
</clipPath>
</defs>
</svg>
