<svg width="80" height="103" viewBox="0 0 80 103" fill="none" xmlns="http://www.w3.org/2000/svg">
<circle cx="40" cy="40.3802" r="40" fill="#1B9EB2"/>
<path d="M16.6407 99.4682C16.0614 99.4682 15.5004 99.3802 14.9577 99.2042C14.4224 99.0209 14.0007 98.7862 13.6927 98.5002L14.0997 97.6422C14.393 97.9062 14.767 98.1226 15.2217 98.2912C15.6837 98.4526 16.1567 98.5332 16.6407 98.5332C17.2787 98.5332 17.7554 98.4269 18.0707 98.2142C18.386 97.9942 18.5437 97.7046 18.5437 97.3452C18.5437 97.0812 18.4557 96.8686 18.2797 96.7072C18.111 96.5386 17.8984 96.4102 17.6417 96.3222C17.3924 96.2342 17.0367 96.1352 16.5747 96.0252C15.9954 95.8859 15.526 95.7466 15.1667 95.6072C14.8147 95.4679 14.5104 95.2552 14.2537 94.9692C14.0044 94.6759 13.8797 94.2836 13.8797 93.7922C13.8797 93.3816 13.986 93.0112 14.1987 92.6812C14.4187 92.3512 14.7487 92.0872 15.1887 91.8892C15.6287 91.6912 16.175 91.5922 16.8277 91.5922C17.2824 91.5922 17.7297 91.6509 18.1697 91.7682C18.6097 91.8856 18.9874 92.0542 19.3027 92.2742L18.9397 93.1542C18.617 92.9489 18.2724 92.7949 17.9057 92.6922C17.539 92.5822 17.1797 92.5272 16.8277 92.5272C16.2044 92.5272 15.735 92.6409 15.4197 92.8682C15.1117 93.0956 14.9577 93.3889 14.9577 93.7482C14.9577 94.0122 15.0457 94.2286 15.2217 94.3972C15.3977 94.5586 15.614 94.6869 15.8707 94.7822C16.1347 94.8702 16.4904 94.9656 16.9377 95.0682C17.517 95.2076 17.9827 95.3469 18.3347 95.4862C18.6867 95.6256 18.9874 95.8382 19.2367 96.1242C19.4934 96.4102 19.6217 96.7952 19.6217 97.2792C19.6217 97.6826 19.5117 98.0529 19.2917 98.3902C19.0717 98.7202 18.738 98.9842 18.2907 99.1822C17.8434 99.3729 17.2934 99.4682 16.6407 99.4682ZM24.1877 93.4952C24.9284 93.4952 25.5151 93.7116 25.9477 94.1442C26.3877 94.5696 26.6077 95.1966 26.6077 96.0252V99.3802H25.5517V96.1462C25.5517 95.5816 25.4161 95.1562 25.1447 94.8702C24.8734 94.5842 24.4847 94.4412 23.9787 94.4412C23.4067 94.4412 22.9557 94.6099 22.6257 94.9472C22.2957 95.2772 22.1307 95.7539 22.1307 96.3772V99.3802H21.0747V91.2182H22.1307V94.3752C22.3507 94.0966 22.6367 93.8802 22.9887 93.7262C23.3481 93.5722 23.7477 93.4952 24.1877 93.4952ZM31.0913 99.4462C30.5119 99.4462 29.9913 99.3179 29.5293 99.0612C29.0673 98.8046 28.7043 98.4526 28.4403 98.0052C28.1836 97.5506 28.0553 97.0372 28.0553 96.4652C28.0553 95.8932 28.1836 95.3836 28.4403 94.9362C28.7043 94.4816 29.0673 94.1296 29.5293 93.8802C29.9913 93.6236 30.5119 93.4952 31.0913 93.4952C31.6706 93.4952 32.1876 93.6236 32.6423 93.8802C33.1043 94.1296 33.4636 94.4816 33.7203 94.9362C33.9843 95.3836 34.1163 95.8932 34.1163 96.4652C34.1163 97.0372 33.9843 97.5506 33.7203 98.0052C33.4636 98.4526 33.1043 98.8046 32.6423 99.0612C32.1876 99.3179 31.6706 99.4462 31.0913 99.4462ZM31.0913 98.5222C31.4653 98.5222 31.7989 98.4379 32.0923 98.2692C32.3929 98.0932 32.6276 97.8512 32.7963 97.5432C32.9649 97.2279 33.0493 96.8686 33.0493 96.4652C33.0493 96.0619 32.9649 95.7062 32.7963 95.3982C32.6276 95.0829 32.3929 94.8409 32.0923 94.6722C31.7989 94.5036 31.4653 94.4192 31.0913 94.4192C30.7173 94.4192 30.3799 94.5036 30.0793 94.6722C29.7859 94.8409 29.5513 95.0829 29.3753 95.3982C29.2066 95.7062 29.1223 96.0619 29.1223 96.4652C29.1223 96.8686 29.2066 97.2279 29.3753 97.5432C29.5513 97.8512 29.7859 98.0932 30.0793 98.2692C30.3799 98.4379 30.7173 98.5222 31.0913 98.5222ZM38.6677 93.4952C39.2324 93.4952 39.7384 93.6199 40.1857 93.8692C40.633 94.1186 40.9814 94.4669 41.2307 94.9142C41.4874 95.3616 41.6157 95.8786 41.6157 96.4652C41.6157 97.0519 41.4874 97.5726 41.2307 98.0272C40.9814 98.4746 40.633 98.8229 40.1857 99.0722C39.7384 99.3216 39.2324 99.4462 38.6677 99.4462C38.2497 99.4462 37.8647 99.3656 37.5127 99.2042C37.168 99.0429 36.8747 98.8082 36.6327 98.5002V101.514H35.5767V93.5502H36.5887V94.4742C36.8234 94.1516 37.1204 93.9096 37.4797 93.7482C37.839 93.5796 38.235 93.4952 38.6677 93.4952ZM38.5797 98.5222C38.9537 98.5222 39.2874 98.4379 39.5807 98.2692C39.8814 98.0932 40.116 97.8512 40.2847 97.5432C40.4607 97.2279 40.5487 96.8686 40.5487 96.4652C40.5487 96.0619 40.4607 95.7062 40.2847 95.3982C40.116 95.0829 39.8814 94.8409 39.5807 94.6722C39.2874 94.5036 38.9537 94.4192 38.5797 94.4192C38.213 94.4192 37.8794 94.5072 37.5787 94.6832C37.2854 94.8519 37.0507 95.0902 36.8747 95.3982C36.706 95.7062 36.6217 96.0619 36.6217 96.4652C36.6217 96.8686 36.706 97.2279 36.8747 97.5432C37.0434 97.8512 37.278 98.0932 37.5787 98.2692C37.8794 98.4379 38.213 98.5222 38.5797 98.5222ZM46.1657 93.4952C46.7304 93.4952 47.2364 93.6199 47.6837 93.8692C48.1311 94.1186 48.4794 94.4669 48.7287 94.9142C48.9854 95.3616 49.1137 95.8786 49.1137 96.4652C49.1137 97.0519 48.9854 97.5726 48.7287 98.0272C48.4794 98.4746 48.1311 98.8229 47.6837 99.0722C47.2364 99.3216 46.7304 99.4462 46.1657 99.4462C45.7477 99.4462 45.3627 99.3656 45.0107 99.2042C44.6661 99.0429 44.3727 98.8082 44.1307 98.5002V101.514H43.0747V93.5502H44.0867V94.4742C44.3214 94.1516 44.6184 93.9096 44.9777 93.7482C45.3371 93.5796 45.7331 93.4952 46.1657 93.4952ZM46.0777 98.5222C46.4517 98.5222 46.7854 98.4379 47.0787 98.2692C47.3794 98.0932 47.6141 97.8512 47.7827 97.5432C47.9587 97.2279 48.0467 96.8686 48.0467 96.4652C48.0467 96.0619 47.9587 95.7062 47.7827 95.3982C47.6141 95.0829 47.3794 94.8409 47.0787 94.6722C46.7854 94.5036 46.4517 94.4192 46.0777 94.4192C45.7111 94.4192 45.3774 94.5072 45.0767 94.6832C44.7834 94.8519 44.5487 95.0902 44.3727 95.3982C44.2041 95.7062 44.1197 96.0619 44.1197 96.4652C44.1197 96.8686 44.2041 97.2279 44.3727 97.5432C44.5414 97.8512 44.7761 98.0932 45.0767 98.2692C45.3774 98.4379 45.7111 98.5222 46.0777 98.5222ZM50.5728 93.5502H51.6288V99.3802H50.5728V93.5502ZM51.1008 92.4282C50.8954 92.4282 50.7231 92.3622 50.5838 92.2302C50.4518 92.0982 50.3858 91.9369 50.3858 91.7462C50.3858 91.5556 50.4518 91.3942 50.5838 91.2622C50.7231 91.1229 50.8954 91.0532 51.1008 91.0532C51.3061 91.0532 51.4748 91.1192 51.6068 91.2512C51.7461 91.3759 51.8158 91.5336 51.8158 91.7242C51.8158 91.9222 51.7461 92.0909 51.6068 92.2302C51.4748 92.3622 51.3061 92.4282 51.1008 92.4282ZM56.758 93.4952C57.4987 93.4952 58.0854 93.7116 58.518 94.1442C58.958 94.5696 59.178 95.1966 59.178 96.0252V99.3802H58.122V96.1462C58.122 95.5816 57.9864 95.1562 57.715 94.8702C57.4437 94.5842 57.055 94.4412 56.549 94.4412C55.977 94.4412 55.526 94.6099 55.196 94.9472C54.866 95.2772 54.701 95.7539 54.701 96.3772V99.3802H53.645V93.5502H54.657V94.4302C54.8697 94.1296 55.1557 93.8986 55.515 93.7372C55.8817 93.5759 56.296 93.4952 56.758 93.4952ZM66.7416 93.5502V98.5882C66.7416 99.6076 66.4886 100.359 65.9826 100.843C65.4766 101.335 64.7212 101.58 63.7166 101.58C63.1666 101.58 62.6422 101.503 62.1436 101.349C61.6449 101.203 61.2416 100.99 60.9336 100.711L61.4396 99.8972C61.7109 100.132 62.0446 100.315 62.4406 100.447C62.8439 100.587 63.2582 100.656 63.6836 100.656C64.3656 100.656 64.8679 100.495 65.1906 100.172C65.5206 99.8496 65.6856 99.3582 65.6856 98.6982V98.2362C65.4362 98.5369 65.1282 98.7642 64.7616 98.9182C64.4022 99.0649 64.0099 99.1382 63.5846 99.1382C63.0272 99.1382 62.5212 99.0209 62.0666 98.7862C61.6192 98.5442 61.2672 98.2106 61.0106 97.7852C60.7539 97.3526 60.6256 96.8612 60.6256 96.3112C60.6256 95.7612 60.7539 95.2736 61.0106 94.8482C61.2672 94.4156 61.6192 94.0819 62.0666 93.8472C62.5212 93.6126 63.0272 93.4952 63.5846 93.4952C64.0246 93.4952 64.4316 93.5759 64.8056 93.7372C65.1869 93.8986 65.4986 94.1369 65.7406 94.4522V93.5502H66.7416ZM63.7056 98.2142C64.0869 98.2142 64.4279 98.1336 64.7286 97.9722C65.0366 97.8109 65.2749 97.5872 65.4436 97.3012C65.6196 97.0079 65.7076 96.6779 65.7076 96.3112C65.7076 95.7466 65.5206 95.2919 65.1466 94.9472C64.7726 94.5952 64.2922 94.4192 63.7056 94.4192C63.1116 94.4192 62.6276 94.5952 62.2536 94.9472C61.8796 95.2919 61.6926 95.7466 61.6926 96.3112C61.6926 96.6779 61.7769 97.0079 61.9456 97.3012C62.1216 97.5872 62.3599 97.8109 62.6606 97.9722C62.9686 98.1336 63.3169 98.2142 63.7056 98.2142Z" fill="#172D45"/>
<path d="M49.6667 34.5833V24.9167C49.6667 22.3529 48.6482 19.8942 46.8354 18.0813C45.0225 16.2684 42.5638 15.25 40 15.25C37.4363 15.25 34.9775 16.2684 33.1647 18.0813C31.3518 19.8942 30.3334 22.3529 30.3334 24.9167V34.5833H49.6667ZM23.0834 29.75H56.9167L59.3334 58.75H20.6667L23.0834 29.75Z" stroke="white" stroke-width="3" stroke-linecap="round" stroke-linejoin="round"/>
</svg>
