<svg width="83" height="103" viewBox="0 0 83 103" fill="none" xmlns="http://www.w3.org/2000/svg">
<path d="M2.83732 92.6372H0.19732V91.6802H6.56632V92.6372H3.92632V99.3802H2.83732V92.6372ZM8.48273 94.5292C8.66606 94.1919 8.93739 93.9352 9.29673 93.7592C9.65606 93.5832 10.0924 93.4952 10.6057 93.4952V94.5182C10.5471 94.5109 10.4664 94.5072 10.3637 94.5072C9.79173 94.5072 9.34073 94.6796 9.01073 95.0242C8.68806 95.3616 8.52673 95.8456 8.52673 96.4762V99.3802H7.47073V93.5502H8.48273V94.5292ZM14.0195 93.4952C14.8262 93.4952 15.4422 93.6932 15.8675 94.0892C16.3002 94.4852 16.5165 95.0756 16.5165 95.8602V99.3802H15.5155V98.6102C15.3395 98.8816 15.0865 99.0906 14.7565 99.2372C14.4338 99.3766 14.0488 99.4462 13.6015 99.4462C12.9488 99.4462 12.4245 99.2886 12.0285 98.9732C11.6398 98.6579 11.4455 98.2436 11.4455 97.7302C11.4455 97.2169 11.6325 96.8062 12.0065 96.4982C12.3805 96.1829 12.9745 96.0252 13.7885 96.0252H15.4605V95.8162C15.4605 95.3616 15.3285 95.0132 15.0645 94.7712C14.8005 94.5292 14.4118 94.4082 13.8985 94.4082C13.5538 94.4082 13.2165 94.4669 12.8865 94.5842C12.5565 94.6942 12.2778 94.8446 12.0505 95.0352L11.6105 94.2432C11.9112 94.0012 12.2705 93.8179 12.6885 93.6932C13.1065 93.5612 13.5502 93.4952 14.0195 93.4952ZM13.7775 98.6322C14.1808 98.6322 14.5292 98.5442 14.8225 98.3682C15.1158 98.1849 15.3285 97.9282 15.4605 97.5982V96.7842H13.8325C12.9378 96.7842 12.4905 97.0849 12.4905 97.6862C12.4905 97.9796 12.6042 98.2106 12.8315 98.3792C13.0588 98.5479 13.3742 98.6322 13.7775 98.6322ZM21.5837 93.4952C22.3244 93.4952 22.9111 93.7116 23.3437 94.1442C23.7837 94.5696 24.0037 95.1966 24.0037 96.0252V99.3802H22.9477V96.1462C22.9477 95.5816 22.8121 95.1562 22.5407 94.8702C22.2694 94.5842 21.8807 94.4412 21.3747 94.4412C20.8027 94.4412 20.3517 94.6099 20.0217 94.9472C19.6917 95.2772 19.5267 95.7539 19.5267 96.3772V99.3802H18.4707V93.5502H19.4827V94.4302C19.6954 94.1296 19.9814 93.8986 20.3407 93.7372C20.7074 93.5759 21.1217 93.4952 21.5837 93.4952ZM27.63 99.4462C27.1534 99.4462 26.695 99.3839 26.255 99.2592C25.815 99.1272 25.4704 98.9622 25.221 98.7642L25.661 97.9282C25.9177 98.1116 26.2294 98.2582 26.596 98.3682C26.9627 98.4782 27.333 98.5332 27.707 98.5332C28.631 98.5332 29.093 98.2692 29.093 97.7412C29.093 97.5652 29.0307 97.4259 28.906 97.3232C28.7814 97.2206 28.6237 97.1472 28.433 97.1032C28.2497 97.0519 27.9857 96.9969 27.641 96.9382C27.1717 96.8649 26.7867 96.7806 26.486 96.6852C26.1927 96.5899 25.9397 96.4286 25.727 96.2012C25.5144 95.9739 25.408 95.6549 25.408 95.2442C25.408 94.7162 25.628 94.2946 26.068 93.9792C26.508 93.6566 27.0984 93.4952 27.839 93.4952C28.2277 93.4952 28.6164 93.5429 29.005 93.6382C29.3937 93.7336 29.7127 93.8619 29.962 94.0232L29.511 94.8592C29.0344 94.5512 28.4734 94.3972 27.828 94.3972C27.3807 94.3972 27.0397 94.4706 26.805 94.6172C26.5704 94.7639 26.453 94.9582 26.453 95.2002C26.453 95.3909 26.519 95.5412 26.651 95.6512C26.783 95.7612 26.9444 95.8419 27.135 95.8932C27.333 95.9446 27.608 96.0032 27.96 96.0692C28.4294 96.1499 28.807 96.2379 29.093 96.3332C29.3864 96.4212 29.6357 96.5752 29.841 96.7952C30.0464 97.0152 30.149 97.3232 30.149 97.7192C30.149 98.2472 29.9217 98.6689 29.467 98.9842C29.0197 99.2922 28.4074 99.4462 27.63 99.4462ZM34.5598 93.4952C35.1244 93.4952 35.6304 93.6199 36.0778 93.8692C36.5251 94.1186 36.8734 94.4669 37.1228 94.9142C37.3794 95.3616 37.5078 95.8786 37.5078 96.4652C37.5078 97.0519 37.3794 97.5726 37.1228 98.0272C36.8734 98.4746 36.5251 98.8229 36.0778 99.0722C35.6304 99.3216 35.1244 99.4462 34.5598 99.4462C34.1418 99.4462 33.7568 99.3656 33.4048 99.2042C33.0601 99.0429 32.7668 98.8082 32.5248 98.5002V101.514H31.4688V93.5502H32.4808V94.4742C32.7154 94.1516 33.0124 93.9096 33.3718 93.7482C33.7311 93.5796 34.1271 93.4952 34.5598 93.4952ZM34.4718 98.5222C34.8458 98.5222 35.1794 98.4379 35.4728 98.2692C35.7734 98.0932 36.0081 97.8512 36.1768 97.5432C36.3528 97.2279 36.4408 96.8686 36.4408 96.4652C36.4408 96.0619 36.3528 95.7062 36.1768 95.3982C36.0081 95.0829 35.7734 94.8409 35.4728 94.6722C35.1794 94.5036 34.8458 94.4192 34.4718 94.4192C34.1051 94.4192 33.7714 94.5072 33.4708 94.6832C33.1774 94.8519 32.9428 95.0902 32.7668 95.3982C32.5981 95.7062 32.5138 96.0619 32.5138 96.4652C32.5138 96.8686 32.5981 97.2279 32.7668 97.5432C32.9354 97.8512 33.1701 98.0932 33.4708 98.2692C33.7714 98.4379 34.1051 98.5222 34.4718 98.5222ZM41.4638 99.4462C40.8845 99.4462 40.3638 99.3179 39.9018 99.0612C39.4398 98.8046 39.0768 98.4526 38.8128 98.0052C38.5562 97.5506 38.4278 97.0372 38.4278 96.4652C38.4278 95.8932 38.5562 95.3836 38.8128 94.9362C39.0768 94.4816 39.4398 94.1296 39.9018 93.8802C40.3638 93.6236 40.8845 93.4952 41.4638 93.4952C42.0432 93.4952 42.5602 93.6236 43.0148 93.8802C43.4768 94.1296 43.8362 94.4816 44.0928 94.9362C44.3568 95.3836 44.4888 95.8932 44.4888 96.4652C44.4888 97.0372 44.3568 97.5506 44.0928 98.0052C43.8362 98.4526 43.4768 98.8046 43.0148 99.0612C42.5602 99.3179 42.0432 99.4462 41.4638 99.4462ZM41.4638 98.5222C41.8378 98.5222 42.1715 98.4379 42.4648 98.2692C42.7655 98.0932 43.0002 97.8512 43.1688 97.5432C43.3375 97.2279 43.4218 96.8686 43.4218 96.4652C43.4218 96.0619 43.3375 95.7062 43.1688 95.3982C43.0002 95.0829 42.7655 94.8409 42.4648 94.6722C42.1715 94.5036 41.8378 94.4192 41.4638 94.4192C41.0898 94.4192 40.7525 94.5036 40.4518 94.6722C40.1585 94.8409 39.9238 95.0829 39.7478 95.3982C39.5792 95.7062 39.4948 96.0619 39.4948 96.4652C39.4948 96.8686 39.5792 97.2279 39.7478 97.5432C39.9238 97.8512 40.1585 98.0932 40.4518 98.2692C40.7525 98.4379 41.0898 98.5222 41.4638 98.5222ZM46.9612 94.5292C47.1446 94.1919 47.4159 93.9352 47.7752 93.7592C48.1346 93.5832 48.5709 93.4952 49.0842 93.4952V94.5182C49.0256 94.5109 48.9449 94.5072 48.8422 94.5072C48.2702 94.5072 47.8192 94.6796 47.4892 95.0242C47.1666 95.3616 47.0052 95.8456 47.0052 96.4762V99.3802H45.9492V93.5502H46.9612V94.5292ZM53.9001 99.0392C53.7461 99.1712 53.5554 99.2739 53.3281 99.3472C53.1008 99.4132 52.8661 99.4462 52.6241 99.4462C52.0374 99.4462 51.5828 99.2886 51.2601 98.9732C50.9374 98.6579 50.7761 98.2069 50.7761 97.6202V94.4192H49.7861V93.5502H50.7761V92.2742H51.8321V93.5502H53.5041V94.4192H51.8321V97.5762C51.8321 97.8916 51.9091 98.1336 52.0631 98.3022C52.2244 98.4709 52.4518 98.5552 52.7451 98.5552C53.0678 98.5552 53.3428 98.4636 53.5701 98.2802L53.9001 99.0392ZM57.2998 93.4952C58.1064 93.4952 58.7224 93.6932 59.1478 94.0892C59.5804 94.4852 59.7968 95.0756 59.7968 95.8602V99.3802H58.7958V98.6102C58.6198 98.8816 58.3668 99.0906 58.0368 99.2372C57.7141 99.3766 57.3291 99.4462 56.8818 99.4462C56.2291 99.4462 55.7048 99.2886 55.3088 98.9732C54.9201 98.6579 54.7258 98.2436 54.7258 97.7302C54.7258 97.2169 54.9128 96.8062 55.2868 96.4982C55.6608 96.1829 56.2548 96.0252 57.0688 96.0252H58.7408V95.8162C58.7408 95.3616 58.6088 95.0132 58.3448 94.7712C58.0808 94.5292 57.6921 94.4082 57.1788 94.4082C56.8341 94.4082 56.4968 94.4669 56.1668 94.5842C55.8368 94.6942 55.5581 94.8446 55.3308 95.0352L54.8908 94.2432C55.1914 94.0012 55.5508 93.8179 55.9688 93.6932C56.3868 93.5612 56.8304 93.4952 57.2998 93.4952ZM57.0578 98.6322C57.4611 98.6322 57.8094 98.5442 58.1028 98.3682C58.3961 98.1849 58.6088 97.9282 58.7408 97.5982V96.7842H57.1128C56.2181 96.7842 55.7708 97.0849 55.7708 97.6862C55.7708 97.9796 55.8844 98.2106 56.1118 98.3792C56.3391 98.5479 56.6544 98.6322 57.0578 98.6322ZM65.029 99.0392C64.875 99.1712 64.6843 99.2739 64.457 99.3472C64.2297 99.4132 63.995 99.4462 63.753 99.4462C63.1663 99.4462 62.7117 99.2886 62.389 98.9732C62.0663 98.6579 61.905 98.2069 61.905 97.6202V94.4192H60.915V93.5502H61.905V92.2742H62.961V93.5502H64.633V94.4192H62.961V97.5762C62.961 97.8916 63.038 98.1336 63.192 98.3022C63.3533 98.4709 63.5807 98.5552 63.874 98.5552C64.1967 98.5552 64.4717 98.4636 64.699 98.2802L65.029 99.0392ZM66.3057 93.5502H67.3617V99.3802H66.3057V93.5502ZM66.8337 92.4282C66.6284 92.4282 66.456 92.3622 66.3167 92.2302C66.1847 92.0982 66.1187 91.9369 66.1187 91.7462C66.1187 91.5556 66.1847 91.3942 66.3167 91.2622C66.456 91.1229 66.6284 91.0532 66.8337 91.0532C67.039 91.0532 67.2077 91.1192 67.3397 91.2512C67.479 91.3759 67.5487 91.5336 67.5487 91.7242C67.5487 91.9222 67.479 92.0909 67.3397 92.2302C67.2077 92.3622 67.039 92.4282 66.8337 92.4282ZM71.875 99.4462C71.2956 99.4462 70.775 99.3179 70.313 99.0612C69.851 98.8046 69.488 98.4526 69.224 98.0052C68.9673 97.5506 68.839 97.0372 68.839 96.4652C68.839 95.8932 68.9673 95.3836 69.224 94.9362C69.488 94.4816 69.851 94.1296 70.313 93.8802C70.775 93.6236 71.2956 93.4952 71.875 93.4952C72.4543 93.4952 72.9713 93.6236 73.426 93.8802C73.888 94.1296 74.2473 94.4816 74.504 94.9362C74.768 95.3836 74.9 95.8932 74.9 96.4652C74.9 97.0372 74.768 97.5506 74.504 98.0052C74.2473 98.4526 73.888 98.8046 73.426 99.0612C72.9713 99.3179 72.4543 99.4462 71.875 99.4462ZM71.875 98.5222C72.249 98.5222 72.5826 98.4379 72.876 98.2692C73.1766 98.0932 73.4113 97.8512 73.58 97.5432C73.7486 97.2279 73.833 96.8686 73.833 96.4652C73.833 96.0619 73.7486 95.7062 73.58 95.3982C73.4113 95.0829 73.1766 94.8409 72.876 94.6722C72.5826 94.5036 72.249 94.4192 71.875 94.4192C71.501 94.4192 71.1636 94.5036 70.863 94.6722C70.5696 94.8409 70.335 95.0829 70.159 95.3982C69.9903 95.7062 69.906 96.0619 69.906 96.4652C69.906 96.8686 69.9903 97.2279 70.159 97.5432C70.335 97.8512 70.5696 98.0932 70.863 98.2692C71.1636 98.4379 71.501 98.5222 71.875 98.5222ZM79.4734 93.4952C80.214 93.4952 80.8007 93.7116 81.2334 94.1442C81.6734 94.5696 81.8934 95.1966 81.8934 96.0252V99.3802H80.8374V96.1462C80.8374 95.5816 80.7017 95.1562 80.4304 94.8702C80.159 94.5842 79.7704 94.4412 79.2644 94.4412C78.6924 94.4412 78.2414 94.6099 77.9114 94.9472C77.5814 95.2772 77.4164 95.7539 77.4164 96.3772V99.3802H76.3604V93.5502H77.3724V94.4302C77.585 94.1296 77.871 93.8986 78.2304 93.7372C78.597 93.5759 79.0114 93.4952 79.4734 93.4952Z" fill="#172D45"/>
<circle cx="41" cy="40.3802" r="40" fill="#1B9EB2"/>
<path d="M63.4895 47.648L64.8172 41.0095L47.875 32.5384V25.3444C47.877 23.8044 47.5394 22.283 46.8862 20.8884C46.2331 19.4938 45.2804 18.2604 44.0961 17.276C43.3674 16.6686 42.4487 16.3359 41.5 16.3359C40.5513 16.3359 39.6326 16.6686 38.9039 17.276C37.7196 18.2604 36.767 19.4938 36.1138 20.8884C35.4606 22.283 35.123 23.8044 35.125 25.3444V32.5384L18.1829 41.0095L19.5106 47.648L35.1681 45.606L35.9386 53.6967L28.75 56.7772V63.4062H54.25V56.7772L47.0614 53.6964L47.832 45.6057L63.4895 47.648ZM51.0625 58.8791V60.2187H31.9375V58.8791L39.3323 55.7097L38.3125 45.0024V41.9811L22.052 44.1019L21.7859 42.7718L38.3125 34.5085V25.3444C38.3112 24.2719 38.5463 23.2122 39.0013 22.241C39.4562 21.2697 40.1197 20.4107 40.9445 19.7251C41.1004 19.5951 41.297 19.5239 41.5 19.5239C41.703 19.5239 41.8996 19.5951 42.0555 19.7251C42.8804 20.4107 43.5439 21.2697 43.9988 22.241C44.4537 23.2122 44.6889 24.2719 44.6875 25.3444V34.5085L61.2141 42.7718L60.9481 44.1019L44.6875 41.9811V45.0024L43.6677 55.7097L51.0625 58.8791Z" fill="white"/>
</svg>
