<svg width="404" height="532" viewBox="0 0 404 532" fill="none" xmlns="http://www.w3.org/2000/svg">
<path d="M138.065 524.956L136.82 528.845H135.573L134.949 528.566L134.637 528.286L132.144 527.177L129.651 526.898H129.028L127.782 527.733L127.47 528.286L127.158 529.122V529.399L126.846 529.955L126.535 530.234L125.911 530.788L125.288 530.234H124.977L123.729 531.064L121.236 531.899L120.612 531.623H120.302L119.678 528.845L119.99 528.286L120.612 528.01H122.171L128.716 524.956L129.651 524.121L130.586 523.568L132.768 522.179L134.637 521.067L136.196 520.79L136.508 521.62V522.455L137.132 522.732L138.065 523.291V524.956Z" fill="#D83449"/>
<path d="M187.311 498.289L185.753 499.677H184.195L182.636 500.787L182.012 501.343L181.7 501.899L181.388 501.343L179.519 499.121L179.207 498.842L177.649 498.565L177.026 498.842L172.975 500.787H166.117L164.247 499.677L163.936 498.842V498.289L164.871 496.621L166.117 495.789L170.17 493.843L174.221 493.288L174.845 493.567L176.091 493.843L177.338 495.233L180.142 496.065L185.753 496.344L186.688 496.621L187.311 497.453V498.289Z" fill="#D83449"/>
<path d="M151.157 487.737H149.911L147.416 487.184L150.533 483.018L151.157 482.459L152.715 482.183V482.739L151.78 487.458L151.157 487.737Z" fill="#D83449"/>
<path d="M220.972 471.881L221.283 474.379L219.725 477.435L218.167 479.378L214.426 480.767L213.492 481.043H212.868L210.998 481.322L210.063 481.043L209.439 480.767L207.881 479.655L207.57 479.378L202.583 474.379V473.27L202.895 472.155L203.83 471.601L204.454 471.322H205.076L205.388 471.601L205.7 471.881L206.323 472.155L208.505 471.601L210.063 470.493L210.686 469.655L211.31 469.104L212.245 468.545H214.426L215.672 469.934L217.231 471.042L219.413 471.601L220.972 471.881Z" fill="#D83449"/>
<path d="M370.255 459.121L369.011 460.792L368.697 460.509L364.956 454.123L364.645 453.287L365.893 449.68H366.825L369.321 451.072L369.941 451.622L370.255 452.178V459.121Z" fill="#D83449"/>
<path d="M246.832 447.711L245.901 448.823L245.274 448.546L244.964 448.269L244.029 446.601V446.045L244.343 444.657L244.652 444.103L244.964 443.545L245.901 442.991H248.704L249.949 443.268L250.263 443.545L251.821 445.493L248.704 447.434L246.832 447.711Z" fill="#D83449"/>
<path d="M326.309 380.788L325.998 381.064L323.193 379.955L322.26 379.399L321.323 378.847L321.013 378.567L320.702 378.011L320.389 377.458L320.075 376.068L320.389 375.789L320.702 374.957L321.634 374.401L323.506 374.122L324.44 374.681L325.998 376.068L326.622 376.622L327.246 378.288L327.557 379.399V379.676L326.309 380.788Z" fill="#D83449"/>
<path d="M374.618 361.908H374.307L373.686 361.355L372.439 359.966L372.749 356.354V354.689L373.998 354.412L374.618 355.244L375.866 357.466L376.176 358.022V358.578L375.555 361.078L375.245 361.632L374.618 361.908Z" fill="#D83449"/>
<path d="M377.733 372.457L378.981 373.846L381.477 373.013L382.098 372.734L384.593 373.293L384.28 374.681L383.966 378.568L384.593 379.4L386.772 381.065L387.083 381.345L386.462 381.624V382.178L387.083 382.457H388.02L389.268 383.013L389.579 383.567L389.889 383.846L390.827 384.955L391.136 388.012L390.827 388.568L389.889 389.957L389.579 390.509L385.524 393.567L383.656 394.399L381.787 395.235L381.477 396.064L380.85 396.899L382.721 399.121L383.035 399.401L383.656 399.677L385.837 399.953H386.772L387.083 399.677L386.462 399.401L387.083 398.844L392.695 399.121L393.943 400.233L394.254 401.898L393.316 404.399L392.695 405.508L392.071 405.787L391.447 410.233L394.254 411.621L395.188 410.786L396.432 409.953L397.059 410.233L397.37 410.509L396.432 414.399L396.122 414.951V415.231L393.316 422.731V423.284L393.943 424.672L394.254 425.231L395.188 425.507H395.812L397.059 426.061L400.177 428.838L401.422 430.233L403.293 436.617V439.118L402.666 439.395L401.735 441.059V444.673L402.045 444.948L402.979 445.225L402.045 448.561L397.68 454.116L393.316 456.058H392.695L392.071 456.62L390.513 459.114L391.136 459.947L391.447 460.223L392.071 460.502L392.695 461.059L393.316 461.336L393.63 463.562H392.071L391.447 463.281L391.136 463.004L390.827 462.174L390.513 460.502L390.199 459.67L389.889 458.835L387.71 458.282H387.083L386.772 458.835L385.837 460.502L386.151 461.336L386.772 462.448L387.71 463.004L388.02 463.281L388.641 463.836L389.268 464.669L389.889 465.501L389.268 467.17L388.955 467.728L388.641 468.279L388.331 469.668V477.448L388.02 481.335L387.396 483.003V481.335L387.083 480.78L386.772 480.5L385.213 478.838L383.345 475.501L383.035 474.113L382.721 473.834L381.787 469.668L382.098 468.838L382.721 467.449L383.035 466.057L382.098 462.174L381.477 461.613L380.85 461.336H379.918L378.981 460.785L378.36 459.947L378.046 459.396L377.733 458.282V457.726L378.046 456.893L378.36 456.337L378.046 455.781L377.112 454.116L376.488 453.842L375.243 453.28L374.616 453.004L373.996 452.171L371.813 447.449V446.616L372.126 444.948L372.437 444.396V443.837L372.126 443.56L371.5 443.283H370.568L368.073 444.673L367.138 445.508L365.579 446.616L364.021 448.285V449.114L364.335 449.95L364.645 451.065L364.335 452.171V453.004L363.708 453.56L362.15 455.231L360.905 455.504L359.66 455.231L359.033 455.781L357.474 457.726V459.114L357.788 459.67L356.854 460.785L355.296 462.724L353.737 464.392V464.669L352.799 467.449L353.426 471.335L353.737 471.894L355.917 472.445L356.23 472.168L357.788 473.004L362.15 476.334L366.204 484.392L367.451 487.443V489.947L367.138 492.724L366.514 494.666L366.204 495.222L365.579 496.89L364.021 498.555L363.088 499.111L360.28 501.888L359.346 503.277L359.033 503.833L358.412 505.222L357.165 506.887L355.606 509.108L354.985 509.944V510.22H354.358L353.737 510.496L351.242 510.22L349.997 509.664V508.555L350.621 507.999V507.443L349.683 505.778L349.373 505.222L349.062 504.942L347.194 503.833L345.635 502.721L345.008 500.223L346.566 498.832L348.438 497.166L349.683 494.945V494.112L349.062 491.888L348.752 491.056L348.438 490.78L345.008 490.22L344.077 490.5V491.056L341.271 499.111L340.96 499.388L340.333 499.667L339.402 499.944H335.972L331.297 498.832H330.673L325.687 497.166L317.586 494.112L311.973 491.609L311.352 491.056L311.039 490.5L309.166 490.78L306.677 489.39L303.246 487.169L298.259 481.335L297.014 479.391L296.699 476.89V475.501L297.637 475.222L297.327 471.894L296.699 468.002L294.831 466.614L294.21 466.89H293.897L293.583 466.34L292.962 464.951L293.897 461.059L294.21 459.396L294.831 457.446L295.142 456.893L296.699 454.392L297.327 453.56L297.947 453.004H298.259L299.196 452.727H299.817L301.375 451.892L301.689 451.615L306.05 444.673V444.396L305.429 443.006L304.805 442.73L303.56 443.006L302.002 443.283L301.689 443.006L300.754 442.171L300.444 441.342L300.13 440.23L299.506 438.841L295.769 434.952L295.142 434.399L291.404 433.009L289.846 432.728H285.171L283.613 431.621V430.233L282.675 429.397L281.744 428.838L281.117 428.562L278.314 428.009L278 427.729L276.442 427.173H275.198L272.08 428.838L271.767 430.785L272.704 431.621L273.015 431.895V433.563L272.704 434.673L272.394 434.952L272.08 435.505L271.767 435.787L270.835 436.063L269.898 436.34H269.278L267.092 437.728L266.781 438.283L267.092 438.564L270.208 441.342L271.146 442.171L271.767 442.448L272.08 444.948L270.208 445.508H269.898L268.964 444.948L266.781 443.56L264.912 441.895V441.342L265.223 440.783L265.847 439.67L265.533 439.395L262.417 439.118L262.107 439.395L260.859 440.23L260.548 440.506L261.172 441.059L260.237 441.618L258.056 440.23L257.432 439.67L257.121 438.564L258.369 437.728L259.927 437.452L260.548 437.728L261.172 437.175L260.859 436.34L258.369 432.728L257.742 431.895L255.563 433.84L254.626 434.952L254.315 436.063V437.452L254.004 438.564L253.066 441.342L252.757 442.171L250.888 441.342L247.77 441.895L246.523 443.006H245.275L243.717 441.618V433.84L244.031 433.284L244.344 432.728H245.275V431.895L244.965 431.621L244.031 430.785L241.227 430.233H238.421L237.173 430.506L234.057 432.174L232.498 433.84L232.188 434.116L229.693 437.175L229.071 437.728L226.269 441.895L225.645 442.448V444.396L226.269 444.673L227.513 444.948L226.269 446.896L225.021 448.005L224.398 446.896H223.774L223.462 447.449L223.151 448.005L222.527 450.782L221.903 453.56L221.593 455.504L219.099 461.336L217.541 463.004L216.606 463.562H215.67L213.178 462.724L209.437 461.336L209.127 461.059L208.815 460.785L207.879 459.67L206.944 456.62V454.116L207.879 453.004L208.191 452.453L208.503 451.892L212.554 447.449L212.243 446.337L213.49 443.283L214.424 440.783L215.36 439.395L216.294 438.564L216.606 435.787L216.294 434.673V434.116L215.67 432.728L215.36 432.451L215.67 430.785L217.229 428.285L220.346 423.842L221.903 422.454L223.462 421.895L224.71 421.341L225.645 420.785L229.382 419.953L230.32 419.677H230.941L231.25 419.953H231.878L243.406 418.009H244.031L245.275 417.729L248.706 416.897L249.33 416.62L252.136 414.675L252.446 413.843L251.822 409.674V406.62L253.694 403.843L255.252 402.731L259.927 402.177H260.548L261.486 402.454L263.355 403.01H263.975L264.603 402.731L265.223 402.454L265.847 401.621L267.719 398.011L268.34 395.787V394.955L268.964 394.675L270.522 395.235L274.574 398.288L275.198 398.844L278.314 397.176L281.43 398.288L282.988 399.401L284.86 401.342L286.729 403.843L287.35 405.508L288.908 413.01V415.507L288.288 416.341L284.86 419.118L284.547 419.397L283.302 419.677H282.054L281.43 419.953L280.806 420.506L279.873 421.065L280.186 421.341L279.873 422.731L280.497 423.284L281.117 423.007L281.43 422.731L284.233 421.341L285.171 420.506L285.481 419.677L287.977 417.453L292.962 414.951L294.831 414.399L295.455 414.119H297.637L298.572 414.399H301.689L303.87 413.287L305.119 411.063V410.509L304.492 409.121L304.805 408.565L306.05 406.62V404.119L307.922 400.789L312.284 398.288L314.155 398.565L314.469 399.401L316.959 401.065L318.207 401.621L322.57 403.01L323.506 403.289H323.819L324.13 403.01L324.439 402.731L325.377 401.898L326.308 398.844L325.998 397.176L325.377 396.899L325.063 396.343L324.75 395.787V394.955L325.998 391.621L326.622 387.456L325.998 385.511V384.679L326.622 384.123L327.245 383.567L327.866 383.29L330.673 383.013L334.413 385.234L336.596 386.902L336.906 387.733L338.775 389.68L339.402 389.957L340.333 389.68L341.58 389.121L342.205 388.845L347.194 383.567L353.426 383.846H354.047L354.672 383.567L355.296 383.29L356.854 382.734L357.165 382.457L357.788 381.065V379.677L357.474 375.79L356.544 372.734L356.23 371.625L354.047 365.791L352.179 361.071L351.242 359.125L351.555 356.626V355.517L351.869 354.682L353.113 353.016H354.047L355.606 353.57L358.102 354.682L359.033 356.071L360.28 359.404L361.529 360.237L361.84 360.513L366.204 361.901H366.824L367.451 362.181L369.941 362.46L373.371 364.402L374.306 366.07L372.747 366.903V367.459L377.733 372.457Z" fill="#D83449"/>
<path d="M381.163 354.694L377.733 354.97L373.996 351.639L374.93 349.695L377.733 344.417L378.36 343.584L378.671 343.308H379.291L379.918 345.25L381.163 348.862L381.477 349.972L382.408 351.083L383.656 352.472L383.346 353.304L383.035 353.582L381.163 354.694Z" fill="#D83449"/>
<path d="M362.464 352.173L361.84 352.452H359.033L359.66 351.063L360.592 349.675L360.281 347.73L355.607 343.565L354.672 342.175L354.359 341.34V341.064L355.917 334.121L360.281 328.843L360.592 328.566H361.218L362.464 330.231L362.778 331.344L361.84 336.341V339.675L362.151 341.34L362.464 341.899L363.708 343.009L364.335 349.675V350.785L363.398 351.34L363.088 351.896L362.464 352.173Z" fill="#D83449"/>
<path d="M280.186 376.347L281.744 379.125V379.401L281.43 379.957L280.497 380.513L277.69 381.345H275.821L275.511 381.066L272.08 378.848L271.456 378.013L271.146 377.736L271.456 376.901L272.08 376.624L273.015 376.901L274.883 376.347L275.511 376.07L276.442 375.512L276.755 374.958V374.403L277.069 373.57H278.314L279.248 374.403L280.186 376.347Z" fill="#D83449"/>
<path d="M346.88 349.401L346.567 349.681L345.322 349.124L340.334 344.123L339.713 343.293V341.069L340.023 340.515L343.764 341.625L346.567 346.347L347.194 348.569V349.124L346.88 349.401Z" fill="#D83449"/>
<path d="M312.596 344.696L313.53 344.973H315.088L316.025 345.526L316.646 346.084L316.958 347.193L317.271 349.971V351.083L316.336 351.639L315.398 352.471L316.646 353.304L317.895 353.861L318.205 355.528L317.585 356.637L315.398 356.917L314.154 356.082L310.413 359.695L308.235 361.083L306.676 361.636L305.739 361.913L304.804 362.192L297.636 362.748H296.078L291.713 362.192L287.663 361.083L284.859 357.47L284.546 356.082V353.304L288.597 350.527L291.713 349.139L292.338 348.862L295.141 347.473L298.884 343.028V342.472L299.505 341.639L302.001 341.359H306.363L308.855 341.639L310.724 343.584L312.596 344.696Z" fill="#D83449"/>
<path d="M367.45 319.975L365.892 320.255L365.265 319.975L361.838 318.309L361.528 317.753V316.641L362.149 315.529L362.776 315.253L363.706 315.529L367.761 318.586L368.072 318.865L367.761 319.975H367.45Z" fill="#D83449"/>
<path d="M316.338 298.3L318.831 298.852L321.634 298.3L322.882 297.464L323.82 297.187L325.688 295.523L327.557 293.854H331.611L332.542 294.961L332.856 295.798V299.964L335.038 302.185L335.659 308.851V311.35L335.348 312.185L334.414 314.128V316.351L334.727 318.852L336.596 319.962L337.531 320.241L340.334 323.571L341.892 326.072L341.271 326.628L342.206 329.961L344.388 331.626L345.009 332.182L345.636 333.85V335.239L345.322 336.348L339.713 339.681L338.155 338.293L337.531 337.181L336.286 334.683L335.972 333.85L335.348 332.738L334.727 332.462H333.479L334.1 337.46L335.038 340.516L335.972 343.294V344.683L335.348 345.236L333.79 344.96L328.181 341.626L324.75 339.405L325.688 335.516V334.404L324.75 333.571L323.82 332.738L323.193 331.626V329.405L324.13 327.737L324.75 326.908V325.239L326.309 322.182L325.998 319.684L325.378 318.572L325.064 317.463L324.13 316.351L321.323 312.185L320.702 311.629L318.517 309.962L317.273 309.41L316.338 309.132L315.4 310.24V311.074L315.714 312.462L315.09 313.297L314.779 314.128L314.155 314.686L312.911 314.964L310.104 313.018L309.167 310.798V301.078L307.608 299.128L306.988 298.3L304.806 292.465L304.181 290.244L305.43 288.855L314.47 294.961L315.09 297.187L316.338 298.3Z" fill="#D83449"/>
<path d="M316.338 292.17L312.598 292.731L311.04 292.17L310.726 291.894L309.167 289.673L306.051 284.951L309.48 283.562H311.353L311.974 283.838L314.156 284.674L317.273 289.392L317.586 289.954L317.897 290.229L317.586 290.781V291.342L317.273 291.618L316.338 292.17Z" fill="#D83449"/>
<path d="M326.622 289.977H325.998L325.378 289.697L324.13 288.586L321.947 283.586V282.751L326.936 287.475V289.416L326.622 289.977Z" fill="#D83449"/>
<path d="M340.022 251.356L341.891 252.467L345.008 254.966L345.945 256.633L345.321 257.187L344.697 259.132L345.008 261.077L346.565 261.909L347.813 261.353L348.751 261.077L351.555 262.187L353.736 264.13L354.047 265.519L352.799 265.797L351.241 267.466L351.555 268.019L354.358 269.685L353.426 270.797L352.488 271.351L351.868 272.185L350.931 273.577V275.517L351.555 278.294L352.179 284.686L351.868 286.075V286.907L355.295 292.181L357.164 293.851L358.102 294.131L359.97 295.795V296.627L359.032 297.736L357.474 298.297L356.23 299.405L355.916 300.516L356.23 301.904L358.722 301.626L358.411 300.516L361.217 301.349L362.15 302.462L364.645 306.07L365.266 307.739L364.955 308.293L364.334 308.018L363.397 307.458L362.463 306.351L361.839 305.516L362.15 304.682L361.217 303.571L357.474 303.293L355.295 303.852L353.112 305.24L345.008 304.404L341.891 302.462L340.646 299.686L340.022 299.124L339.088 298.849H336.906L333.789 296.347L333.168 293.851L332.541 292.742L329.424 292.181H327.245L326.621 291.073L326.935 290.24L329.114 288.296H330.672L331.61 288.015L333.168 286.626L335.037 282.185L334.726 281.35L333.478 280.521L327.556 279.408L323.819 276.354L320.388 272.185L319.144 271.351L318.516 271.073L316.337 270.522L312.283 269.409L311.352 268.855L311.038 268.019L310.103 267.185L307.922 265.797L305.739 262.187L303.246 255.799L302.002 252.467L303.246 251.633L306.05 253.021L310.725 253.299L318.516 253.855L321.633 253.577L322.57 253.299L327.245 252.467L328.18 251.911L334.413 252.467L335.971 251.911L336.595 250.8H338.775L340.022 251.356Z" fill="#D83449"/>
<path d="M266.783 369.397L265.849 369.673L264.914 369.397L264.291 366.896L264.914 364.119L266.473 356.064L267.408 352.454H268.342L268.653 350.51L267.721 349.954L267.408 348.009L268.966 345.788L269.59 345.232L270.837 344.12L272.706 342.454L274.576 339.124L276.757 334.399L277.691 333.846L279.25 332.178L280.808 328.844V327.732L281.119 326.623L282.99 323.566L284.235 321.901L285.794 319.68L287.042 317.179L287.666 316.346L288.6 313.292L291.096 306.902L290.782 305.79L290.469 304.68V303.57L292.964 300.236L294.523 299.96L295.457 301.073L294.523 302.461L293.275 305.79L293.899 308.292L294.523 309.958L295.144 314.682L294.212 317.735V324.402L293.899 330.51L293.275 332.178L293.899 333.01L293.275 334.122L291.716 335.234L284.862 338.844L283.614 339.124L281.432 341.342L278.315 344.955L277.691 346.62V348.565L278.002 349.677L277.071 352.174L275.823 353.286L274.265 354.952L273.328 358.008V359.677L271.769 363.563L270.21 365.508L267.408 368.841L266.783 369.397Z" fill="#D83449"/>
<path d="M236.554 331.622L235.617 332.178H234.682L233.747 332.458L232.81 333.29H231.879L230.007 330.51V330.234L231.565 326.624L231.879 326.344L232.499 325.235L235.617 321.902L237.174 320.513H237.798L239.67 321.626L239.981 322.458L240.291 324.402V325.235L238.422 329.401L237.798 330.51L236.554 331.622Z" fill="#FFD045"/>
<path d="M260.55 348.576L259.615 349.688L258.371 351.076V351.632L257.744 354.133L258.057 354.687L258.371 356.91L258.682 358.575V359.129L258.371 360.518L258.057 360.797H256.813L256.499 361.629L258.371 364.684L259.929 367.184L262.109 369.129L264.604 371.909L265.224 372.462V373.851L264.604 376.351L264.291 376.628L263.667 377.74L262.419 379.405L260.239 381.349L258.991 382.462L257.744 383.295L252.758 383.851L251.824 383.295L249.642 382.183L248.394 379.961L247.772 378.017L247.149 376.351L246.836 375.516V373.574L246.525 373.018L244.032 371.909H243.408L240.916 371.35H239.357L238.733 371.073L237.175 370.519L235.617 369.684L235.306 369.129L234.369 368.852L233.124 367.463L230.632 364.684L227.515 361.076L226.894 358.299L227.204 355.798L229.073 349.132L231.252 348.855H232.5L234.058 349.132H235.617L235.928 349.409L237.799 349.132L238.733 348.855L243.408 346.907L244.032 346.077H244.346L245.904 344.69V342.465L245.591 336.354L244.656 332.189V328.023L245.277 327.744H245.904L246.525 326.914L248.083 325.525L249.642 322.468L249.952 320.8V318.302L249.642 317.746L249.331 317.19V314.97L251.511 313.858L258.991 310.805H260.55L272.395 313.024L274.575 316.358L274.885 316.914V318.302L270.837 328.579L270.21 329.132L268.966 329.968L268.342 330.244L268.032 330.521L267.094 331.08L266.472 331.633V331.909L266.162 332.468V333.301L265.535 337.467L265.224 338.855L263.667 343.022L262.733 344.69L261.798 346.907L261.174 347.743L260.55 348.576Z" fill="#FFD045"/>
<path d="M219.101 281.631L226.58 285.518L231.252 289.404L234.058 291.906L238.733 289.965L240.602 288.852L244.032 288.574L246.525 291.073L246.835 293.018L245.59 294.131L246.213 294.958H247.149L251.2 292.743L254.005 291.354L255.564 290.517L256.499 289.404L257.123 288.574L258.057 289.965L257.433 296.071L257.123 297.184L255.254 302.182L256.185 303.293L256.499 304.682L249.021 309.407L246.213 309.959L242.474 311.626L240.291 313.015L242.16 314.404V316.072L241.229 317.736L240.291 318.569L235.928 318.293L234.368 321.346L230.321 323.014L226.27 323.568L220.971 324.126L218.789 324.957L214.426 327.18L213.803 328.013L213.179 329.122L212.555 330.234L211.309 331.623L210.686 332.179L209.128 333.291L207.88 333.012L206.946 332.735L206.322 331.9L206.946 329.958L207.88 329.122L208.504 328.013L208.816 325.793L209.128 324.403V323.291L208.192 321.346L207.258 319.403L208.192 316.904L209.439 314.125L210.062 313.294L211.309 311.626L212.245 310.236L211.933 308.293L211.621 306.904L211.309 304.96L211.933 302.739L211.621 299.405L211.933 296.627L212.555 293.851L213.803 289.129L214.114 287.463L213.803 285.238L212.867 284.408L209.128 283.574L207.57 283.297H206.011L204.764 283.574L203.517 283.297L205.076 278.019L207.88 276.906L208.504 277.186L209.75 277.743L210.997 278.853L212.245 279.962L214.114 280.521L215.671 280.797L218.166 281.35L219.101 281.631Z" fill="#FFD045"/>
<path d="M237.483 262.483L235.926 264.149L232.187 260.817L231.563 260.539L230.006 259.983L229.071 259.706H228.45L228.136 259.429L227.826 259.151L227.202 258.873L226.892 258.04L227.202 257.206L228.45 256.095L229.382 255.817L231.25 255.541H234.68L236.239 255.817L236.863 256.095L238.11 258.04L238.421 258.595L238.731 259.151L238.421 260.539L238.11 261.649V262.205L237.483 262.483Z" fill="#FFD045"/>
<path d="M211.62 267.752L210.372 270.807L208.191 268.865L207.879 268.03L206.321 263.587V262.752L206.945 260.809L208.815 259.421L209.127 259.143L209.749 257.754V256.087L209.437 253.31L209.127 253.032L209.437 251.921L210.996 250.811L214.424 249.144L215.36 250.811L215.048 253.032L214.112 258.865L211.62 267.752Z" fill="#FFD045"/>
<path d="M2.80403 429.126H2.49281L1.87037 428.846L0.933653 426.627L0.311218 425.239L0 424.127V420.237L0.311218 419.961L4.67494 419.126L5.29666 419.961L5.92072 425.515L4.98706 426.904L4.67494 427.737L4.363 428.016L2.80403 429.126Z" fill="#FFD045"/>
<path d="M14.6463 415.491H14.0238L13.4 414.659L13.088 414.103V411.326L13.4 410.77L13.7119 410.217L15.2703 409.937L16.5167 411.047L16.8286 411.605L16.5167 414.659L15.8942 414.935L14.6463 415.491Z" fill="#FFD045"/>
<path d="M120.303 332.471H119.679L118.433 332.192L116.875 329.694V329.135L117.186 328.582L117.497 328.306L120.614 326.358H123.108L127.159 326.918L127.783 328.306L127.159 329.415L124.354 331.36L122.484 331.913L120.303 332.471Z" fill="#FFD045"/>
<path d="M107.211 299.397L107.835 299.954L108.458 299.397L109.394 299.954V302.174L108.769 303.564L106.587 312.174L106.277 313.007L105.965 316.34L107.211 318.005L108.146 318.562L109.394 317.729L110.64 318.285L110.952 321.895L111.886 323.839L114.691 328.838L115.627 329.95L114.069 330.783L110.016 333.839L106.277 334.949H104.718L102.224 336.061L99.4194 337.449L98.4857 338.559L96.6148 340.505L96.3027 341.059L95.369 343.004L95.6795 344.113L94.7444 346.06L94.1204 346.89L92.2523 347.725L84.4607 349.671H82.2784L80.7199 349.391L75.733 351.615L72.9283 357.446V359.391L73.8626 360.501L75.4211 361.612H74.7987L70.4355 366.613L63.2662 374.389L58.5911 378.555L57.9687 379.111L51.736 379.943L50.177 380.223L47.9947 383.833L45.8131 387.443L43.9443 389.944L42.6964 390.22L40.2037 391.332L39.2692 391.885L35.8405 394.386L34.9047 395.774L33.6582 396.886L28.6713 397.998L24.6203 401.052L20.8795 403.553L17.7628 404.106L15.5821 405.495L12.4654 408.272L10.595 409.94L9.66064 409.661L11.5294 402.997L12.1535 401.329H12.4654L13.0878 399.664L16.5165 395.222L17.7628 394.662L20.8795 392.444L22.1274 390.496L23.9962 388.278L29.9191 382.445L35.2167 378.835L40.2037 375.777L42.0739 375.499L43.3204 375.777H45.1906L49.2419 372.445L57.9687 364.113L58.2792 362.724L62.0197 359.391L62.9543 358.835L64.2021 358.558L65.7605 357.169L69.4996 353.28L71.0579 351.335L71.6819 349.671L71.9939 348.559L75.733 344.113L76.045 346.06H75.1106L76.045 348.003L76.6688 348.279V348.003L77.6034 347.449L78.5378 344.949L77.9153 344.672L77.6034 342.448V341.615L80.096 341.059L80.7199 341.335L82.9022 341.059L85.7063 337.17L86.0189 335.228L84.7712 336.061L84.1487 335.228L86.3294 332.451L89.7581 333.283L91.3158 334.672L92.8748 333.56L98.7955 327.173L99.4194 326.337L100.043 322.171L98.7955 320.23H97.5492L95.369 316.617L95.0564 313.286L96.9268 313.563L103.16 320.783L103.783 321.619V322.171L104.718 321.895L104.095 318.285L103.16 316.617H101.912L100.978 316.34L100.043 315.785L98.7955 313.84L98.4857 312.727V311.618L99.7315 308.01L100.666 308.84L101.29 310.229L102.536 310.787L103.471 310.509L103.783 306.622V303.286L103.471 301.896V300.508L103.783 299.117L105.653 296.064L106.899 296.34V298.009L107.211 299.397Z" fill="#FFD045"/>
<path d="M120.612 297.733H119.678L117.807 296.906L116.873 296.345L116.249 295.793L115.627 294.404L119.678 292.459L121.236 292.74L122.17 293.015V294.955L121.86 295.517L121.548 296.625L120.612 297.733Z" fill="#FFD045"/>
<path d="M125.913 287.456H125.289L124.979 286.619L124.667 283.567L122.173 278.565L121.862 277.179L122.173 276.069L122.484 275.51H123.42L127.783 277.179L128.406 277.735L130.276 279.677L129.341 280.235L129.03 280.79V281.623L129.653 282.178L130.276 282.453L129.653 284.4L129.03 284.955L127.471 286.619L127.159 287.178L125.913 287.456Z" fill="#FFD045"/>
<path d="M134.329 270.236L135.262 270.514L136.509 269.677L137.445 268.011L141.184 271.624L141.496 272.454V274.958L139.938 275.231H136.509L135.574 274.68L134.329 273.569L132.77 273.843L133.081 274.401L132.146 275.509L131.523 276.069L130.9 275.509V274.958L130.588 274.401H129.964L129.341 274.68L129.03 274.958L128.095 275.231L126.225 273.843L124.979 272.177L121.55 265.789L122.172 263.012L122.796 262.457H123.42L124.043 262.733H124.667L131.212 267.177L132.458 268.847L134.329 270.236Z" fill="#FFD045"/>
<path d="M156.767 219.98L157.703 220.258L164.87 218.592L167.053 218.038L167.987 218.314V220.258L169.545 221.925L170.48 222.203L171.104 222.48L174.532 222.203L175.778 221.925L177.337 222.48L180.766 224.702L188.869 231.923L189.18 235.536L188.557 236.092L188.245 236.925V246.367L188.557 246.923L189.491 247.756L190.427 248.312L191.049 249.979L191.361 252.2L189.491 253.867L188.557 254.699L187.621 255.255L186.687 255.81L185.44 258.311V259.975L186.375 261.365H184.194L182.635 262.753L177.649 266.089L173.596 265.53L172.662 264.141L172.974 263.031L173.285 262.476L172.038 261.92L171.728 262.198L167.675 258.865L165.805 256.088L165.182 254.977L165.805 253.867L165.494 252.2L164.558 250.533L162.377 248.034L161.442 247.756H160.195L159.571 245.813V240.81L158.325 236.925L158.013 236.092L157.391 235.536L155.52 232.478L153.962 230.535L151.469 229.423L150.533 229.146H149.599L143.053 223.868L141.807 223.592L141.183 223.036L140.249 221.925L139.625 221.092L140.561 219.98L141.183 219.426L142.43 218.592L143.677 218.314L144.612 218.038L154.586 219.426L156.144 219.702L156.767 219.98Z" fill="#FFD045"/>
<path d="M286.728 265.256L288.287 266.092L293.896 273.865L295.141 278.587L295.454 283.311L294.83 283.588L292.338 280.811L291.093 279.698L288.908 278.309L286.418 277.201L285.48 276.645L283.922 276.369L276.13 269.977L275.51 269.147L274.882 268.033L272.703 265.811H270.207L268.963 266.092L265.222 270.258L261.171 274.702L260.547 275.531L258.055 277.201H257.431L256.81 276.091L259.299 271.365L260.858 268.589L263.043 264.7L261.795 261.091L260.236 251.925L260.547 251.092L263.974 252.203L269.587 254.424L273.014 256.647L277.999 260.535L283.922 264.422L286.728 265.256Z" fill="#0A63AC"/>
<path d="M283.302 260.52H282.989L280.807 258.575L280.497 258.298L278.938 256.632L276.442 253.02L274.264 250.243V249.41L274.574 249.132L276.442 248.3L279.248 250.243L280.186 250.799L280.497 251.077V251.632L281.744 254.409L283.302 259.686V260.52Z" fill="#0A63AC"/>
<path d="M266.161 247.757L265.534 248.035L263.355 246.09L259.3 242.758L251.509 236.926L249.64 236.645L248.082 235.537L247.461 232.76L249.951 231.09L250.264 231.371L252.136 231.649L252.757 232.479L256.184 237.204L259.614 239.981L261.797 242.48L265.847 246.924L266.161 247.757Z" fill="#0A63AC"/>
<path d="M214.114 222.211L214.426 222.766H215.05L215.362 223.322L211.621 228.321L210.374 229.709H209.128L208.505 229.431L203.83 226.654L202.583 224.989L201.959 223.322L201.647 221.1V220.545L203.83 217.212L209.439 216.934L210.686 217.489L213.492 219.434L214.426 220.267V220.823L214.114 221.377V222.211Z" fill="#0A63AC"/>
<path d="M139.002 209.702V212.202L138.69 212.757L137.754 211.645L135.261 210.257H134.637L132.768 209.425L131.832 208.591L131.521 208.314L131.211 208.036L130.587 206.091L131.211 205.537H131.832L133.391 206.091L136.508 207.202L137.132 207.758L138.066 208.314L139.002 209.702Z" fill="#0A63AC"/>
<path d="M219.099 173.044L218.787 173.322L216.918 171.933L215.67 171.377L213.49 170.544L213.178 170.266L212.554 168.878H217.229L219.099 170.822V173.044Z" fill="#0A63AC"/>
<path d="M210.685 163.046L210.996 164.435L210.685 164.713L210.372 163.88L209.749 163.324L209.127 163.602L208.191 164.713L207.257 166.658V167.768L207.569 168.323L208.191 169.157L209.437 169.99L210.061 173.601L209.437 174.712L208.815 175.266L207.879 176.1L206.633 176.655L206.321 176.933L206.01 176.655H205.386L205.074 176.1V175.544L204.762 174.712L205.074 173.323L205.386 173.878H206.01V173.045L205.698 172.212L205.074 170.824L203.204 167.49L201.646 165.824H200.711V164.991L201.023 163.602L201.335 163.324L201.958 161.936L202.27 161.658L206.01 160.825L207.257 161.103L208.191 161.38L209.127 161.658L210.372 162.768L210.685 163.046Z" fill="#0A63AC"/>
<path d="M177.337 30.5658L182.323 33.3452L190.427 37.2344L192.608 38.067L199.153 40.2884L201.023 40.8444L202.893 41.1223L204.452 41.4005H205.698L207.569 40.8444L208.191 40.2884L211.932 37.2344L212.244 35.2897L212.554 34.7338L213.178 32.5124L213.802 31.9565H215.982L216.606 32.2319L220.035 37.2344L220.346 37.7891L220.658 39.7338V41.1223L220.035 41.9551L218.787 43.3437L217.541 44.7317L217.229 45.0098L216.294 45.5664L215.982 45.8431L214.736 46.9551L214.112 48.6204L214.424 50.0083L215.048 50.2863V51.121L214.736 53.8984L214.112 55.563L213.49 57.5077L213.178 58.6183V59.453L214.112 65.8424L214.424 66.3957L215.982 71.1163L217.229 73.8936L217.853 75.007L219.411 75.8409L220.346 76.119L221.281 75.8409L224.71 78.3402L224.398 82.5063L225.021 83.3389L225.957 83.8949H227.513L227.826 83.6169L228.45 83.3389L229.071 84.7275L228.45 86.6722L226.578 92.7822L225.021 96.3929L220.346 104.727L219.723 105.557L219.099 106.116L218.165 106.669L216.294 109.723V110.001L216.606 110.559L216.918 110.838H217.229V112.503L216.606 115.836L216.294 116.947L215.982 117.225L214.112 119.17L213.802 119.446L213.178 120.002L212.244 120.558L211.62 121.113L211.932 121.669L210.061 123.335L209.749 123.89L208.191 124.724V123.612L208.815 122.502L209.127 122.223L209.437 121.947L210.685 120.558L211.308 120.002L211.932 119.446L212.554 118.057L213.802 116.392L211.932 116.114L210.996 116.947V118.057L208.815 119.446L207.257 120.28L206.321 120.835L199.465 123.612L198.53 123.057L197.594 123.335L194.79 125.557L191.049 128.89L190.427 129.445L190.115 130.001V131.111L189.803 131.944L190.115 132.778L190.427 134.167L190.737 134.721L191.049 134.999L191.673 135.277L192.296 134.999L193.543 135.277L193.854 135.833V136.666L191.985 139.446L187.932 143.887L184.194 149.166H183.882L183.57 150.274L183.258 150.833V151.943L184.194 153.611L184.816 154.721L185.44 155.555L186.375 155.832L187.62 156.665L190.115 162.22L191.361 166.108L191.673 167.497L191.985 168.053L192.608 169.718L193.543 170.83L193.854 171.385L196.348 174.44L192.919 175.551L192.608 175.829L192.919 177.217V177.773L194.166 182.216L195.724 186.105L197.283 187.494L197.594 188.048L199.153 191.384V191.659L198.842 192.773L198.53 193.051L197.907 193.603L198.219 193.883L199.153 195.272L199.465 195.55L205.386 199.716L206.945 200.546L207.257 200.827L209.437 201.659L210.372 201.937L213.178 203.048L214.736 203.326L215.36 203.048L216.606 203.326L218.477 203.882L219.099 202.771L221.281 201.383L221.593 199.994V199.438L219.723 198.327L218.165 197.217L217.229 196.939L216.294 195.828L215.67 194.992V194.439L219.411 191.106L220.035 190.825V192.215L219.723 192.495V195.272L221.281 196.105H222.215L223.151 195.55L223.463 194.992L222.839 194.161L222.527 193.883V192.495L223.775 190.825L224.398 190.271L227.202 188.048L228.137 187.216H229.693L230.941 187.494L233.436 188.329L236.553 187.216H237.797L240.29 187.77L243.407 189.437L244.031 189.717L246.834 192.215L251.199 196.939L253.694 200.827V203.604L253.38 204.16L252.757 204.714L252.446 205.271L252.136 206.381L251.822 207.214V207.77L252.136 208.048L253.694 209.158L254.626 209.436L254.939 210.269V210.825L254.004 211.935L255.253 210.547L260.859 209.158L262.731 207.214L263.044 206.381V205.549L261.797 202.215L260.859 201.659L259.614 200.827L259.3 200.546L258.989 199.438L261.173 197.769L263.665 196.105L264.289 196.38L265.847 198.327L266.781 199.994L268.34 200.827L273.326 202.493L277.69 203.604L287.664 206.937L289.536 208.048V208.603L289.846 209.436L289.536 209.714L282.989 210.547H281.43L279.248 209.991L275.198 209.436H274.263L273.639 209.714L273.015 210.269L272.394 211.379L271.767 213.325V215.269L272.08 215.546L275.821 218.323L277.379 218.601H277.69L278.938 219.989L280.186 222.489L280.806 224.155L282.365 224.989L283.302 225.266L283.613 225.824V226.654L284.234 227.214V226.654L284.861 226.378L285.792 227.488L285.171 227.766H283.923L283.302 227.488H282.675L282.365 227.766L282.054 228.043L281.43 229.155L281.117 229.71V230.268L281.43 233.046V233.876L282.054 234.157L282.675 234.434H283.302L284.547 233.046L285.481 231.657L285.792 231.098L286.106 230.82H287.04L290.156 232.209L291.094 232.487L291.714 233.321L292.025 233.876L292.652 234.434L294.521 235.545H295.142L295.455 234.712V234.157L295.769 233.598L296.39 233.321H298.572L298.886 233.598L299.196 233.876V235.264L297.637 237.212L296.39 239.43L297.637 241.378L297.948 243.044L297.327 246.932L297.014 248.321L295.455 252.487L295.142 253.042L293.273 253.32H292.025L291.404 253.042L290.467 252.487L286.42 249.154L285.792 247.487L285.171 246.376L284.861 242.488L285.792 241.1L286.729 241.378L287.35 241.656L288.598 241.932L292.025 240.819L292.339 240.544L292.652 240.267L293.273 238.878V238.6L292.963 238.042L292.339 237.49L287.04 237.212L286.729 237.49L286.42 238.322L285.481 239.989L284.234 240.819L283.302 241.378L280.186 241.656L276.442 240.544L274.574 239.711L271.146 237.49L270.522 237.212L268.964 235.545L267.406 234.986H267.093L265.533 235.545L264.912 235.823L264.289 236.101H263.665L263.044 235.264L262.417 234.712L262.107 232.209L262.417 231.098L263.044 229.99L260.237 225.824L258.68 222.489V221.656L258.369 221.1L257.742 220.267L256.811 219.989L255.563 219.157L252.757 218.323L252.136 218.046L250.578 217.49H249.33L245.589 215.546L243.407 213.603L243.096 213.046V212.768L244.344 211.379L244.031 210.547L243.407 209.714L240.601 207.77L234.057 203.882L231.878 202.215L230.32 202.771L229.382 205.825L228.761 210.825V211.379L229.693 213.046L232.809 217.212L234.057 218.323L234.994 219.157L235.616 220.267L236.24 221.1L236.553 221.934L236.864 223.044L237.797 227.488L238.111 228.321V228.602L234.681 230.544L234.057 230.82H233.122L232.188 229.99L230.63 228.321V224.989L230.32 224.155L229.382 221.934L225.645 217.768L222.527 215.546L221.903 214.991L220.035 214.713L219.099 214.991L217.541 214.713L216.294 212.214L213.49 208.881L211.62 208.326L205.386 205.549L201.958 203.882L201.646 203.604L201.335 203.326L201.646 202.493L198.842 201.659L197.594 201.383L196.66 201.659L187.62 206.381L187.31 206.937L186.375 208.048L186.063 208.603V209.436L184.194 212.768L182.946 213.046L182.011 213.881L179.518 215.546L177.649 214.157L175.778 213.603H174.844L173.596 213.881L170.479 213.046L170.791 211.103L170.169 209.436L169.857 209.158L168.921 208.881L167.987 208.603L167.052 208.881H165.182L164.87 205.825L164.558 204.993L163.936 204.437L163.624 204.16H163.312L158.637 203.048H157.39L156.454 203.326L156.144 203.604L154.274 205.549V206.937L154.585 207.492L154.896 208.326V208.603L154.274 209.158L153.027 207.492L152.715 204.993L152.403 202.493L152.715 201.659L152.091 196.105L150.845 195.272L151.469 192.495V191.936L153.027 190.547L153.338 190.271L153.962 189.995H154.896L156.144 189.717L158.013 188.607L158.637 188.329L161.441 185.827L163.936 183.605L167.052 182.772L167.363 182.216L167.675 181.383V179.995L166.428 177.217L166.116 176.661L165.804 176.107L165.182 175.551L164.87 174.996L164.246 174.44L163.312 173.884L161.441 172.219H159.571L158.637 172.495H158.013L154.896 171.941L152.403 170.552L150.221 169.718L149.598 169.996V174.162L149.911 174.718L150.845 176.107L152.091 181.105L152.403 181.939L152.091 182.494L151.779 183.327L151.157 184.161L150.221 184.717H149.286L147.416 184.439L145.858 184.161L143.365 183.605L143.053 183.05L142.741 181.661V180.827L140.248 177.217L139.625 176.939L137.754 174.996L137.444 174.44L137.754 173.329V171.941L138.69 171.663L139.313 170.552L137.444 169.163L136.197 169.718L135.885 170.274L135.573 171.941L135.261 172.495L134.637 172.773L133.704 173.051L132.769 172.495H132.457L130.899 171.385L129.652 167.497V165.275L129.963 163.887V161.664L129.652 159.721L129.029 157.22L127.782 153.611L127.47 153.051L125.912 150.555L124.978 149.166L123.73 148.334L123.419 147.497L123.107 147.219L123.419 145.553V145.001L125.6 143.887L123.73 140.275L124.042 137.222L123.107 133.611L123.73 132.222V131.667L121.549 127.502L119.991 128.056L119.679 128.89L118.12 129.167L117.496 127.778V119.724L118.744 114.448L119.055 113.891L119.367 113.337L120.303 112.778L122.795 111.39L124.354 111.948L124.666 112.778V113.891L124.042 115.558L124.666 117.225L127.782 119.446L131.211 121.947V122.502L131.522 123.612L132.457 124.168L133.704 125.001H136.82L137.754 124.724L138.69 124.446L140.871 123.335L142.119 122.78L143.677 121.391L144.299 120.28L144.612 120.002L144.299 118.613L143.677 117.225L143.053 116.392L142.119 115.558L141.183 110.281L140.248 104.727V102.78L142.119 94.4482L143.053 94.1715L143.365 93.6156L145.546 90.2815V86.9502L144.612 82.5063V81.9502L145.546 75.5629L145.858 74.4523V73.6184L144.299 70.0083L143.053 68.8977L142.43 69.1756H142.119L141.183 68.339L140.871 67.7871L141.807 65.2837L142.119 63.6184L143.053 63.3403L144.299 62.7843L144.923 61.6763L145.546 58.3403L145.235 54.4524L146.482 48.8984L148.04 44.7317L148.352 44.1778L148.663 43.8997L149.598 42.5111L151.157 40.0117V39.4558L151.469 38.067V37.2344L151.157 36.1225L150.533 35.0118L150.221 34.4571L149.911 33.9011L150.221 33.3452L150.533 32.7905L152.403 31.4018L153.962 31.6798L154.274 31.9565L155.208 32.2319H156.766L157.39 31.9565L158.013 31.6798L158.637 31.1238L162.065 29.1772L163.312 30.2912L163.936 30.8431H165.494L166.116 30.2912L166.428 29.7359H166.74L168.299 29.1772L171.415 28.6245L172.038 28.3465H173.285L174.22 28.6245L175.154 29.4552L176.402 30.0139L177.337 30.5658Z" fill="#0A63AC"/>
<path d="M202.27 20.5625L201.023 21.1186L200.711 20.8405L200.087 19.1739V18.622L201.646 15.0078L202.27 14.7311L203.204 13.8972H204.14L204.763 14.1752L206.633 15.5639L206.321 16.3966L202.27 20.5625Z" fill="#0A63AC"/>
<path d="M188.245 4.44405L187.311 5L183.571 3.88794L182.636 2.77733L181.7 1.38859V0.834727L182.636 0H187.933L188.245 1.11061L188.557 3.61206V4.16592L188.245 4.44405Z" fill="#0A63AC"/>
<path d="M216.294 199.989H215.67L214.113 199.153L208.815 196.1L208.191 195.823L205.387 193.32L206.633 191.931L214.113 196.934L215.67 198.045L215.982 198.601L216.606 199.433V199.711L216.294 199.989Z" fill="#0A63AC"/>
<path d="M302.314 200.538L303.248 201.374L304.807 201.096L306.679 202.485L307.3 203.04L307.61 203.874V206.373L304.494 215.538L303.872 215.261L303.562 213.872H300.756L299.508 214.983L299.198 215.816L299.508 216.65H299.198L298.26 216.094L292.964 213.316L292.027 211.927V211.371L293.275 210.539L293.899 210.261L294.523 209.983L295.771 207.762L296.081 206.651L296.701 201.651L296.391 201.374L296.081 200.818L295.771 199.43V196.652L298.887 194.984L300.756 196.93L302.004 198.874L302.314 200.538Z" fill="#0A63AC"/>
<path d="M233.89 134.4H235.69V145.434H242.512V147H233.89V134.4ZM249.587 147.144C247.907 147.144 246.599 146.664 245.663 145.704C244.727 144.744 244.259 143.364 244.259 141.564V134.4H246.059V141.492C246.059 144.192 247.241 145.542 249.605 145.542C250.757 145.542 251.639 145.212 252.251 144.552C252.863 143.88 253.169 142.86 253.169 141.492V134.4H254.915V141.564C254.915 143.376 254.447 144.762 253.511 145.722C252.575 146.67 251.267 147.144 249.587 147.144ZM268.019 145.434V147H257.489V145.776L265.409 135.966H257.615V134.4H267.785V135.624L259.901 145.434H268.019ZM275.982 147.144C274.71 147.144 273.564 146.868 272.544 146.316C271.524 145.752 270.72 144.978 270.132 143.994C269.556 143.01 269.268 141.912 269.268 140.7C269.268 139.488 269.556 138.39 270.132 137.406C270.72 136.422 271.524 135.654 272.544 135.102C273.564 134.538 274.71 134.256 275.982 134.256C277.242 134.256 278.382 134.538 279.402 135.102C280.422 135.654 281.22 136.422 281.796 137.406C282.372 138.378 282.66 139.476 282.66 140.7C282.66 141.924 282.372 143.028 281.796 144.012C281.22 144.984 280.422 145.752 279.402 146.316C278.382 146.868 277.242 147.144 275.982 147.144ZM275.982 145.542C276.906 145.542 277.734 145.332 278.466 144.912C279.21 144.492 279.792 143.916 280.212 143.184C280.644 142.44 280.86 141.612 280.86 140.7C280.86 139.788 280.644 138.966 280.212 138.234C279.792 137.49 279.21 136.908 278.466 136.488C277.734 136.068 276.906 135.858 275.982 135.858C275.058 135.858 274.218 136.068 273.462 136.488C272.718 136.908 272.13 137.49 271.698 138.234C271.278 138.966 271.068 139.788 271.068 140.7C271.068 141.612 271.278 142.44 271.698 143.184C272.13 143.916 272.718 144.492 273.462 144.912C274.218 145.332 275.058 145.542 275.982 145.542ZM296.247 134.4V147H294.771L287.211 137.604V147H285.411V134.4H286.887L294.447 143.796V134.4H296.247Z" fill="#0A63AC"/>
<path d="M139.834 349.4L134.308 362H132.526L126.982 349.4H128.926L133.462 359.75L138.034 349.4H139.834ZM141.441 349.4H143.241V362H141.441V349.4ZM150.685 362.144C149.737 362.144 148.819 362 147.931 361.712C147.055 361.412 146.365 361.028 145.861 360.56L146.527 359.156C147.007 359.588 147.619 359.942 148.363 360.218C149.119 360.482 149.893 360.614 150.685 360.614C151.729 360.614 152.509 360.44 153.025 360.092C153.541 359.732 153.799 359.258 153.799 358.67C153.799 358.238 153.655 357.89 153.367 357.626C153.091 357.35 152.743 357.14 152.323 356.996C151.915 356.852 151.333 356.69 150.577 356.51C149.629 356.282 148.861 356.054 148.273 355.826C147.697 355.598 147.199 355.25 146.779 354.782C146.371 354.302 146.167 353.66 146.167 352.856C146.167 352.184 146.341 351.578 146.689 351.038C147.049 350.498 147.589 350.066 148.309 349.742C149.029 349.418 149.923 349.256 150.991 349.256C151.735 349.256 152.467 349.352 153.187 349.544C153.907 349.736 154.525 350.012 155.041 350.372L154.447 351.812C153.919 351.476 153.355 351.224 152.755 351.056C152.155 350.876 151.567 350.786 150.991 350.786C149.971 350.786 149.203 350.972 148.687 351.344C148.183 351.716 147.931 352.196 147.931 352.784C147.931 353.216 148.075 353.57 148.363 353.846C148.651 354.11 149.005 354.32 149.425 354.476C149.857 354.62 150.439 354.776 151.171 354.944C152.119 355.172 152.881 355.4 153.457 355.628C154.033 355.856 154.525 356.204 154.933 356.672C155.353 357.14 155.563 357.77 155.563 358.562C155.563 359.222 155.383 359.828 155.023 360.38C154.663 360.92 154.117 361.352 153.385 361.676C152.653 361.988 151.753 362.144 150.685 362.144ZM166.221 358.85H159.525L158.139 362H156.285L161.991 349.4H163.773L169.497 362H167.607L166.221 358.85ZM165.591 357.41L162.873 351.236L160.155 357.41H165.591ZM175.444 357.644V362H173.662V357.608L168.658 349.4H170.584L174.616 356.042L178.666 349.4H180.448L175.444 357.644ZM189.547 358.85H182.851L181.465 362H179.611L185.317 349.4H187.099L192.823 362H190.933L189.547 358.85ZM188.917 357.41L186.199 351.236L183.481 357.41H188.917ZM198.375 362.144C197.427 362.144 196.509 362 195.621 361.712C194.745 361.412 194.055 361.028 193.551 360.56L194.217 359.156C194.697 359.588 195.309 359.942 196.053 360.218C196.809 360.482 197.583 360.614 198.375 360.614C199.419 360.614 200.199 360.44 200.715 360.092C201.231 359.732 201.489 359.258 201.489 358.67C201.489 358.238 201.345 357.89 201.057 357.626C200.781 357.35 200.433 357.14 200.013 356.996C199.605 356.852 199.023 356.69 198.267 356.51C197.319 356.282 196.551 356.054 195.963 355.826C195.387 355.598 194.889 355.25 194.469 354.782C194.061 354.302 193.857 353.66 193.857 352.856C193.857 352.184 194.031 351.578 194.379 351.038C194.739 350.498 195.279 350.066 195.999 349.742C196.719 349.418 197.613 349.256 198.681 349.256C199.425 349.256 200.157 349.352 200.877 349.544C201.597 349.736 202.215 350.012 202.73 350.372L202.137 351.812C201.609 351.476 201.045 351.224 200.445 351.056C199.845 350.876 199.257 350.786 198.681 350.786C197.661 350.786 196.893 350.972 196.377 351.344C195.873 351.716 195.621 352.196 195.621 352.784C195.621 353.216 195.765 353.57 196.053 353.846C196.341 354.11 196.695 354.32 197.115 354.476C197.547 354.62 198.129 354.776 198.861 354.944C199.809 355.172 200.571 355.4 201.147 355.628C201.723 355.856 202.215 356.204 202.623 356.672C203.043 357.14 203.253 357.77 203.253 358.562C203.253 359.222 203.073 359.828 202.713 360.38C202.353 360.92 201.807 361.352 201.075 361.676C200.343 361.988 199.443 362.144 198.375 362.144Z" fill="#FFD045"/>
<path d="M217.572 523L217.554 513.82L213 521.47H212.172L207.618 513.874V523H205.89V510.4H207.366L212.622 519.256L217.806 510.4H219.282L219.3 523H217.572ZM223.081 510.4H224.881V523H223.081V510.4ZM239.49 510.4V523H238.014L230.454 513.604V523H228.654V510.4H230.13L237.69 519.796V510.4H239.49ZM243.261 510.4H248.571C249.903 510.4 251.085 510.664 252.117 511.192C253.149 511.72 253.947 512.464 254.511 513.424C255.087 514.372 255.375 515.464 255.375 516.7C255.375 517.936 255.087 519.034 254.511 519.994C253.947 520.942 253.149 521.68 252.117 522.208C251.085 522.736 249.903 523 248.571 523H243.261V510.4ZM248.463 521.434C249.483 521.434 250.377 521.236 251.145 520.84C251.925 520.444 252.525 519.892 252.945 519.184C253.365 518.464 253.575 517.636 253.575 516.7C253.575 515.764 253.365 514.942 252.945 514.234C252.525 513.514 251.925 512.956 251.145 512.56C250.377 512.164 249.483 511.966 248.463 511.966H245.061V521.434H248.463ZM265.984 519.85H259.288L257.902 523H256.048L261.754 510.4H263.536L269.26 523H267.37L265.984 519.85ZM265.354 518.41L262.636 512.236L259.918 518.41H265.354ZM281.976 510.4V523H280.5L272.94 513.604V523H271.14V510.4H272.616L280.176 519.796V510.4H281.976ZM293.775 519.85H287.079L285.693 523H283.839L289.545 510.4H291.327L297.051 523H295.161L293.775 519.85ZM293.145 518.41L290.427 512.236L287.709 518.41H293.145ZM304.443 523.144C303.171 523.144 302.025 522.868 301.005 522.316C299.985 521.752 299.181 520.978 298.593 519.994C298.017 519.01 297.729 517.912 297.729 516.7C297.729 515.488 298.017 514.39 298.593 513.406C299.181 512.422 299.985 511.654 301.005 511.102C302.025 510.538 303.171 510.256 304.443 510.256C305.703 510.256 306.843 510.538 307.863 511.102C308.883 511.654 309.681 512.422 310.257 513.406C310.833 514.378 311.121 515.476 311.121 516.7C311.121 517.924 310.833 519.028 310.257 520.012C309.681 520.984 308.883 521.752 307.863 522.316C306.843 522.868 305.703 523.144 304.443 523.144ZM304.443 521.542C305.367 521.542 306.195 521.332 306.927 520.912C307.671 520.492 308.253 519.916 308.673 519.184C309.105 518.44 309.321 517.612 309.321 516.7C309.321 515.788 309.105 514.966 308.673 514.234C308.253 513.49 307.671 512.908 306.927 512.488C306.195 512.068 305.367 511.858 304.443 511.858C303.519 511.858 302.679 512.068 301.923 512.488C301.179 512.908 300.591 513.49 300.159 514.234C299.739 514.966 299.529 515.788 299.529 516.7C299.529 517.612 299.739 518.44 300.159 519.184C300.591 519.916 301.179 520.492 301.923 520.912C302.679 521.332 303.519 521.542 304.443 521.542Z" fill="#D83449"/>
</svg>
