<svg width="80" height="103" viewBox="0 0 80 103" fill="none" xmlns="http://www.w3.org/2000/svg">
<path d="M15.0752 97.4552H10.9832L10.1362 99.3802H9.00316L12.4902 91.6802H13.5792L17.0772 99.3802H15.9222L15.0752 97.4552ZM14.6902 96.5752L13.0292 92.8022L11.3682 96.5752H14.6902ZM21.2961 99.0392C21.1421 99.1712 20.9514 99.2739 20.7241 99.3472C20.4968 99.4132 20.2621 99.4462 20.0201 99.4462C19.4334 99.4462 18.9788 99.2886 18.6561 98.9732C18.3334 98.6579 18.1721 98.2069 18.1721 97.6202V94.4192H17.1821V93.5502H18.1721V92.2742H19.2281V93.5502H20.9001V94.4192H19.2281V97.5762C19.2281 97.8916 19.3051 98.1336 19.4591 98.3022C19.6204 98.4709 19.8478 98.5552 20.1411 98.5552C20.4638 98.5552 20.7388 98.4636 20.9661 98.2802L21.2961 99.0392ZM25.7111 99.0392C25.5571 99.1712 25.3665 99.2739 25.1391 99.3472C24.9118 99.4132 24.6771 99.4462 24.4351 99.4462C23.8485 99.4462 23.3938 99.2886 23.0711 98.9732C22.7485 98.6579 22.5871 98.2069 22.5871 97.6202V94.4192H21.5971V93.5502H22.5871V92.2742H23.6431V93.5502H25.3151V94.4192H23.6431V97.5762C23.6431 97.8916 23.7201 98.1336 23.8741 98.3022C24.0355 98.4709 24.2628 98.5552 24.5561 98.5552C24.8788 98.5552 25.1538 98.4636 25.3811 98.2802L25.7111 99.0392ZM27.9998 94.5292C28.1831 94.1919 28.4545 93.9352 28.8138 93.7592C29.1731 93.5832 29.6095 93.4952 30.1228 93.4952V94.5182C30.0642 94.5109 29.9835 94.5072 29.8808 94.5072C29.3088 94.5072 28.8578 94.6796 28.5278 95.0242C28.2051 95.3616 28.0438 95.8456 28.0438 96.4762V99.3802H26.9878V93.5502H27.9998V94.5292ZM33.5366 93.4952C34.3433 93.4952 34.9593 93.6932 35.3846 94.0892C35.8173 94.4852 36.0336 95.0756 36.0336 95.8602V99.3802H35.0326V98.6102C34.8566 98.8816 34.6036 99.0906 34.2736 99.2372C33.9509 99.3766 33.5659 99.4462 33.1186 99.4462C32.4659 99.4462 31.9416 99.2886 31.5456 98.9732C31.1569 98.6579 30.9626 98.2436 30.9626 97.7302C30.9626 97.2169 31.1496 96.8062 31.5236 96.4982C31.8976 96.1829 32.4916 96.0252 33.3056 96.0252H34.9776V95.8162C34.9776 95.3616 34.8456 95.0132 34.5816 94.7712C34.3176 94.5292 33.9289 94.4082 33.4156 94.4082C33.0709 94.4082 32.7336 94.4669 32.4036 94.5842C32.0736 94.6942 31.7949 94.8446 31.5676 95.0352L31.1276 94.2432C31.4283 94.0012 31.7876 93.8179 32.2056 93.6932C32.6236 93.5612 33.0673 93.4952 33.5366 93.4952ZM33.2946 98.6322C33.6979 98.6322 34.0463 98.5442 34.3396 98.3682C34.6329 98.1849 34.8456 97.9282 34.9776 97.5982V96.7842H33.3496C32.4549 96.7842 32.0076 97.0849 32.0076 97.6862C32.0076 97.9796 32.1213 98.2106 32.3486 98.3792C32.5759 98.5479 32.8913 98.6322 33.2946 98.6322ZM40.561 99.4462C39.967 99.4462 39.4354 99.3179 38.966 99.0612C38.504 98.8046 38.141 98.4526 37.877 98.0052C37.613 97.5506 37.481 97.0372 37.481 96.4652C37.481 95.8932 37.613 95.3836 37.877 94.9362C38.141 94.4816 38.504 94.1296 38.966 93.8802C39.4354 93.6236 39.967 93.4952 40.561 93.4952C41.089 93.4952 41.5584 93.6016 41.969 93.8142C42.387 94.0269 42.7097 94.3349 42.937 94.7382L42.134 95.2552C41.9507 94.9766 41.7234 94.7676 41.452 94.6282C41.1807 94.4889 40.88 94.4192 40.55 94.4192C40.1687 94.4192 39.824 94.5036 39.516 94.6722C39.2154 94.8409 38.977 95.0829 38.801 95.3982C38.6324 95.7062 38.548 96.0619 38.548 96.4652C38.548 96.8759 38.6324 97.2389 38.801 97.5542C38.977 97.8622 39.2154 98.1006 39.516 98.2692C39.824 98.4379 40.1687 98.5222 40.55 98.5222C40.88 98.5222 41.1807 98.4526 41.452 98.3132C41.7234 98.1739 41.9507 97.9649 42.134 97.6862L42.937 98.1922C42.7097 98.5956 42.387 98.9072 41.969 99.1272C41.5584 99.3399 41.089 99.4462 40.561 99.4462ZM47.6574 99.0392C47.5034 99.1712 47.3128 99.2739 47.0854 99.3472C46.8581 99.4132 46.6234 99.4462 46.3814 99.4462C45.7948 99.4462 45.3401 99.2886 45.0174 98.9732C44.6948 98.6579 44.5334 98.2069 44.5334 97.6202V94.4192H43.5434V93.5502H44.5334V92.2742H45.5894V93.5502H47.2614V94.4192H45.5894V97.5762C45.5894 97.8916 45.6664 98.1336 45.8204 98.3022C45.9818 98.4709 46.2091 98.5552 46.5024 98.5552C46.8251 98.5552 47.1001 98.4636 47.3274 98.2802L47.6574 99.0392ZM48.9341 93.5502H49.9901V99.3802H48.9341V93.5502ZM49.4621 92.4282C49.2568 92.4282 49.0844 92.3622 48.9451 92.2302C48.8131 92.0982 48.7471 91.9369 48.7471 91.7462C48.7471 91.5556 48.8131 91.3942 48.9451 91.2622C49.0844 91.1229 49.2568 91.0532 49.4621 91.0532C49.6674 91.0532 49.8361 91.1192 49.9681 91.2512C50.1074 91.3759 50.1771 91.5336 50.1771 91.7242C50.1771 91.9222 50.1074 92.0909 49.9681 92.2302C49.8361 92.3622 49.6674 92.4282 49.4621 92.4282ZM54.5034 99.4462C53.924 99.4462 53.4034 99.3179 52.9414 99.0612C52.4794 98.8046 52.1164 98.4526 51.8524 98.0052C51.5957 97.5506 51.4674 97.0372 51.4674 96.4652C51.4674 95.8932 51.5957 95.3836 51.8524 94.9362C52.1164 94.4816 52.4794 94.1296 52.9414 93.8802C53.4034 93.6236 53.924 93.4952 54.5034 93.4952C55.0827 93.4952 55.5997 93.6236 56.0544 93.8802C56.5164 94.1296 56.8757 94.4816 57.1324 94.9362C57.3964 95.3836 57.5284 95.8932 57.5284 96.4652C57.5284 97.0372 57.3964 97.5506 57.1324 98.0052C56.8757 98.4526 56.5164 98.8046 56.0544 99.0612C55.5997 99.3179 55.0827 99.4462 54.5034 99.4462ZM54.5034 98.5222C54.8774 98.5222 55.211 98.4379 55.5044 98.2692C55.805 98.0932 56.0397 97.8512 56.2084 97.5432C56.377 97.2279 56.4614 96.8686 56.4614 96.4652C56.4614 96.0619 56.377 95.7062 56.2084 95.3982C56.0397 95.0829 55.805 94.8409 55.5044 94.6722C55.211 94.5036 54.8774 94.4192 54.5034 94.4192C54.1294 94.4192 53.792 94.5036 53.4914 94.6722C53.198 94.8409 52.9634 95.0829 52.7874 95.3982C52.6187 95.7062 52.5344 96.0619 52.5344 96.4652C52.5344 96.8686 52.6187 97.2279 52.7874 97.5432C52.9634 97.8512 53.198 98.0932 53.4914 98.2692C53.792 98.4379 54.1294 98.5222 54.5034 98.5222ZM62.1018 93.4952C62.8425 93.4952 63.4291 93.7116 63.8618 94.1442C64.3018 94.5696 64.5218 95.1966 64.5218 96.0252V99.3802H63.4658V96.1462C63.4658 95.5816 63.3301 95.1562 63.0588 94.8702C62.7875 94.5842 62.3988 94.4412 61.8928 94.4412C61.3208 94.4412 60.8698 94.6099 60.5398 94.9472C60.2098 95.2772 60.0448 95.7539 60.0448 96.3772V99.3802H58.9888V93.5502H60.0008V94.4302C60.2135 94.1296 60.4995 93.8986 60.8588 93.7372C61.2255 93.5759 61.6398 93.4952 62.1018 93.4952ZM68.1481 99.4462C67.6714 99.4462 67.2131 99.3839 66.7731 99.2592C66.3331 99.1272 65.9884 98.9622 65.7391 98.7642L66.1791 97.9282C66.4358 98.1116 66.7474 98.2582 67.1141 98.3682C67.4808 98.4782 67.8511 98.5332 68.2251 98.5332C69.1491 98.5332 69.6111 98.2692 69.6111 97.7412C69.6111 97.5652 69.5488 97.4259 69.4241 97.3232C69.2994 97.2206 69.1418 97.1472 68.9511 97.1032C68.7678 97.0519 68.5038 96.9969 68.1591 96.9382C67.6898 96.8649 67.3048 96.7806 67.0041 96.6852C66.7108 96.5899 66.4578 96.4286 66.2451 96.2012C66.0324 95.9739 65.9261 95.6549 65.9261 95.2442C65.9261 94.7162 66.1461 94.2946 66.5861 93.9792C67.0261 93.6566 67.6164 93.4952 68.3571 93.4952C68.7458 93.4952 69.1344 93.5429 69.5231 93.6382C69.9118 93.7336 70.2308 93.8619 70.4801 94.0232L70.0291 94.8592C69.5524 94.5512 68.9914 94.3972 68.3461 94.3972C67.8988 94.3972 67.5578 94.4706 67.3231 94.6172C67.0884 94.7639 66.9711 94.9582 66.9711 95.2002C66.9711 95.3909 67.0371 95.5412 67.1691 95.6512C67.3011 95.7612 67.4624 95.8419 67.6531 95.8932C67.8511 95.9446 68.1261 96.0032 68.4781 96.0692C68.9474 96.1499 69.3251 96.2379 69.6111 96.3332C69.9044 96.4212 70.1538 96.5752 70.3591 96.7952C70.5644 97.0152 70.6671 97.3232 70.6671 97.7192C70.6671 98.2472 70.4398 98.6689 69.9851 98.9842C69.5378 99.2922 68.9254 99.4462 68.1481 99.4462Z" fill="#172D45"/>
<circle cx="40" cy="40.3802" r="40" fill="#1B9EB2"/>
<path d="M49.1667 36.4167C49.1667 35.9525 48.9823 35.5074 48.6541 35.1792C48.3259 34.851 47.8808 34.6667 47.4167 34.6667C46.9526 34.6667 46.5074 34.851 46.1793 35.1792C45.8511 35.5074 45.6667 35.9525 45.6667 36.4167V41.0833C45.6667 41.5475 45.8511 41.9926 46.1793 42.3208C46.5074 42.649 46.9526 42.8333 47.4167 42.8333C47.8808 42.8333 48.3259 42.649 48.6541 42.3208C48.9823 41.9926 49.1667 41.5475 49.1667 41.0833V36.4167Z" fill="currentColor"/>
<path d="M40.4167 34.6667C40.8808 34.6667 41.3259 34.851 41.6541 35.1792C41.9823 35.5074 42.1667 35.9525 42.1667 36.4167V41.0833C42.1667 41.5475 41.9823 41.9926 41.6541 42.3208C41.3259 42.649 40.8808 42.8333 40.4167 42.8333C39.9526 42.8333 39.5074 42.649 39.1793 42.3208C38.8511 41.9926 38.6667 41.5475 38.6667 41.0833V36.4167C38.6667 35.9525 38.8511 35.5074 39.1793 35.1792C39.5074 34.851 39.9526 34.6667 40.4167 34.6667Z" fill="currentColor"/>
<path d="M35.1667 36.4167C35.1667 35.9525 34.9823 35.5074 34.6541 35.1792C34.3259 34.851 33.8808 34.6667 33.4167 34.6667C32.9526 34.6667 32.5074 34.851 32.1793 35.1792C31.8511 35.5074 31.6667 35.9525 31.6667 36.4167V41.0833C31.6667 41.5475 31.8511 41.9926 32.1793 42.3208C32.5074 42.649 32.9526 42.8333 33.4167 42.8333C33.8808 42.8333 34.3259 42.649 34.6541 42.3208C34.9823 41.9926 35.1667 41.5475 35.1667 41.0833V36.4167Z" fill="currentColor"/>
<path d="M26.4167 45.1667C26.8808 45.1667 27.3259 45.351 27.6541 45.6792C27.9823 46.0074 28.1667 46.4525 28.1667 46.9167V52.75C28.1667 53.2141 27.9823 53.6593 27.6541 53.9874C27.3259 54.3156 26.8808 54.5 26.4167 54.5C25.9526 54.5 25.5074 54.3156 25.1793 53.9874C24.8511 53.6593 24.6667 53.2141 24.6667 52.75V46.9167C24.6667 46.4525 24.8511 46.0074 25.1793 45.6792C25.5074 45.351 25.9526 45.1667 26.4167 45.1667Z" fill="currentColor"/>
<path d="M57.3334 46.9167C57.3334 46.4525 57.149 46.0074 56.8208 45.6792C56.4926 45.351 56.0475 45.1667 55.5834 45.1667C55.1192 45.1667 54.6741 45.351 54.3459 45.6792C54.0177 46.0074 53.8334 46.4525 53.8334 46.9167V52.75C53.8334 53.2141 54.0177 53.6593 54.3459 53.9874C54.6741 54.3156 55.1192 54.5 55.5834 54.5C56.0475 54.5 56.4926 54.3156 56.8208 53.9874C57.149 53.6593 57.3334 53.2141 57.3334 52.75V46.9167Z" fill="currentColor"/>
<path d="M40.4167 13.6667H49.1667C49.4761 13.6667 49.7729 13.7896 49.9916 14.0084C50.2104 14.2272 50.3334 14.5239 50.3334 14.8333V19.5C50.3334 19.8094 50.2104 20.1062 49.9916 20.325C49.7729 20.5438 49.4761 20.6667 49.1667 20.6667H42.1667V23.042C46.286 23.337 50.1406 25.1815 52.9547 28.2042C55.7688 31.227 57.3333 35.2035 57.3334 39.3333H59.0834C60.4757 39.3333 61.8111 39.8865 62.7957 40.871C63.7802 41.8556 64.3334 43.191 64.3334 44.5833V58.5833C64.3334 59.0475 64.149 59.4926 63.8208 59.8208C63.4926 60.149 63.0475 60.3333 62.5834 60.3333H19.4167C18.9526 60.3333 18.5074 60.149 18.1792 59.8208C17.8511 59.4926 17.6667 59.0475 17.6667 58.5833V44.5833C17.6667 43.191 18.2198 41.8556 19.2044 40.871C20.1889 39.8865 21.5243 39.3333 22.9167 39.3333H24.6667C24.6667 35.4053 26.0818 31.6087 28.6529 28.639C31.2241 25.6694 34.7791 23.7255 38.6667 23.1633V15.4167C38.6667 14.9525 38.8511 14.5074 39.1793 14.1792C39.5074 13.851 39.9526 13.6667 40.4167 13.6667ZM41 26.5C37.5964 26.5 34.3322 27.8521 31.9255 30.2588C29.5188 32.6655 28.1667 35.9297 28.1667 39.3333V41.0833C28.1667 41.5475 27.9823 41.9926 27.6541 42.3208C27.3259 42.649 26.8808 42.8333 26.4167 42.8333H22.9167C22.4526 42.8333 22.0074 43.0177 21.6793 43.3459C21.3511 43.6741 21.1667 44.1192 21.1667 44.5833V56.8333H35.1667V50.4167C35.1667 49.9525 35.3511 49.5074 35.6793 49.1792C36.0074 48.851 36.4526 48.6667 36.9167 48.6667H45.0834C45.5475 48.6667 45.9926 48.851 46.3208 49.1792C46.649 49.5074 46.8334 49.9525 46.8334 50.4167V56.8333H60.8334V44.5833C60.8334 44.1192 60.649 43.6741 60.3208 43.3459C59.9926 43.0177 59.5475 42.8333 59.0834 42.8333H55.5834C55.1192 42.8333 54.6741 42.649 54.3459 42.3208C54.0177 41.9926 53.8334 41.5475 53.8334 41.0833V39.3333C53.8334 35.9297 52.4813 32.6655 50.0746 30.2588C47.6678 27.8521 44.4036 26.5 41 26.5ZM43.3334 52.1667H38.6667V56.8333H43.3334V52.1667Z" fill="currentColor"/>
</svg>
