<svg width="54" height="54" viewBox="0 0 54 54" fill="none" xmlns="http://www.w3.org/2000/svg">
<g clip-path="url(#clip1)">
<path d="M16.1322 20.4782H7.98805C7.40919 20.4782 6.86539 20.7547 6.52442 21.2225C6.18332 21.6901 6.08645 22.2924 6.26328 22.8435C6.39051 23.24 9.45852 32.5539 16.1322 32.5539C21.5729 32.5539 24.3094 32.3355 24.4234 32.326C24.9768 32.2808 25.479 31.9843 25.7856 31.5216C26.0924 31.0585 26.17 30.4806 25.996 29.9533C25.8686 29.5666 22.7951 20.4782 16.1322 20.4782ZM15.7687 29.6582C13.3979 29.6582 10.9479 25.4215 9.80656 23.1922L16.8592 23.374C19.2548 23.374 21.3532 27.394 22.49 29.5706C21.1758 29.6169 18.0843 29.6582 15.7687 29.6582Z" fill="white"/>
<path d="M52.8932 12.5993C52.3121 12.345 51.6746 12.4591 51.1352 12.7697C50.8507 12.9335 48.3519 13.904 38.0603 13.904C34.1807 13.904 30.4988 14.9936 27.0974 17.1458C23.695 14.9938 20.0126 13.904 16.134 13.904C5.60989 13.904 3.06147 12.8855 2.79758 12.739C2.25147 12.4355 1.60517 12.3505 1.03285 12.6229C0.401859 12.9235 0 13.56 0 14.2584C0 14.5283 0.0212861 20.9461 1.85816 27.4742C5.12485 39.0829 11.4245 41.5196 16.134 41.5196C20.4161 41.5196 24.0972 40.6085 27.0974 38.8096C30.0968 40.6089 33.7776 41.5196 38.0603 41.5196C42.7109 41.5196 48.9304 39.0816 52.1491 27.4672C53.9575 20.9424 53.9782 14.5283 53.9782 14.2584C53.9782 13.5389 53.5523 12.8877 52.8932 12.5993ZM38.0603 37.897C34.0308 37.897 30.6953 36.9798 28.1457 35.1707C27.8317 34.9479 27.4647 34.8365 27.0974 34.8365C26.7303 34.8365 26.3633 34.9477 26.0495 35.1705C23.4987 36.9798 20.1626 37.897 16.1337 37.897C6.21275 37.897 4.15739 22.7844 3.73267 16.7256C6.46901 17.2441 10.7322 17.5268 16.1337 17.5268C19.6481 17.5268 22.984 18.6292 26.0493 20.8036C26.6776 21.249 27.5183 21.2487 28.1455 20.8034C31.2092 18.629 34.545 17.5268 38.0601 17.5268C43.4263 17.5268 47.5712 17.2548 50.2459 16.7427C49.8263 22.8126 47.8016 37.897 38.0603 37.897Z" fill="white"/>
<path d="M27.9876 29.9531C27.8137 30.4804 27.8913 31.0585 28.1981 31.5214C28.5048 31.9843 29.007 32.2808 29.5602 32.326C29.6742 32.3355 32.4115 32.5539 37.852 32.5539C44.5246 32.5539 47.5928 23.24 47.7198 22.8435C47.897 22.2924 47.8 21.6901 47.459 21.2225C47.1182 20.7549 46.5743 20.4782 45.9954 20.4782H37.852C31.1896 20.4782 28.1154 29.5664 27.9876 29.9531ZM38.0339 29.8399C35.7259 29.8399 33.1839 29.4354 31.8704 29.3892C32.9296 27.3457 35.894 23.1921 38.3974 23.1921L44.7141 23.3738C43.5729 25.5835 40.3853 29.8399 38.0339 29.8399Z" fill="white"/>
</g>
<defs>
<clipPath id="clip1">
<rect width="54" height="54" fill="white"/>
</clipPath>
</defs>
</svg>
