<svg width="51" height="51" viewBox="0 0 51 51" fill="none" xmlns="http://www.w3.org/2000/svg">
<path d="M47.4895 33.648L48.8172 27.0095L31.875 18.5384V11.3444C31.877 9.80444 31.5394 8.28298 30.8862 6.88839C30.2331 5.4938 29.2804 4.2604 28.0961 3.27604C27.3674 2.66859 26.4487 2.33591 25.5 2.33591C24.5513 2.33591 23.6326 2.66859 22.9039 3.27604C21.7196 4.2604 20.767 5.4938 20.1138 6.88839C19.4606 8.28298 19.123 9.80444 19.125 11.3444V18.5384L2.18286 27.0095L3.51055 33.648L19.1681 31.606L19.9386 39.6967L12.75 42.7772V49.4062H38.25V42.7772L31.0614 39.6964L31.832 31.6057L47.4895 33.648ZM35.0625 44.8791V46.2187H15.9375V44.8791L23.3323 41.7097L22.3125 31.0024V27.9811L6.05199 30.1019L5.78593 28.7718L22.3125 20.5085V11.3444C22.3112 10.2719 22.5463 9.21224 23.0013 8.24097C23.4562 7.2697 24.1197 6.4107 24.9445 5.72514C25.1004 5.5951 25.297 5.52387 25.5 5.52387C25.703 5.52387 25.8996 5.5951 26.0555 5.72514C26.8804 6.4107 27.5439 7.2697 27.9988 8.24097C28.4537 9.21224 28.6889 10.2719 28.6875 11.3444V20.5085L45.2141 28.7718L44.9481 30.1019L28.6875 27.9811V31.0024L27.6677 41.7097L35.0625 44.8791Z" fill="white"/>
</svg>
