<svg width="80" height="102" viewBox="0 0 80 102" fill="none" xmlns="http://www.w3.org/2000/svg">
<path d="M11.0779 91.3L7.70086 99H6.61186L3.22386 91.3H4.41186L7.18386 97.625L9.97786 91.3H11.0779ZM11.9165 93.17H12.9725V99H11.9165V93.17ZM12.4445 92.048C12.2392 92.048 12.0669 91.982 11.9275 91.85C11.7955 91.718 11.7295 91.5567 11.7295 91.366C11.7295 91.1753 11.7955 91.014 11.9275 90.882C12.0669 90.7427 12.2392 90.673 12.4445 90.673C12.6499 90.673 12.8185 90.739 12.9505 90.871C13.0899 90.9957 13.1595 91.1533 13.1595 91.344C13.1595 91.542 13.0899 91.7107 12.9505 91.85C12.8185 91.982 12.6499 92.048 12.4445 92.048ZM20.4888 90.838V99H19.4768V98.076C19.2421 98.3987 18.9451 98.6443 18.5858 98.813C18.2265 98.9817 17.8305 99.066 17.3978 99.066C16.8331 99.066 16.3271 98.9413 15.8798 98.692C15.4325 98.4427 15.0805 98.0943 14.8238 97.647C14.5745 97.1923 14.4498 96.6717 14.4498 96.085C14.4498 95.4983 14.5745 94.9813 14.8238 94.534C15.0805 94.0867 15.4325 93.7383 15.8798 93.489C16.3271 93.2397 16.8331 93.115 17.3978 93.115C17.8158 93.115 18.2008 93.1957 18.5528 93.357C18.9048 93.511 19.1981 93.742 19.4328 94.05V90.838H20.4888ZM17.4858 98.142C17.8525 98.142 18.1861 98.0577 18.4868 97.889C18.7875 97.713 19.0221 97.471 19.1908 97.163C19.3595 96.8477 19.4438 96.4883 19.4438 96.085C19.4438 95.6817 19.3595 95.326 19.1908 95.018C19.0221 94.7027 18.7875 94.4607 18.4868 94.292C18.1861 94.1233 17.8525 94.039 17.4858 94.039C17.1118 94.039 16.7745 94.1233 16.4738 94.292C16.1805 94.4607 15.9458 94.7027 15.7698 95.018C15.6011 95.326 15.5168 95.6817 15.5168 96.085C15.5168 96.4883 15.6011 96.8477 15.7698 97.163C15.9458 97.471 16.1805 97.713 16.4738 97.889C16.7745 98.0577 17.1118 98.142 17.4858 98.142ZM27.7558 96.118C27.7558 96.1987 27.7485 96.305 27.7338 96.437H23.0038C23.0698 96.9503 23.2935 97.3647 23.6748 97.68C24.0635 97.988 24.5438 98.142 25.1158 98.142C25.8125 98.142 26.3735 97.9073 26.7988 97.438L27.3818 98.12C27.1178 98.428 26.7878 98.6627 26.3918 98.824C26.0032 98.9853 25.5668 99.066 25.0828 99.066C24.4668 99.066 23.9205 98.9413 23.4438 98.692C22.9672 98.4353 22.5968 98.0797 22.3328 97.625C22.0762 97.1703 21.9478 96.657 21.9478 96.085C21.9478 95.5203 22.0725 95.0107 22.3218 94.556C22.5785 94.1013 22.9268 93.7493 23.3668 93.5C23.8142 93.2433 24.3165 93.115 24.8738 93.115C25.4312 93.115 25.9262 93.2433 26.3588 93.5C26.7988 93.7493 27.1398 94.1013 27.3818 94.556C27.6312 95.0107 27.7558 95.5313 27.7558 96.118ZM24.8738 94.006C24.3678 94.006 23.9425 94.16 23.5978 94.468C23.2605 94.776 23.0625 95.1793 23.0038 95.678H26.7438C26.6852 95.1867 26.4835 94.787 26.1388 94.479C25.8015 94.1637 25.3798 94.006 24.8738 94.006ZM31.7192 99.066C31.1399 99.066 30.6192 98.9377 30.1572 98.681C29.6952 98.4243 29.3322 98.0723 29.0682 97.625C28.8115 97.1703 28.6832 96.657 28.6832 96.085C28.6832 95.513 28.8115 95.0033 29.0682 94.556C29.3322 94.1013 29.6952 93.7493 30.1572 93.5C30.6192 93.2433 31.1399 93.115 31.7192 93.115C32.2985 93.115 32.8155 93.2433 33.2702 93.5C33.7322 93.7493 34.0915 94.1013 34.3482 94.556C34.6122 95.0033 34.7442 95.513 34.7442 96.085C34.7442 96.657 34.6122 97.1703 34.3482 97.625C34.0915 98.0723 33.7322 98.4243 33.2702 98.681C32.8155 98.9377 32.2985 99.066 31.7192 99.066ZM31.7192 98.142C32.0932 98.142 32.4269 98.0577 32.7202 97.889C33.0209 97.713 33.2555 97.471 33.4242 97.163C33.5929 96.8477 33.6772 96.4883 33.6772 96.085C33.6772 95.6817 33.5929 95.326 33.4242 95.018C33.2555 94.7027 33.0209 94.4607 32.7202 94.292C32.4269 94.1233 32.0932 94.039 31.7192 94.039C31.3452 94.039 31.0079 94.1233 30.7072 94.292C30.4139 94.4607 30.1792 94.7027 30.0032 95.018C29.8345 95.326 29.7502 95.6817 29.7502 96.085C29.7502 96.4883 29.8345 96.8477 30.0032 97.163C30.1792 97.471 30.4139 97.713 30.7072 97.889C31.0079 98.0577 31.3452 98.142 31.7192 98.142ZM37.8766 99.066C37.3999 99.066 36.9416 99.0037 36.5016 98.879C36.0616 98.747 35.7169 98.582 35.4676 98.384L35.9076 97.548C36.1643 97.7313 36.4759 97.878 36.8426 97.988C37.2093 98.098 37.5796 98.153 37.9536 98.153C38.8776 98.153 39.3396 97.889 39.3396 97.361C39.3396 97.185 39.2773 97.0457 39.1526 96.943C39.0279 96.8403 38.8703 96.767 38.6796 96.723C38.4963 96.6717 38.2323 96.6167 37.8876 96.558C37.4183 96.4847 37.0333 96.4003 36.7326 96.305C36.4393 96.2097 36.1863 96.0483 35.9736 95.821C35.7609 95.5937 35.6546 95.2747 35.6546 94.864C35.6546 94.336 35.8746 93.9143 36.3146 93.599C36.7546 93.2763 37.3449 93.115 38.0856 93.115C38.4743 93.115 38.8629 93.1627 39.2516 93.258C39.6403 93.3533 39.9593 93.4817 40.2086 93.643L39.7576 94.479C39.2809 94.171 38.7199 94.017 38.0746 94.017C37.6273 94.017 37.2863 94.0903 37.0516 94.237C36.8169 94.3837 36.6996 94.578 36.6996 94.82C36.6996 95.0107 36.7656 95.161 36.8976 95.271C37.0296 95.381 37.1909 95.4617 37.3816 95.513C37.5796 95.5643 37.8546 95.623 38.2066 95.689C38.6759 95.7697 39.0536 95.8577 39.3396 95.953C39.6329 96.041 39.8823 96.195 40.0876 96.415C40.2929 96.635 40.3956 96.943 40.3956 97.339C40.3956 97.867 40.1683 98.2887 39.7136 98.604C39.2663 98.912 38.6539 99.066 37.8766 99.066ZM50.4555 99.121L49.4325 98.098C48.7505 98.758 47.8925 99.088 46.8585 99.088C46.3451 99.088 45.8831 99.0037 45.4725 98.835C45.0618 98.6663 44.7391 98.4317 44.5045 98.131C44.2771 97.823 44.1635 97.4747 44.1635 97.086C44.1635 96.6167 44.3065 96.2023 44.5925 95.843C44.8858 95.4763 45.3661 95.1023 46.0335 94.721C45.6961 94.3837 45.4578 94.0793 45.3185 93.808C45.1791 93.5367 45.1095 93.2543 45.1095 92.961C45.1095 92.4403 45.2965 92.0223 45.6705 91.707C46.0518 91.3917 46.5578 91.234 47.1885 91.234C47.7751 91.234 48.2408 91.377 48.5855 91.663C48.9301 91.949 49.1025 92.3413 49.1025 92.84C49.1025 93.2287 48.9741 93.577 48.7175 93.885C48.4681 94.193 48.0501 94.5157 47.4635 94.853L49.3665 96.745C49.5865 96.327 49.7441 95.8613 49.8395 95.348L50.6865 95.623C50.5545 96.2977 50.3308 96.8843 50.0155 97.383L51.0495 98.417L50.4555 99.121ZM47.1885 92.004C46.8438 92.004 46.5725 92.092 46.3745 92.268C46.1838 92.4367 46.0885 92.6603 46.0885 92.939C46.0885 93.137 46.1398 93.3277 46.2425 93.511C46.3525 93.6943 46.5615 93.9437 46.8695 94.259C47.3755 93.973 47.7238 93.7273 47.9145 93.522C48.1125 93.3167 48.2115 93.093 48.2115 92.851C48.2115 92.5943 48.1198 92.389 47.9365 92.235C47.7605 92.081 47.5111 92.004 47.1885 92.004ZM46.9245 98.208C47.6871 98.208 48.3141 97.966 48.8055 97.482L46.6165 95.304C46.0885 95.5973 45.7181 95.8723 45.5055 96.129C45.3001 96.3783 45.1975 96.6607 45.1975 96.976C45.1975 97.3427 45.3551 97.6397 45.6705 97.867C45.9931 98.0943 46.4111 98.208 46.9245 98.208ZM58.3216 91.3C59.3189 91.3 60.1036 91.5383 60.6756 92.015C61.2476 92.4917 61.5336 93.148 61.5336 93.984C61.5336 94.82 61.2476 95.4763 60.6756 95.953C60.1036 96.4297 59.3189 96.668 58.3216 96.668H56.4186V99H55.3186V91.3H58.3216ZM58.2886 95.711C58.9852 95.711 59.5169 95.5643 59.8836 95.271C60.2502 94.9703 60.4336 94.5413 60.4336 93.984C60.4336 93.4267 60.2502 93.0013 59.8836 92.708C59.5169 92.4073 58.9852 92.257 58.2886 92.257H56.4186V95.711H58.2886ZM62.8989 93.17H63.9549V99H62.8989V93.17ZM63.4269 92.048C63.2216 92.048 63.0493 91.982 62.9099 91.85C62.7779 91.718 62.7119 91.5567 62.7119 91.366C62.7119 91.1753 62.7779 91.014 62.9099 90.882C63.0493 90.7427 63.2216 90.673 63.4269 90.673C63.6323 90.673 63.8009 90.739 63.9329 90.871C64.0723 90.9957 64.1419 91.1533 64.1419 91.344C64.1419 91.542 64.0723 91.7107 63.9329 91.85C63.8009 91.982 63.6323 92.048 63.4269 92.048ZM68.5122 99.066C67.9182 99.066 67.3865 98.9377 66.9172 98.681C66.4552 98.4243 66.0922 98.0723 65.8282 97.625C65.5642 97.1703 65.4322 96.657 65.4322 96.085C65.4322 95.513 65.5642 95.0033 65.8282 94.556C66.0922 94.1013 66.4552 93.7493 66.9172 93.5C67.3865 93.2433 67.9182 93.115 68.5122 93.115C69.0402 93.115 69.5095 93.2213 69.9202 93.434C70.3382 93.6467 70.6609 93.9547 70.8882 94.358L70.0852 94.875C69.9019 94.5963 69.6745 94.3873 69.4032 94.248C69.1319 94.1087 68.8312 94.039 68.5012 94.039C68.1199 94.039 67.7752 94.1233 67.4672 94.292C67.1665 94.4607 66.9282 94.7027 66.7522 95.018C66.5835 95.326 66.4992 95.6817 66.4992 96.085C66.4992 96.4957 66.5835 96.8587 66.7522 97.174C66.9282 97.482 67.1665 97.7203 67.4672 97.889C67.7752 98.0577 68.1199 98.142 68.5012 98.142C68.8312 98.142 69.1319 98.0723 69.4032 97.933C69.6745 97.7937 69.9019 97.5847 70.0852 97.306L70.8882 97.812C70.6609 98.2153 70.3382 98.527 69.9202 98.747C69.5095 98.9597 69.0402 99.066 68.5122 99.066ZM73.9274 99.066C73.4507 99.066 72.9924 99.0037 72.5524 98.879C72.1124 98.747 71.7677 98.582 71.5184 98.384L71.9584 97.548C72.2151 97.7313 72.5267 97.878 72.8934 97.988C73.2601 98.098 73.6304 98.153 74.0044 98.153C74.9284 98.153 75.3904 97.889 75.3904 97.361C75.3904 97.185 75.3281 97.0457 75.2034 96.943C75.0787 96.8403 74.9211 96.767 74.7304 96.723C74.5471 96.6717 74.2831 96.6167 73.9384 96.558C73.4691 96.4847 73.0841 96.4003 72.7834 96.305C72.4901 96.2097 72.2371 96.0483 72.0244 95.821C71.8117 95.5937 71.7054 95.2747 71.7054 94.864C71.7054 94.336 71.9254 93.9143 72.3654 93.599C72.8054 93.2763 73.3957 93.115 74.1364 93.115C74.5251 93.115 74.9137 93.1627 75.3024 93.258C75.6911 93.3533 76.0101 93.4817 76.2594 93.643L75.8084 94.479C75.3317 94.171 74.7707 94.017 74.1254 94.017C73.6781 94.017 73.3371 94.0903 73.1024 94.237C72.8677 94.3837 72.7504 94.578 72.7504 94.82C72.7504 95.0107 72.8164 95.161 72.9484 95.271C73.0804 95.381 73.2417 95.4617 73.4324 95.513C73.6304 95.5643 73.9054 95.623 74.2574 95.689C74.7267 95.7697 75.1044 95.8577 75.3904 95.953C75.6837 96.041 75.9331 96.195 76.1384 96.415C76.3437 96.635 76.4464 96.943 76.4464 97.339C76.4464 97.867 76.2191 98.2887 75.7644 98.604C75.3171 98.912 74.7047 99.066 73.9274 99.066Z" fill="#172D45"/>
<circle cx="40" cy="40" r="40" fill="#1B9EB2"/>
<path d="M62.0312 56.0625H18.9688C18.5295 56.0625 18.1082 55.888 17.7976 55.5774C17.487 55.2668 17.3125 54.8455 17.3125 54.4062V26.25C17.3125 25.8107 17.487 25.3895 17.7976 25.0789C18.1082 24.7682 18.5295 24.5938 18.9688 24.5938H29.6681L32.5003 20.3703C32.6503 20.1425 32.8543 19.9552 33.0942 19.8252C33.334 19.6952 33.6022 19.6264 33.875 19.625H47.125C47.3978 19.6264 47.666 19.6952 47.9058 19.8252C48.1457 19.9552 48.3497 20.1425 48.4997 20.3703L51.3319 24.5938H62.0312C62.4705 24.5938 62.8918 24.7682 63.2024 25.0789C63.513 25.3895 63.6875 25.8107 63.6875 26.25V54.4062C63.6875 54.8455 63.513 55.2668 63.2024 55.5774C62.8918 55.888 62.4705 56.0625 62.0312 56.0625ZM20.625 52.75H60.375V27.9062H50.4375C50.1647 27.9048 49.8965 27.8361 49.6567 27.706C49.4168 27.576 49.2128 27.3888 49.0628 27.1609L46.2306 22.9375H34.7694L31.9372 27.1609C31.7872 27.3888 31.5832 27.576 31.3433 27.706C31.1035 27.8361 30.8353 27.9048 30.5625 27.9062H20.625V52.75Z" fill="currentColor"/>
<path d="M40.5 49.4375C38.5346 49.4375 36.6132 48.8547 34.979 47.7627C33.3448 46.6708 32.0711 45.1188 31.319 43.3029C30.5668 41.4871 30.37 39.489 30.7535 37.5613C31.1369 35.6336 32.0833 33.8629 33.4731 32.4731C34.8629 31.0833 36.6336 30.1369 38.5613 29.7535C40.489 29.37 42.4871 29.5668 44.3029 30.319C46.1188 31.0711 47.6708 32.3448 48.7627 33.979C49.8547 35.6132 50.4375 37.5346 50.4375 39.5C50.4375 42.1356 49.3905 44.6632 47.5269 46.5269C45.6632 48.3905 43.1356 49.4375 40.5 49.4375ZM40.5 32.875C39.1897 32.875 37.9088 33.2636 36.8194 33.9915C35.7299 34.7195 34.8807 35.7542 34.3793 36.9647C33.8779 38.1753 33.7467 39.5074 34.0023 40.7925C34.2579 42.0776 34.8889 43.2581 35.8154 44.1846C36.7419 45.1111 37.9224 45.7421 39.2075 45.9977C40.4927 46.2533 41.8247 46.1221 43.0353 45.6207C44.2458 45.1193 45.2805 44.2701 46.0085 43.1807C46.7365 42.0912 47.125 40.8103 47.125 39.5C47.125 37.7429 46.427 36.0578 45.1846 34.8154C43.9422 33.573 42.2571 32.875 40.5 32.875Z" fill="currentColor"/>
</svg>
